<?xml version="1.0" encoding="UTF-8"?>
<svg id="Layer_2" data-name="Layer 2" xmlns="http://www.w3.org/2000/svg" xmlns:xlink="http://www.w3.org/1999/xlink" viewBox="0 0 1467.14 168.12">
  <defs>
    <style>
      .cls-1 {
        fill: url(#_Безымянный_градиент_18-2);
      }

      .cls-1, .cls-2, .cls-3, .cls-4 {
        stroke-width: 0px;
      }

      .cls-2 {
        fill: url(#_Безымянный_градиент_18);
      }

      .cls-3 {
        fill: #a20000;
      }

      .cls-4 {
        fill: #030517;
      }
    </style>
    <linearGradient id="_Безымянный_градиент_18" data-name="Безымянный градиент 18" x1="66.36" y1="80.83" x2="66.36" y2="0" gradientUnits="userSpaceOnUse">
      <stop offset="0" stop-color="#f70000"/>
      <stop offset="1" stop-color="#f74f4f"/>
    </linearGradient>
    <linearGradient id="_Безымянный_градиент_18-2" data-name="Безымянный градиент 18" x1="41.64" y1="124.47" x2="149.18" y2="124.47" xlink:href="#_Безымянный_градиент_18"/>
  </defs>
  <g id="_Слой_1" data-name="Слой 1">
    <g>
      <g>
        <path class="cls-2" d="M114.93,80.6l-.32.23c-3.09-.69-6.31-1.06-9.61-1.06H0V0h87.75c42.96,0,61.37,54.57,27.18,80.6Z"/>
        <path class="cls-3" d="M59.36,168.12h0s0,0,0,0C26.58,168.12,0,141.54,0,108.76v-28.99h105c3.3,0,6.52.37,9.61,1.06l-64.51,49.13c-14.86,11.32-9.14,34.91,9.26,38.16Z"/>
        <path class="cls-1" d="M149.17,124.65c-.38,24.29-20.88,43.47-45.16,43.47h-44.64s0,0,0,0c-18.4-3.25-24.12-26.84-9.26-38.16l64.51-49.13c8.34,1.84,15.8,6.04,21.63,11.87,8.14,8.16,13.12,19.46,12.93,31.95Z"/>
      </g>
      <g>
        <path class="cls-4" d="M264.1,149.39h-68.26V17.71h63.02c12.21,0,21.61,3.12,28.19,9.36,6.58,6.24,9.87,14.53,9.87,24.87,0,13.69-5.71,23.36-17.12,28.99v.4c7.25,2.28,12.92,6.31,17.01,12.08,4.09,5.77,6.14,12.55,6.14,20.34,0,10.61-3.39,19.2-10.17,25.77-6.78,6.58-16.34,9.87-28.69,9.87ZM255.44,41.67h-33.83v29.4h34.03c5.1,0,8.99-1.38,11.68-4.13,2.68-2.75,4.03-6.27,4.03-10.57,0-9.8-5.3-14.7-15.91-14.7ZM259.87,94.02h-38.26v31.61h38.05c5.77,0,10.03-1.44,12.79-4.33,2.75-2.89,4.13-6.68,4.13-11.38s-1.48-8.36-4.43-11.38c-2.96-3.02-7.05-4.53-12.28-4.53Z"/>
        <path class="cls-4" d="M402.12,62.11c10,9.87,15,22.39,15,37.55s-5,27.69-15,37.55c-10,9.87-22.85,14.8-38.56,14.8s-28.56-4.93-38.56-14.8c-10-9.87-15-22.38-15-37.55s5-27.68,15-37.55c10-9.87,22.85-14.8,38.56-14.8s28.56,4.93,38.56,14.8ZM342.32,121.3c5.44,5.57,12.52,8.36,21.24,8.36s15.77-2.78,21.14-8.36c5.37-5.57,8.05-12.79,8.05-21.65s-2.68-16.07-8.05-21.65c-5.37-5.57-12.42-8.35-21.14-8.35s-15.8,2.79-21.24,8.35c-5.44,5.57-8.15,12.79-8.15,21.65s2.72,16.08,8.15,21.65Z"/>
        <path class="cls-4" d="M456.18,149.39h-23.96V17.71h23.96v131.68Z"/>
        <path class="cls-4" d="M577.99,17.71v81.14c0,15.98-4.9,28.83-14.7,38.56-9.8,9.73-22.62,14.6-38.46,14.6s-28.56-4.93-38.56-14.8c-10-9.87-15-22.38-15-37.55,0-16.51,4.93-29.36,14.8-38.56,9.87-9.19,21.31-13.79,34.33-13.79,7.38,0,13.96,1.48,19.73,4.43,5.77,2.95,10.27,6.98,13.49,12.08h.4V17.71h23.96ZM503.6,121.3c5.44,5.57,12.52,8.36,21.24,8.36s15.77-2.78,21.14-8.36c5.37-5.57,8.06-12.79,8.06-21.65s-2.69-16.07-8.06-21.65c-5.37-5.57-12.42-8.35-21.14-8.35s-15.8,2.79-21.24,8.35c-5.43,5.57-8.15,12.79-8.15,21.65s2.72,16.08,8.15,21.65Z"/>
        <path class="cls-4" d="M696.38,108.11h-81.54v.4c1.61,6.71,4.9,12.02,9.87,15.91,4.96,3.9,11.14,5.84,18.52,5.84,10.74,0,18.59-3.15,23.56-9.46h25.57c-3.76,9.53-9.97,17.11-18.63,22.75-8.66,5.64-18.82,8.46-30.5,8.46-15.7,0-28.56-4.93-38.56-14.8-10-9.87-15-22.38-15-37.55s5-27.68,15-37.55c10-9.87,22.85-14.8,38.56-14.8s28.32,4.93,38.26,14.8c9.93,9.87,14.9,22.39,14.9,37.55v8.46ZM643.23,69.05c-6.98,0-12.88,1.71-17.72,5.13-4.83,3.42-8.19,8.22-10.07,14.4v.4h55.57v-.4c-1.88-6.04-5.27-10.8-10.17-14.3-4.9-3.49-10.77-5.23-17.62-5.23Z"/>
        <path class="cls-4" d="M795.25,92.61h-23.76v-1.01c0-14.63-6.58-21.95-19.73-21.95s-19.73,7.32-19.73,21.95v57.79h-23.96v-57.79c0-14.63,3.92-25.67,11.78-33.12,7.85-7.45,18.49-11.18,31.91-11.18s24.03,3.76,31.81,11.28c7.79,7.52,11.68,18.66,11.68,33.42v.6Z"/>
        <path class="cls-4" d="M897.33,53.35h-13.89c-.4-7.65-3.36-13.69-8.86-18.12-5.51-4.43-12.96-6.64-22.35-6.64s-17.11,2.28-22.75,6.83c-5.64,4.55-8.46,10.65-8.46,18.31,0,4.88,1.45,8.84,4.35,11.87,2.9,3.04,6.69,5.21,11.34,6.53,4.66,1.32,9.79,2.51,15.39,3.56,5.6,1.06,11.23,2.12,16.9,3.18,5.67,1.07,10.8,2.7,15.41,4.89,4.61,2.2,8.35,5.69,11.22,10.49,2.87,4.8,4.31,10.76,4.31,17.9,0,12.22-4.36,21.95-13.08,29.2-8.73,7.25-20.34,10.87-34.83,10.87s-25.91-3.55-34.63-10.67c-8.73-7.11-13.23-16.78-13.49-28.99h14.3c.26,8.33,3.35,14.8,9.26,19.43,5.91,4.63,14.1,6.95,24.57,6.95s18.73-2.37,24.77-7.13c6.04-4.75,9.06-11.15,9.06-19.18,0-5.09-1.45-9.17-4.34-12.25-2.89-3.08-6.65-5.29-11.29-6.63-4.63-1.34-9.75-2.54-15.35-3.59-5.6-1.05-11.24-2.11-16.9-3.18-5.67-1.07-10.82-2.64-15.45-4.72-4.63-2.08-8.39-5.47-11.28-10.17-2.89-4.7-4.33-10.54-4.33-17.52,0-11.68,4.16-21.14,12.48-28.39,8.32-7.25,19.26-10.87,32.82-10.87s24.03,3.46,32.22,10.37c8.19,6.92,12.48,16.14,12.89,27.69Z"/>
        <path class="cls-4" d="M990.95,110.53v2.21c0,12.75-3.49,22.49-10.47,29.2-6.98,6.71-16.38,10.07-28.19,10.07s-21.45-3.35-28.49-10.07c-7.05-6.71-10.57-16.44-10.57-29.2V17.71h13.49v32.22h58.59v12.28h-58.59v50.54c0,8.86,2.28,15.54,6.84,20.03,4.56,4.5,10.81,6.75,18.73,6.75s14.16-2.25,18.73-6.75c4.56-4.5,6.85-11.18,6.85-20.03v-2.21h13.08Z"/>
        <path class="cls-4" d="M1090.01,101.87v-51.95h13.49v51.95c0,16.11-4.43,28.49-13.29,37.15-8.86,8.66-20.81,12.99-35.84,12.99s-26.98-4.33-35.84-12.99c-8.86-8.66-13.29-21.04-13.29-37.15v-51.95h13.49v51.95c0,11.95,3.19,21.21,9.56,27.79,6.37,6.58,15.07,9.87,26.07,9.87s19.7-3.29,26.08-9.87c6.37-6.58,9.56-15.84,9.56-27.79Z"/>
        <path class="cls-4" d="M1207.2,137.31c-9.94,9.8-22.75,14.7-38.46,14.7s-28.56-4.93-38.56-14.8c-10-9.87-15-22.38-15-37.55s4.96-28.36,14.9-37.95c9.93-9.6,22.15-14.4,36.65-14.4,9.39,0,17.75,2.08,25.07,6.24,7.31,4.16,12.79,9.8,16.41,16.91h.4V17.71h13.49v81.34c0,15.71-4.97,28.46-14.9,38.26ZM1139.95,128.25c7.38,7.52,16.98,11.28,28.79,11.28s21.41-3.76,28.79-11.28c7.38-7.51,11.07-17.05,11.07-28.59s-3.7-21.07-11.07-28.59c-7.39-7.52-16.98-11.28-28.79-11.28s-21.41,3.76-28.79,11.28c-7.39,7.52-11.07,17.05-11.07,28.59s3.69,21.08,11.07,28.59Z"/>
        <path class="cls-4" d="M1255.52,34.14c-2.01,2.08-4.43,3.12-7.25,3.12s-5.24-1.04-7.25-3.12c-2.01-2.08-3.02-4.46-3.02-7.15,0-2.82,1.01-5.24,3.02-7.25,2.01-2.01,4.43-3.02,7.25-3.02s5.23,1.01,7.25,3.02c2.01,2.01,3.02,4.43,3.02,7.25s-1.01,5.07-3.02,7.15ZM1255.12,149.39h-13.49V49.92h13.49v99.47Z"/>
        <path class="cls-4" d="M1362.54,62.11c10,9.87,15,22.39,15,37.55s-5,27.69-15,37.55c-10,9.87-22.85,14.8-38.56,14.8s-28.56-4.93-38.56-14.8c-10-9.87-15-22.38-15-37.55s5-27.68,15-37.55c10-9.87,22.85-14.8,38.56-14.8s28.56,4.93,38.56,14.8ZM1295.19,128.25c7.38,7.52,16.98,11.28,28.79,11.28s21.41-3.76,28.79-11.28c7.38-7.51,11.07-17.05,11.07-28.59s-3.7-21.07-11.07-28.59c-7.39-7.52-16.98-11.28-28.79-11.28s-21.41,3.76-28.79,11.28c-7.39,7.52-11.07,17.05-11.07,28.59s3.69,21.08,11.07,28.59Z"/>
        <path class="cls-4" d="M1464.32,77.11h-13.29c-.27-5.1-2.62-9.29-7.05-12.58-4.43-3.29-10.27-4.93-17.52-4.93-7.65,0-13.69,1.6-18.12,4.78-4.43,3.19-6.64,7.46-6.64,12.8,0,4.46,2.3,7.71,6.89,9.75s10.08,3.52,16.45,4.45c6.37.93,12.78,1.86,19.21,2.8,6.44.94,11.86,3.58,16.27,7.93,4.41,4.35,6.61,10.52,6.61,18.5,0,9.13-3.73,16.64-11.17,22.55-7.45,5.91-17.28,8.86-29.5,8.86s-21.81-2.85-29.2-8.56c-7.38-5.7-11.21-13.05-11.48-22.05h13.69c.27,5.51,2.78,9.94,7.55,13.29,4.76,3.36,11.17,5.03,19.23,5.03,8.59,0,15.27-1.75,20.04-5.24,4.76-3.5,7.15-8.14,7.15-13.92,0-4.04-1.61-7.13-4.83-9.29-3.22-2.15-7.2-3.66-11.95-4.53-4.75-.87-9.93-1.82-15.53-2.84-5.61-1.02-10.89-1.99-15.84-2.89-4.95-.9-9.03-3.33-12.26-7.29-3.22-3.96-4.83-9.16-4.83-15.6,0-9.13,3.45-16.54,10.37-22.25,6.91-5.7,16.14-8.56,27.68-8.56s20.54,2.79,27.38,8.36c6.85,5.57,10.4,12.72,10.67,21.44Z"/>
      </g>
    </g>
  </g>
</svg>