<svg id="Layer_1" data-name="Layer 1" xmlns="http://www.w3.org/2000/svg" viewBox="0 0 643.45 285.29"><path d="M19.15,158.45a21.24,21.24,0,0,0,4.47-4.94,41.24,41.24,0,0,1,4.08-5.3,36.45,36.45,0,0,0,.11-4.56A2.86,2.86,0,0,1,30,140.58a1.34,1.34,0,0,0-1-.09,4,4,0,0,1-.71.22.52.52,0,0,1-.51-.19c-.14-.16-.14-.62,0-1.39q-.39-9.56-.26-18.39A101.65,101.65,0,0,1,29,104.21a51.79,51.79,0,0,1,4.39-13.88A31.06,31.06,0,0,1,41.8,79.74a42.43,42.43,0,0,1,13-6.5c5.57-1.87,12-2.34,19.18-1.58s12.94,2.81,17.6,6a33.35,33.35,0,0,1,10.79,12.07,42.16,42.16,0,0,1,4.55,16.41,67.64,67.64,0,0,1-1.31,19.17q-11.93,1.44-23.79,3a65,65,0,0,1,0-6.56q.17-3.64.22-7.38a61.77,61.77,0,0,0-.3-7.26,14.05,14.05,0,0,0-1.77-5.87,17.11,17.11,0,0,0-3.14-4.12A10.5,10.5,0,0,0,71.32,95c-3.86-.66-7-.53-9.44.46A13,13,0,0,0,56,100.07a22.4,22.4,0,0,0-3.28,7.71,53,53,0,0,0-1.33,9.63q-.26,5.09-.09,10.12c.1,3.35.15,6.48.12,9.39-.55,0-1.33-.1-2.36-.23a18.69,18.69,0,0,0-3-.13,4.63,4.63,0,0,0-2.47.76,2.21,2.21,0,0,0-.83,2.28c.4,1.23.87,1.89,1.42,2a2.85,2.85,0,0,0,1.84-.5c.68-.41,1.47-.88,2.36-1.38a6.92,6.92,0,0,1,3-.85,6.26,6.26,0,0,0-.14,3.68,6,6,0,0,0,1.42,2.18,18.77,18.77,0,0,0,1.92,1.63,5.84,5.84,0,0,1,1.62,1.85,10.31,10.31,0,0,1-2.46.82c-.82.16-1.57.33-2.25.52a7.39,7.39,0,0,0-1.85.8,3.16,3.16,0,0,0-1.24,1.83c1.5-.07,2.35.16,2.55.7a3.52,3.52,0,0,1,.08,1.9,5.45,5.45,0,0,0,0,2.09c.13.67.87,1,2.23,1.09a4.32,4.32,0,0,0-2.17,4.13c0,1.84.06,3.64,0,5.38a2.45,2.45,0,0,0-2.14.08,1.36,1.36,0,0,0-.72,1.84c0,.59.16.84.5.75a2.72,2.72,0,0,0,1-.51c.34-.26.64-.48.92-.66s.41,0,.4.42a23.12,23.12,0,0,0-.25,5.37c.11,1.89.2,3.72.25,5.5a25.53,25.53,0,0,1-.35,5.15,7.89,7.89,0,0,1-2.06,4.18,3.42,3.42,0,0,1,1.8,2.25,12.27,12.27,0,0,1,.57,4,37,37,0,0,1-.34,4.63,41.18,41.18,0,0,1-.75,4.08,4,4,0,0,1,1.29,2.17c.2.86.35,1.78.48,2.78s.28,1.95.47,2.87a3.86,3.86,0,0,0,1.29,2.21,6,6,0,0,0,4.1,2.12,15.15,15.15,0,0,0,5.74-.39A28.26,28.26,0,0,0,69.48,214a21.38,21.38,0,0,0,5.31-3.8A17.65,17.65,0,0,0,79.46,203a31.28,31.28,0,0,0,1.35-8c.11-2.83.09-5.8-.06-8.94A69.46,69.46,0,0,1,81,176c4-.77,8.16-1.83,12.63-3.14a45.22,45.22,0,0,1,11.83-2,52.2,52.2,0,0,0-.28,8.67,86.06,86.06,0,0,1-.09,9.55,27.63,27.63,0,0,0-3.91,1,1.81,1.81,0,0,0-1.28,2.51c0,.93.25,1.39.8,1.39a4.63,4.63,0,0,0,1.84-.43c.69-.29,1.28-.53,1.76-.71s.72,0,.71.49a49.63,49.63,0,0,1-1.35,6,22.22,22.22,0,0,1-2.57,5.66,9.58,9.58,0,0,1-2.67,1l-2.45.45a9.33,9.33,0,0,0-2.26.71A4.47,4.47,0,0,0,91.86,209a4.51,4.51,0,0,0,2.4,2.12,4.4,4.4,0,0,1,2.4,2.25,7.88,7.88,0,0,1-2.4,3,30.72,30.72,0,0,0-3.41,3.28c-2.35,2.7-5.28,5.72-8.77,9.12a51.36,51.36,0,0,1-14.14,9.24A54.1,54.1,0,0,1,50.59,243c-5.39.45-9.59-.53-12.62-3,1.33-.46,2-1.17,2-2.13a1.87,1.87,0,0,0-2,.24,3.73,3.73,0,0,0-1.4,1.78c-3.43-2.21-5.8-6.07-7.1-11.54a90.9,90.9,0,0,1-2.24-18.7c-.19-7-.07-14.25.35-21.78s.71-14.57.87-21.14a11.53,11.53,0,0,0-2.93-2.9q-1.73-1.17-2.12-4.26c-1.22.9-2,1.12-2.34.63a2.79,2.79,0,0,0-1.92-1Zm7.9,5.46a2.51,2.51,0,0,0,.51-1.69q-.11-.81-1.32-.72a3.3,3.3,0,0,1-.41,1.87C25.56,163.74,26,163.93,27.05,163.91Zm0-11.69c2-.17,3-1,2.86-2.61-.54.11-.88,0-1-.17s-.54-.19-1.22.06a3.8,3.8,0,0,1-.61,1.33A1.26,1.26,0,0,0,27.07,152.22Zm3.35,33.49a1.27,1.27,0,0,1-.91-.29q-.3-.27-1.11.15c-.13,1,.33,1.56,1.41,1.61a1.28,1.28,0,0,1,.2-.8A3,3,0,0,0,30.42,185.71Zm.79,4.16c.81-1.71.91-2.59.31-2.66a2.62,2.62,0,0,0-1.81.55,2.21,2.21,0,0,0-1,1.6Q28.59,190.32,31.21,189.87Zm.1-27a1.68,1.68,0,0,0-1.42-1.69,2.71,2.71,0,0,0-.71,1.82C29.24,163.51,30,163.47,31.31,162.9Zm-1.4-6.85a1.28,1.28,0,0,0,1.83,0,6.22,6.22,0,0,0,1.63-1.81,2.62,2.62,0,0,0,.42-1.91c-.13-.58-.75-.76-1.83-.54.27.68.27,1.17,0,1.47a6.11,6.11,0,0,1-.92.83l-1,.77C29.68,155.09,29.64,155.5,29.91,156.05Zm2,20.08c0-.49-.2-.62-.61-.39V177c0,.49.2.62.6.38,0-.73.48-1.25,1.42-1.57a1.79,1.79,0,0,0,1.42-1.75c-.8-.51-1.31-.41-1.51.32A3,3,0,0,1,31.87,176.13Zm2.35-29.93c.55,0,.78.31.71.87a14.83,14.83,0,0,0-.11,1.56,16.75,16.75,0,0,0,8-2.8c-1,.18-1.57.09-1.84-.27a3.81,3.81,0,0,1-.6-1.32,11.3,11.3,0,0,1-.3-1.47c-.07-.47-.37-.65-.92-.56a1.87,1.87,0,0,1-1,1.18c-.55.28-1.1.53-1.64.75a8.44,8.44,0,0,0-1.54.83A1.51,1.51,0,0,0,34.22,146.2Zm-.11,25,1.42-.37v-1.27l-1.42.36Zm.67-12.34a2.58,2.58,0,0,1,1.82.76A15.6,15.6,0,0,1,37.71,161,4.86,4.86,0,0,0,39,162.18a2.79,2.79,0,0,0,2.23.2,13.26,13.26,0,0,0,3.89-3.9,3.32,3.32,0,0,0-.37-4.34,18.2,18.2,0,0,1-4,1c-.89.07-2.14.09-3.77.08.13.58,0,1-.31,1.15l-1,.59a5.22,5.22,0,0,0-.92.65C34.51,157.88,34.51,158.27,34.78,158.82Zm.73,16.33,1.42-.38v-1.26l-1.41.37ZM37,167.9c.54-.25.88-.33,1-.25a.91.91,0,0,1,.3.56,1.53,1.53,0,0,0,.3.64c.13.15.54,0,1.22-.39a1.8,1.8,0,0,0,1.43-2c0-1.08-.26-1.73-.8-2Q37,165,37,167.9Zm1.62-35.12,1.44-.23V131.3l-1.44.21C38.59,131.93,38.59,132.36,38.58,132.78Zm1.32,19.88c.4.52,1,.47,1.93-.13s.93-1.11.12-1.54a.72.72,0,0,0,.51-.28c.06-.13-.1-.22-.51-.26a.69.69,0,0,1-.41.71l-.82.35a2.94,2.94,0,0,0-.72.41A.58.58,0,0,0,39.9,152.66Zm1.23,29.93a2,2,0,0,0,1.32-.55,2,2,0,0,0,.61-1.06,1.07,1.07,0,0,0-.2-.92c-.2-.24-.57-.29-1.11-.14a4.4,4.4,0,0,1-.61,1.15A1.48,1.48,0,0,0,41.13,182.59Zm1.48-9.31a3.51,3.51,0,0,0,2.86-3.74,3.11,3.11,0,0,0-2.23,0,3.74,3.74,0,0,0-1.53,1.1,1.73,1.73,0,0,0-.31,1.51A1.5,1.5,0,0,0,42.61,173.28Zm1.2,29.65c.27-.8-.06-1.22-1-1.27s-1.34.22-1.21.77c.67-.23,1-.1,1,.37S43,203.32,43.81,202.93Zm3.46-80.64,2.06-.26,0-1.93-1.44.17a1,1,0,0,1-.42.93C47.21,121.36,47.14,121.72,47.27,122.29ZM47,157.37a2.1,2.1,0,0,0,.8,1.94,4.15,4.15,0,0,0,2,.6,4.84,4.84,0,0,0,.63-1.36,4.69,4.69,0,0,0,0-1.92c-1.09.47-1.8.56-2.14.28S47.54,156.79,47,157.37Zm2.23-21.84,1.43-.23v-1.22l-1.43.23ZM50.5,241.92l1.4-.61v-1.22l-1.4.61Zm8.59-91.2a1.83,1.83,0,0,1-1.14,2.1,3.12,3.12,0,0,0-1.76,2.08,12.62,12.62,0,0,0-1.41-1.43,4.51,4.51,0,0,0-2-1c.28-.63.63-1,1-1a9.14,9.14,0,0,1,1.43.06,7.23,7.23,0,0,0,1.74,0A5.36,5.36,0,0,0,59.09,150.72Zm-1.5,81c.28-1.14.12-1.67-.48-1.6a7.14,7.14,0,0,0-2.31.84C54.65,232.51,55.58,232.75,57.59,231.71Zm4.72,8.06c.14-.85.11-1.32-.08-1.4s-.44,0-.71.38a1.65,1.65,0,0,0-.41,1C61.1,240.11,61.5,240.1,62.31,239.77Zm1.61-16.45,1.41-.54c1-1.25.76-1.78-.58-1.62a2,2,0,0,1-.62,1.07C63.86,222.44,63.79,222.81,63.92,223.32ZM67,91.67c1.79.14,2.76-.3,2.92-1.31A1.94,1.94,0,0,0,67.86,90,1.21,1.21,0,0,0,67,91.67Zm0-3,1.45-.06V87.41l-1.45.06ZM65.36,220.43a2.21,2.21,0,0,0,2-.32,1.48,1.48,0,0,0,.83-1.89C66.46,218.63,65.51,219.37,65.36,220.43Zm1.22,14.72q0-.66.81-1a5.23,5.23,0,0,1-.29-.8c-.06-.25-.43-.19-1.1.19,0,.34,0,.7,0,1.09S66.18,235.21,66.58,235.15Zm4.34-8.66a1.8,1.8,0,0,1-.49-1.22q-.09-.87-.18-1.59a1.58,1.58,0,0,0-.49-1.05c-.26-.23-.8-.15-1.61.27a2.07,2.07,0,0,0-.42,1.4,4.07,4.07,0,0,0,.28,1.64,1.82,1.82,0,0,0,1,1Q69.71,227.29,70.92,226.49Zm3.29-131.2a1.93,1.93,0,0,0,.86-1.7,2,2,0,0,0-.81-1.77,6.16,6.16,0,0,0-3.53.84c-.3,1.24-.07,1.94.69,2.12S73.11,95.13,74.21,95.29Zm-2.5,132.05c1.75-.45,2.71-1.19,2.86-2.23a2.12,2.12,0,0,0-2.12.31A1.55,1.55,0,0,0,71.71,227.34Zm.51,6.7,2.23-.88,0-1.8-1.42.55a2.07,2.07,0,0,1-.62,1.06A1,1,0,0,0,72.22,234Zm4.41-12a3.74,3.74,0,0,1,.63-1.28,1.47,1.47,0,0,0,.22-1.3,3.11,3.11,0,0,1-1.31,0,2.27,2.27,0,0,0-1.52.38,4.55,4.55,0,0,0,.06,2.19Q75,222.82,76.63,222.07Zm-1.47,4,1.42-.53,0-1.14-1.42.53Zm2.38-10.62a5.76,5.76,0,0,0,3.45-.55q.44-1.59-.06-2.07a1.14,1.14,0,0,0-1.22-.23,3.52,3.52,0,0,0-1.43,1.05A2.76,2.76,0,0,0,77.54,215.41Zm6.28.09a2.18,2.18,0,0,0,.74-1.61c-.06-.46-.5-.61-1.31-.44a4.14,4.14,0,0,1-.64,1.74C82.33,215.55,82.74,215.65,83.82,215.5Zm.42-25.07c-.55.58-.76,1-.63,1.13s.37.22.71.12a1.14,1.14,0,0,0,.72-.52C85.18,190.91,84.91,190.66,84.24,190.43ZM85.42,81.79l1.46,0,0-1.12-1.46,0ZM84,205.37A9.36,9.36,0,0,0,86.86,204c.16-1.43-.79-1.72-2.83-.87C84,203.87,84,204.62,84,205.37ZM88.11,214c0-.85-.46-1.22-1.4-1.11-.56.61-.77,1.1-.64,1.48S86.88,214.67,88.11,214Zm-1.33-5.58a1.49,1.49,0,0,0,1.84-.28,6.7,6.7,0,0,0,1.66-1.87,3,3,0,0,0,.54-1.82c-.06-.5-.64-.54-1.73-.09a1.61,1.61,0,0,1-.13,1.3,2.91,2.91,0,0,1-.92.77,4.06,4.06,0,0,0-1,.81A1.18,1.18,0,0,0,86.78,208.46Zm4.44-9.12c1-.28,1.22-.05.8.7s-.71,1.26-.84,1.51q2.66-.81,4.82-1.6a15.05,15.05,0,0,0,3.81-2,2.88,2.88,0,0,1-2.54-.82c-.6-.65-.41-1.43.56-2.32a19.33,19.33,0,0,1-3.61,2.12A6.81,6.81,0,0,0,91.22,199.34Zm3.89-11.9c.54-.25,1.09-.48,1.64-.68s.7-.51.43-1l-1.44.38a.94.94,0,0,1-.31.63A.92.92,0,0,0,95.11,187.44Zm1.74,15.67c-.15,1.08.21,1.43,1.11,1.06a3.23,3.23,0,0,0,1.76-1.46c-.69.1-.82,0-.4-.42s.35-.54-.2-.48C99,202.26,98.22,202.69,96.85,203.11Z" fill="#fff"/><path d="M111,208.71a24.34,24.34,0,0,0,4.48-4.68,27.48,27.48,0,0,1,4.3-4.69,85.14,85.14,0,0,1,1.79-9.15c.75-2.93,1.54-5.83,2.35-8.71s1.56-5.66,2.25-8.38,1.25-5.47,1.69-8.27a10.85,10.85,0,0,1,3,.21,8.77,8.77,0,0,0,3,.07,17.42,17.42,0,0,0-3-1.88c-.86-.41-1.34-1.53-1.42-3.35-.11-.75,0-1,.49-.88s.71.18.84.06a2.12,2.12,0,0,0-.35-1.17,2.34,2.34,0,0,1-.34-1.31,21.5,21.5,0,0,1,1.64-6.06,12.42,12.42,0,0,0,1.25-5.24,5.67,5.67,0,0,0-2.08-3.8,12.73,12.73,0,0,1-3-3.56,16.59,16.59,0,0,1,4.12-3.38c1.59-.93,3.16-1.92,4.69-3q3.11-11.82,5.81-22.21c1.8-6.93,3.79-14,6-21a3.93,3.93,0,0,0-2.39-2.6,5.74,5.74,0,0,1-2.79-2.33q.15-6,.29-12.06h38.25c.09,1.67.11,3.33.07,5a25.8,25.8,0,0,1-.49,4.56,7.83,7.83,0,0,1-5.26,6.09q2.42,9.93,4.84,19.49t5.05,19l4.12,2.5a14.2,14.2,0,0,0,5.28,1.72,3.46,3.46,0,0,1-2.72,2.64,25.56,25.56,0,0,0-4.22,1.64c-.28.81-.16,1.35.34,1.6a6.06,6.06,0,0,0,1.7.54,3.51,3.51,0,0,0-1.2,2.39,8.06,8.06,0,0,0,.32,2.44c.24.79.54,1.65.89,2.56a5.29,5.29,0,0,1,.32,2.81,5.81,5.81,0,0,0-1.8-.37c-1-.1-1.43.15-1.44.76-1-.75-1.11-1.46-.33-2.11s1.1-1.24,1-1.74c-.91.71-1.35.59-1.32-.38a2.81,2.81,0,0,0-1.46,1.22c-.33.56-.69,1.12-1.09,1.7a4.85,4.85,0,0,1-1.55,1.43,4.34,4.34,0,0,1-2.86.29,5.33,5.33,0,0,0,2.7,2.49,5.31,5.31,0,0,1,2.7,2.46,4.64,4.64,0,0,0,2.29-.62,14.3,14.3,0,0,0,1.74-1.2l1.36-1.07a1.52,1.52,0,0,1,1.34-.29c.37.64.42,1.11.16,1.4a5.4,5.4,0,0,1-1,.83c-.39.27-.78.51-1.16.73a1.68,1.68,0,0,0-.79,1,1.47,1.47,0,0,0,1.59,1.35,10.27,10.27,0,0,1,2.56.44,61.34,61.34,0,0,0,1.81,8.19q1.16,3.9,2.59,7.65c0,.17-.23.27-.67.29a11.93,11.93,0,0,0-1.34.14,2.65,2.65,0,0,0-1.16.43.93.93,0,0,0-.31,1.07c-.28,1,.13,1.36,1.22,1.1a22.24,22.24,0,0,0,2.78-.81,7.22,7.22,0,0,0,.86,4.54,8.41,8.41,0,0,1,1,4.61,31,31,0,0,1,3.87,2.37,18.56,18.56,0,0,0,4.07,2.2q-.13,5.63-.25,11.25Q189,201,170,205.39c.09-3.8.19-7.6.28-11.4a8.46,8.46,0,0,1,1.76-2.11l2.33-2.07a25.51,25.51,0,0,0,2.14-2.15,6.91,6.91,0,0,0,1.39-2.38,5.55,5.55,0,0,0-.55-4.78,8.13,8.13,0,0,1-1.12-5.09c-5.09,1.17-8.7,1.37-10.82.5a9.09,9.09,0,0,1-3.75,2.07,43,43,0,0,1-5.32,1.26c-2,.35-3.92.69-5.88,1a33.79,33.79,0,0,0-5.41,1.29,7.47,7.47,0,0,0-1.38,2.61,22.69,22.69,0,0,0-.63,3c-.15,1.07-.34,2.12-.55,3.15a9.15,9.15,0,0,1-1.1,2.87,2.77,2.77,0,0,0,1.46,1.75,13.5,13.5,0,0,0,2.43.95,11.13,11.13,0,0,1,2.42,1,3.76,3.76,0,0,1,1.65,1.88,7.8,7.8,0,0,1,0,5.28,13.62,13.62,0,0,0-.25,6.58q-19.26,5.16-38.26,11.5Q110.91,215.43,111,208.71Zm14.49,3a1.94,1.94,0,0,1,.67-1,1.89,1.89,0,0,0,.68-1l-1.88.55c0,.3,0,.61,0,1S125.15,211.76,125.53,211.75Zm2.75-30.61a2,2,0,0,0,1.59.14,1.49,1.49,0,0,0,1.06-1.18,2,2,0,0,0-1.59-.14A1.48,1.48,0,0,0,128.28,181.14Zm3-40.21,1.32-.19c.52-.65.27-1-.73-.9s-1.45.3-1.34.77C131,140.53,131.27,140.64,131.27,140.93Zm-.45,44.24,1.32-.31c0-.34,0-.67,0-1l-1.32.31Zm4.42-12.6a2.83,2.83,0,0,0-2.76-2.59,2.16,2.16,0,0,0,.14,1.91C133,172.73,133.85,173,135.24,172.57Zm.82-10.87a1.7,1.7,0,0,0,.7-1.84c-.17-.73-.83-.9-2-.51a1.7,1.7,0,0,0-.71,1.85C134.26,161.93,134.92,162.1,136.06,161.7Zm-.95,40.73a2.53,2.53,0,0,0,1.6-.07,1.58,1.58,0,0,0,1.06-1.2,1.54,1.54,0,0,0-1.5-.1A1.67,1.67,0,0,0,135.11,202.43ZM137.2,169c-.14.79-.09,1.23.16,1.33a.76.76,0,0,0,.76-.16.75.75,0,0,0,.3-.77C138.36,169.12,138,169,137.2,169Zm.68-29c-.15,1.26.72,1.66,2.62,1.2.28-1.45-.33-2-1.85-1.73C138.64,139.84,138.38,140,137.88,140Zm2.27,15.86a2.14,2.14,0,0,1,.79-1.55c-.63.11-1,0-1.12-.45s-.62-.44-1.5-.11a1.67,1.67,0,0,0-.61,1.89C137.94,156.3,138.75,156.37,140.15,155.85Zm1.57,21.33,0-1.42-2.08.44C139.65,177.24,140.33,177.57,141.72,177.18Zm.34-38.18,1.32-.18c.52-.73.28-1.07-.73-1s-1.45.29-1.34.74C141.81,138.65,142.06,138.81,142.06,139Zm-1.49,30.93c1.63,0,2.49-.46,2.57-1.28s-.51-1.1-1.77-.86a1.42,1.42,0,0,1-.4,1.07A1.43,1.43,0,0,0,140.57,169.93Zm1.62-12.87c1.52-.16,2.12-.52,1.82-1.08a2,2,0,0,0-1.77-.91Zm1-9.19c1.88-.09,2.78-.74,2.68-1.94-.5.07-.82,0-.94-.15s-.5-.16-1.13,0a2,2,0,0,1-.59.93C142.93,147,142.93,147.35,143.17,147.87Zm.85-12.1a.68.68,0,0,1,.58-.7,1.06,1.06,0,0,0,.77-.59,2.28,2.28,0,0,1-1.13.14,2.36,2.36,0,0,1-.75-.33l0,.92C143.46,135.54,143.64,135.73,144,135.77Zm.66,3.86,1.33-.18,0-1-1.32.17ZM145.75,174a.91.91,0,0,1-.75-.27c-.12-.16-.5-.13-1.13.09,0,.75.41,1.18,1.29,1.28a.71.71,0,0,1,.3-.62A.58.58,0,0,0,145.75,174Zm-.65,3.49c1.77-.37,2.67-1.2,2.7-2.51a2.23,2.23,0,0,0-2.84.51C144.06,176.34,144.11,177,145.1,177.45Zm1.83-21.19c0-.65-.42-1.09-1.29-1.33-.52.56-.72,1-.6,1.37S145.79,156.64,146.93,156.26Zm-.64-4.93a4,4,0,0,0,2.49-1.65,12.8,12.8,0,0,0,1-2.37,4.41,4.41,0,0,0-2.88,1.89C146.25,150.19,146.05,150.9,146.29,151.33ZM146,161.87l2.08-.37,0-1.54-2.08.36Zm2.76,3c-.65.67-.81,1-.5,1.13a1.62,1.62,0,0,0,1-.12,1.43,1.43,0,0,0,.77-.63C150.24,165,149.8,164.87,148.8,164.87Zm17.69-35.69c.25.15.18.31-.2.49s-.57.22-.57.13a79.83,79.83,0,0,1-1.66-9.6,29.5,29.5,0,0,0-2.61-9.46,28,28,0,0,0-1.84,5.68c-.43,2-.86,4-1.28,6s-.92,4-1.47,5.85a15.25,15.25,0,0,1-2.58,5.12c-.14.57-.15.87,0,.9a.64.64,0,0,0,.47-.13,3.77,3.77,0,0,1,.58-.27q.28-.1.27.45c-.28,1-.62,2.14-1,3.3a8.9,8.9,0,0,0-.46,3.65,3.86,3.86,0,0,0-2.48.81,8.81,8.81,0,0,1-1.73,1.28q.75.18.84.51c.05.23.11.45.17.67a1.62,1.62,0,0,0,.36.65,2,2,0,0,0,1.41.28q-.85,4.27-2.09,8.36a47.12,47.12,0,0,0-1.71,8.49c2.65-.28,6.18-.88,10.62-1.75s8.56-1.53,12.36-2a3.23,3.23,0,0,0,.25-2.38c-.24-.54.15-1.06,1.18-1.57a1.15,1.15,0,0,1,.75.16l.66.37a.49.49,0,0,0,.47.07q.19-.1.21-.9c-2.14-.49-3.51-1.3-4.11-2.41a11.62,11.62,0,0,1-1.23-4,1.73,1.73,0,0,0,1.9-.06,5.4,5.4,0,0,1,2.86-.57,2.3,2.3,0,0,0-.05-2,6.19,6.19,0,0,0-1.21-1.18,2.18,2.18,0,0,0-1.43.38c-.32.26-.61.53-.87.78a2.88,2.88,0,0,1-.77.57,1.51,1.51,0,0,1-1.14-.12q-.83-4.73-1.68-8.67A56.43,56.43,0,0,1,166.49,129.18ZM150.67,165.5a1.33,1.33,0,0,0,1.22.19c.32-.14.48-.34.49-.57s-.15-.36-.46-.4S151.19,165,150.67,165.5ZM156,172l2.09-.39c.28-1.32-.21-1.92-1.47-1.78a2.63,2.63,0,0,1-.59,1A1,1,0,0,0,156,172Zm.71-6a2.65,2.65,0,0,1,1.84-1.49,8.19,8.19,0,0,0,2.39-1.16c-.09-1.43-1.47-1.89-4.13-1.35a1.4,1.4,0,0,1,.16,1.21,9,9,0,0,1-.5,1.18,5.19,5.19,0,0,0-.4,1C156,165.65,156.2,165.84,156.7,165.94Zm7.58-.37,0-.95a1,1,0,0,0-1-.23,1.38,1.38,0,0,0-.68.59.64.64,0,0,0,.08.73C162.85,166,163.39,165.91,164.28,165.57Zm-1.44-3.14,2.86-.47c.28-1.4-.4-1.91-2-1.56a2.76,2.76,0,0,1-.59,1A1,1,0,0,0,162.84,162.43Zm3.74-37.05,1.33-.13,0-1.08-1.33.13Zm1.67,9.4a5.37,5.37,0,0,0,2.19-.37,10.88,10.88,0,0,0,1.25-.75c.39-.26.8-.53,1.25-.8a7.25,7.25,0,0,1,2.2-.7l0-1.47a4,4,0,0,0-2.84,0,5.13,5.13,0,0,1-3.22.07c-1,.74-1.43,1.32-1.18,1.74A4.7,4.7,0,0,1,168.25,134.78Zm0,1.35c-.16,1.19.78,1.57,2.81,1.16q.43-2.06-2-1.65C169,136,168.72,136.17,168.22,136.13Zm3.88,35.21,0-1.34-1.91.33C170,171.45,170.58,171.79,172.1,171.34Zm-1.16-6.88c1.78-.11,2.67-.56,2.69-1.36a1.76,1.76,0,0,0-1.8-.12A1.28,1.28,0,0,0,170.94,164.46Zm2.06-30.2c-.52.5-.71.83-.59,1a.67.67,0,0,0,.66.19.8.8,0,0,0,.67-.41C173.87,134.81,173.63,134.54,173,134.26Zm4.35,16.48a4.15,4.15,0,0,0-2.38.19,2.13,2.13,0,0,1-2.36-.47q-.41,1.26.24,1.83a2.09,2.09,0,0,0,1.6.51,4,4,0,0,0,1.82-.59A2.21,2.21,0,0,0,177.35,150.74Zm-4.48-10.86a7.05,7.05,0,0,1,1.22.39,2.51,2.51,0,0,0,1.62-.19c0-.71-.42-1.11-1.3-1.18S173,139.15,172.87,139.88Zm.66,3.79q2.85-.09,2.7-1.8a1.06,1.06,0,0,1-.85-.16c-.18-.15-.6-.15-1.23,0a2,2,0,0,1-.59.87C173.3,142.81,173.29,143.16,173.53,143.67Zm1.52-7.77,1.33-.15,0-.93-1.33.14Zm1.3,32.47c-.5,0-.82-.09-.94-.25s-.5-.13-1.14.06c0,.71.41,1.13,1.3,1.24a.64.64,0,0,1,.3-.58A1.43,1.43,0,0,0,176.35,168.37Zm-.84,3.32c1.78-.31,2.69-1.07,2.72-2.31-.64.19-1.08.2-1.33,0a1.62,1.62,0,0,0-1.33,0,1.59,1.59,0,0,0-.6,1.23A1.06,1.06,0,0,0,175.51,171.69Zm.61-25a1.66,1.66,0,0,0,1.51.14,3,3,0,0,0,1.26-.89,5.46,5.46,0,0,0,.79-1.28,12.83,12.83,0,0,0,.51-1.38l-1.91.23c.24.5.27.87.07,1.11a2.4,2.4,0,0,1-.87.64,4.52,4.52,0,0,0-1,.59A1.06,1.06,0,0,0,176.12,146.66ZM178,156.74c0,.45-.3.75-.87.92s-.75.55-.51,1.14a3.14,3.14,0,0,1,1.51.37,1.78,1.78,0,0,1,.56.64c.12.25.24.52.36.8a1.09,1.09,0,0,0,.74.62A7,7,0,0,1,181,159a4.85,4.85,0,0,0,1-2.31c-.63-.09-1.51-.27-2.64-.55s-1.84-.18-2.1.3C177.72,156.38,178,156.48,178,156.74Zm-.62-29.18a1.38,1.38,0,0,0,.53,1.4c1.65-.07,2.36-.75,2.14-2.05A6.56,6.56,0,0,0,177.34,127.56Zm3.71,11.37a7,7,0,0,1,.35,1.15,8.76,8.76,0,0,1-.41,1.23c1.53-.18,2.89-.38,4.1-.6a11.27,11.27,0,0,0,3.35-1.16c-.89.1-1.45,0-1.7-.33a3.09,3.09,0,0,1-.54-1.05,7,7,0,0,1-.26-1.08c-.06-.35-.34-.49-.85-.44a2.08,2.08,0,0,1-1.83,1.31A4,4,0,0,0,181.05,138.93Zm.24,21.54c.5.28.88.36,1.14.23a.59.59,0,0,0,.39-.52c0-.21-.12-.35-.37-.4S181.81,160,181.29,160.47Zm1.46-5.32a1.7,1.7,0,0,0,1.33.21c.63-.09.81.23.54,1a2.8,2.8,0,0,0,2.7-1.54c.53-1,.36-1.7-.52-2a4.46,4.46,0,0,1-2.4,1C183.32,154,182.77,154.44,182.75,155.15Zm1.94-25.4,1.33-.12,0-.92-1.33.13Zm2,29.56c-1.66.15-2.37.86-2.15,2.13l2.87-.41A1.74,1.74,0,0,0,186.65,159.31Zm-2.18,3.58c-.15.72.13,1.09.83,1.11a10.27,10.27,0,0,0,2.58-.31c.4-1,.09-1.53-.92-1.56A3.6,3.6,0,0,0,184.47,162.89Zm.7-29.52a4.48,4.48,0,0,0,2.46.34q1.71-.11,1.74-1.14c-1.14-.24-1.56-1-1.28-2.22a2.71,2.71,0,0,0-1.93,1.29A11.14,11.14,0,0,1,185.17,133.37Zm1.3,33.39,2.1-.32c.28-1.25-.15-1.84-1.29-1.75-.26.38-.49.7-.69.94A1.33,1.33,0,0,0,186.47,166.76ZM188,160a4,4,0,0,0,1.92-.65,4,4,0,0,1,1.54-.73c-.09-1.45-1.42-1.93-4-1.41a5.19,5.19,0,0,0-.14,1.71A1.28,1.28,0,0,0,188,160Zm1.61,20.77c-.26-.13-.64,0-1.15.27a8.16,8.16,0,0,0-1,.62c-.27.48-.24.73.08.76a1.9,1.9,0,0,0,1.05-.25,5.48,5.48,0,0,0,1.07-.7C190,181.23,189.94,181,189.57,180.8Z" fill="#fff"/><path d="M216.57,71.33H255q-.07,5.1-.16,10.22a12.37,12.37,0,0,1-2.11,1.7c-.77.49-1.57.94-2.39,1.36a17,17,0,0,0-2.3,1.35,4,4,0,0,0-1.46,1.72,15.47,15.47,0,0,0-.69,7.52,82.38,82.38,0,0,1,.4,9.8,61.71,61.71,0,0,1-.82,9.12,13.76,13.76,0,0,0,.54,7.6,3.83,3.83,0,0,0,1.69,1.91c.88.56,1.8,1.1,2.75,1.62l2.56,1.37c.76.41,1.13.81,1.13,1.21,0,.16-.42.52-1.26,1.09s-1.74,1.15-2.71,1.76-1.9,1.24-2.81,1.85a5.9,5.9,0,0,0-1.55,1.3c0,1.38,0,2.81,0,4.3a4.27,4.27,0,0,1-1.49,3.55,2.11,2.11,0,0,1,1.31,1.66,11.22,11.22,0,0,1,.06,2.48c-.09.89-.2,1.81-.34,2.74a5.23,5.23,0,0,0,.15,2.47,3.19,3.19,0,0,1-1.64.49,17.85,17.85,0,0,0-2,.29,5.06,5.06,0,0,0-1.55.55c-.38.24-.46.67-.21,1.3,0,.73.23,1.17.74,1.33a3.72,3.72,0,0,0,1.83,0,15,15,0,0,0,2.8-1c-.06,3.88-.13,7.75-.19,11.63a15.77,15.77,0,0,0-6.23-1.66,9.89,9.89,0,0,0-6.66,1.71,9.45,9.45,0,0,0,2.26,2.33,7.77,7.77,0,0,0,3.83,1.19,4,4,0,0,0,2-.51,6.9,6.9,0,0,0,1.46-1.11,13.75,13.75,0,0,1,1.08-1,1,1,0,0,1,.87-.32,4.76,4.76,0,0,1,1.38,3.92c-.1,1.66-.15,3.3-.18,4.92q5.6-.44,11.79-1t13-1a46.2,46.2,0,0,0,5-3.34,18.9,18.9,0,0,1,5.55-2.84,24.78,24.78,0,0,0,3.09.26,16.45,16.45,0,0,0,2.32-.16c.78-.12,1.62-.23,2.52-.35s2.13-.2,3.68-.26l-.15,22.18a665.76,665.76,0,0,0-78,8.11l.24-11.17a18.89,18.89,0,0,1,4.49-3.45,9.19,9.19,0,0,0,3.92-4,1.19,1.19,0,0,0,0-.93,6.56,6.56,0,0,1-.27-1.08,1.64,1.64,0,0,1,.22-1.08,3.06,3.06,0,0,1,1.46-1,8.56,8.56,0,0,1-1.27-3.68,29.4,29.4,0,0,1-.29-4.86,32.06,32.06,0,0,1,.49-4.95,11.14,11.14,0,0,1,1.42-4,2.34,2.34,0,0,1-1.33-.79,2,2,0,0,1-.36-1.2,5.74,5.74,0,0,1,.22-1.39,4.92,4.92,0,0,0,.22-1.32c0-1,.11-2.2.27-3.62s.31-2.87.47-4.38a34,34,0,0,0,.18-4.35,10.78,10.78,0,0,0-.6-3.54,3.91,3.91,0,0,0-1.77-1.85q-1.23-.64-2.46-1.23a15.15,15.15,0,0,1-2.17-1.27,2,2,0,0,1-.91-1.8,13.49,13.49,0,0,1,4-3.23,8,8,0,0,0,3.61-3.9,21.76,21.76,0,0,0,1.11-7.82q-.1-4.38-.57-9.14t-.67-9.35a26.18,26.18,0,0,1,.83-8.21,22.26,22.26,0,0,0-3.83-3.1q-2.14-1.39-4.2-3C216.41,78.44,216.49,74.88,216.57,71.33Zm5,116.19c1.8-.09,2.7-.5,2.72-1.24a3.83,3.83,0,0,1-1.06-.23,3,3,0,0,0-1.63.11Zm.92-7.68,0,1c.52-.06.71,0,.58.3l1.34-.18c.27-.36.53-.52.78-.47l0-1c-.51.07-.77,0-.76-.27l-1.35.17C223.09,179.72,222.9,179.87,222.51,179.84Zm1.1-25.51,1.34-.13,0-.87-1.35.13Zm-.31,15a2.41,2.41,0,0,0,2,.14c.7-.25.94-.69.69-1.32a4.72,4.72,0,0,1-1.91-.27A2.42,2.42,0,0,1,223.3,169.34Zm1.13-18.19,1.92-.18c.14-.42-.11-.83-.74-1.23s-1-.37-1.15,0c.64.11.76.26.38.46A.7.7,0,0,0,224.43,151.15Zm2.47,10.75a1.3,1.3,0,0,0,.71-1.56c-.18-.64-.85-.81-2-.53a1.43,1.43,0,0,0-.7,1.62C225.08,162,225.75,162.18,226.9,161.9Zm-1.55,10.66,1.35-.16,0-1-1.35.16C225.36,171.9,225.36,172.23,225.35,172.56Zm2.46-17.78,0-.87a1.08,1.08,0,0,0-1.05-.26,1.25,1.25,0,0,0-.68.49.54.54,0,0,0,.08.67C226.37,155,226.91,155,227.81,154.78Zm-2.18,32.67a4.72,4.72,0,0,0,2.12.09,5.63,5.63,0,0,0,2.13-.66c-.35-1.75-1.75-2.6-4.19-2.52a3.5,3.5,0,0,0,.45,1.54C226.33,186.13,226.16,186.64,225.63,187.45Zm2.47-17.8c.51-.39.75-.76.69-1.13s-.47-.54-1.24-.53c-.52.38-.75.76-.69,1.12S227.33,169.65,228.1,169.65Zm-.49-4.75c1.67,0,2.73-.38,3.19-1.08a6,6,0,0,0,.91-2.42l-2.11.21c.24.47.24.82,0,1a3.69,3.69,0,0,1-1,.59,3.71,3.71,0,0,0-1,.6C227.37,164.08,227.36,164.43,227.61,164.9Zm2.17-12.9c0-.32.27-.51.78-.56a3.18,3.18,0,0,1-.28-.65q-.09-.3-1.05-.09c0,.25,0,.52,0,.8S229.4,152,229.78,152Zm-.85,14.11c1.67,0,2.57-.4,2.72-1.15C230,165,229.07,165.36,228.93,166.11Zm-.22,11.71a5.22,5.22,0,0,0,.07,1c.06.32.48.35,1.25.09l0-.86a1,1,0,0,1-.77-.09A.71.71,0,0,0,228.71,177.82Zm3.46,0c0-.41,0-.82,0-1.23-1.66,0-2.38.53-2.14,1.48ZM231,158c.64-.14,1.06-.14,1.25,0a.76.76,0,0,1,.27.65,1.32,1.32,0,0,1-.3.82,2.49,2.49,0,0,1-.49.54,22.64,22.64,0,0,0,4.14-.7,14.63,14.63,0,0,1,4.14-.45,1.71,1.71,0,0,0-.85-1l-1.24-.68a1.13,1.13,0,0,1-.65-.79c-.06-.32.17-.75.69-1.28a18.27,18.27,0,0,1-3.67,1.25A7.1,7.1,0,0,0,231,158Zm-.45,23.49,0,.86c.9.21,1.42,0,1.56-.68s-.11-.93-.76-.77C231.34,181.26,231.07,181.46,230.56,181.52Zm.9-6.73a1.11,1.11,0,0,1,.77.09,1.17,1.17,0,0,0,.57.24,4.43,4.43,0,0,0-.08-1c-.06-.28-.47-.33-1.24-.16Zm1.29,2.91,2.12-.25,0-.85-2.12.24Zm1.46-5.79c.36,1.18,1.5,1.79,3.43,1.82.9-.5,1.36-1,1.37-1.48a1.22,1.22,0,0,0-.75-1.14,3.32,3.32,0,0,0-1.92-.29A3.55,3.55,0,0,0,234.21,171.91Zm3.1-22.77c0-.28,0-.57,0-.86a.84.84,0,0,0-1-.28,1.29,1.29,0,0,0-.77.49c-.13.21-.08.43.18.66S236.54,149.37,237.31,149.14Zm-.24,13.44a2.44,2.44,0,0,0,2.5.06c.77-.44,1.1-1,1-1.61C238.75,161.36,237.59,161.88,237.07,162.58Zm1-12.16,1.34-.11c0-.29,0-.57,0-.86l-1.35.11Zm.18,32.74,1.93-.22a2.36,2.36,0,0,1,0-1.34q.2-.75-1.35-.21a2.36,2.36,0,0,1-.59.86C238,182.48,238,182.78,238.24,183.16Zm.69-6.16a4,4,0,0,0,2.41-.44,6.61,6.61,0,0,1,1.66-.84c.14-.74-.21-1.17-1-1.29a9.38,9.38,0,0,1-2.21-.56,12.73,12.73,0,0,0-1.18,1.59C238.3,175.89,238.42,176.41,238.93,177Zm6.75,11.38c-.27.83.24,1.3,1.53,1.4a5.78,5.78,0,0,0,3.29-.6c.15-1.22-.39-1.82-1.61-1.81A5.27,5.27,0,0,0,245.68,188.38Zm10.24,1.45V189a.86.86,0,0,0-1-.26,1.32,1.32,0,0,0-.78.49c-.13.22-.07.43.19.64S255.14,190.07,255.92,189.83ZM266.38,175c.52.12,1,.22,1.55.3a4.82,4.82,0,0,0,1.94-.19c.4-1.29-.5-1.79-2.7-1.48A2.15,2.15,0,0,1,266.38,175Zm1.51,3.21c2.06.09,3-.52,2.74-1.85a2.49,2.49,0,0,0-1.55-.31,4,4,0,0,0-1.36.45,1.33,1.33,0,0,0-.69.89C267,177.73,267.25,178,267.89,178.19Zm11.67-4.06c-.14,1,.76,1.41,2.7,1.15l0-1.77A5.85,5.85,0,0,0,279.56,174.13Z" fill="#fff"/><path d="M360.68,71.33h24.85q2.25,5.4,4.21,11.37t4.55,11.83a1.6,1.6,0,0,0,.56.79,2.82,2.82,0,0,1,.55.56,2.67,2.67,0,0,1,0,1.81,2,2,0,0,0,0,1.58c0,.16.24.39.71.68a3.41,3.41,0,0,1,.87.69,13.86,13.86,0,0,1,1.13,2.4,8.47,8.47,0,0,1,.68,2.87,2.37,2.37,0,0,1-.75,2,1.5,1.5,0,0,0-.28,1.87,1.85,1.85,0,0,0,1.17-.26,2.47,2.47,0,0,0,.54-.53.59.59,0,0,1,.38-.28q.24-.06.72.69c.21.42.19.66-.07.73a2.63,2.63,0,0,1-.86.08l-.94,0c-.31,0-.46.14-.46.47a1.38,1.38,0,0,0,.95.34l.86-.09a1.75,1.75,0,0,1,.62,0c.16,0,.29.28.4.69a51.8,51.8,0,0,0,2.88,7.86,73.3,73.3,0,0,1,3,7.67c.31.26.45.45.4.57a.56.56,0,0,1-.39.28,2.34,2.34,0,0,0-.62.33c-.21.15-.2.44,0,.86a2.66,2.66,0,0,1,1.9,1.28,11.3,11.3,0,0,1,.82,2.07c.23.75.47,1.47.75,2.14a2.66,2.66,0,0,0,1.67,1.47,71.73,71.73,0,0,1,2.88-9.21q1.71-4.38,3.5-8.86a4,4,0,0,0,2.56-1.28c.55-.67,1.14-1.33,1.75-2-.32-.43-.64-.63-1-.61a1.65,1.65,0,0,0-.85.33,4.15,4.15,0,0,1-.77.45c-.26.11-.5,0-.71-.34q3.84-10.71,7.35-21.62t7.77-21.68h24.38l.27,11.18a4.28,4.28,0,0,1-1.44,1.61c-.66.47-1.32,1-2,1.46a13.84,13.84,0,0,0-1.83,1.66,5.81,5.81,0,0,0-1.27,2.18,23.11,23.11,0,0,0-.27,8.3q.58,5,.69,9.78.21,9,.43,18a13.35,13.35,0,0,0,3.44,4,13.18,13.18,0,0,1,3.44,4.07,9.48,9.48,0,0,1-1.6,1.21c-.67.41-1.33.84-2,1.29a14.92,14.92,0,0,0-1.83,1.5,4.15,4.15,0,0,0-1.13,1.83,16.14,16.14,0,0,0-.59,4.54c0,1.77.06,3.64.21,5.6s.32,4,.53,6.1.33,4.11.38,6q.26,11.07.52,22.13a40,40,0,0,0,3.76,3.93,13.28,13.28,0,0,1,3.15,4.26c.08,3.6.17,7.19.26,10.79q-15.63-3.36-31.36-6l-.24-11.18a7.19,7.19,0,0,1,3.17-2.34,5.11,5.11,0,0,0,2.85-2.53,15.62,15.62,0,0,0,.32-6.9,77.14,77.14,0,0,1-.65-8.3l-1-44.7a1.62,1.62,0,0,0-1.23.8,5.56,5.56,0,0,0-.44,1.36c-.09.5-.18,1-.28,1.49a1.89,1.89,0,0,1-.75,1.21c.3-.74.18-1.19-.34-1.35a5.43,5.43,0,0,0-1.88-.2c-.51.38-.69.69-.53.91a1.79,1.79,0,0,0,.8.55l1.26.54q.7.3.72.81a6.11,6.11,0,0,1-1.72-.13q-.94-.19-.45.84c-.1.33-.07.56.09.7a2.38,2.38,0,0,0,.55.36,1.14,1.14,0,0,1,.48.41,1.25,1.25,0,0,1,0,.88q-4.31,10.72-7.53,21.7a156.46,156.46,0,0,1-7.75,20.93c-3-.35-6-.69-9-1q-4.32-11.92-8.61-23.43t-8.54-23a2.72,2.72,0,0,1-.33-.79c0-.12.08-.22.24-.29l.46-.22c.16-.07.23-.31.23-.71-1-.13-1.68-.46-1.9-1a4.72,4.72,0,0,1-.34-1.76,9.21,9.21,0,0,0-.18-1.74c-.12-.53-.64-.81-1.58-.85q.42,28.54.83,57.08a6.08,6.08,0,0,0,1.46,1.69c.64.54,1.33,1.08,2.08,1.63a18.26,18.26,0,0,1,2,1.69,6.4,6.4,0,0,1,1.38,2,7,7,0,0,1,.15,4.53,10.78,10.78,0,0,0,0,5.36q-16.14-1.76-32.34-2.73,0-5.25-.1-10.49a6.31,6.31,0,0,1,1.43-.93c.63-.32,1.29-.69,2-1.12a15.45,15.45,0,0,0,2-1.48,5.23,5.23,0,0,0,1.4-2A17.46,17.46,0,0,0,369,169c0-1.58,0-3.26-.13-5s-.25-3.64-.38-5.58-.2-3.85-.22-5.75,0-3.64.18-5.49.22-3.63.25-5.37,0-3.33-.05-4.79a14.89,14.89,0,0,0-.59-3.75,6.31,6.31,0,0,0-1.36-1.94,16.4,16.4,0,0,0-1.9-1.6c-.69-.5-1.38-1-2.06-1.37a5.56,5.56,0,0,1-1.51-1.22v-.36q1.41-1,2.73-2.1a21,21,0,0,1,2.89-2c-.12-.63.24-1.05,1.08-1.27q-.18-17.2-.37-34.43a38.69,38.69,0,0,0-6.75-5.13C360.75,78.32,360.71,74.82,360.68,71.33Zm8,75.4,1.11.05c0-.28,0-.55,0-.83l-1.11,0C368.64,146.18,368.65,146.45,368.65,146.73Zm.35-25.31c-.1.63,0,1,.17,1.13a.62.62,0,0,0,.63,0A.49.49,0,0,0,370,122C370,121.71,369.63,121.52,369,121.42Zm0-1.19,1.1,0v-.83l-1.1,0C369,119.68,369,120,369,120.23Zm3.51,18.62c0-.63-.38-1-1.11-1.24-.42.3-.58.63-.47,1S371.56,139,372.5,138.85Zm-.26-22.31c-.1.95.64,1.36,2.21,1.26.19-1.19-.33-1.76-1.59-1.72C372.86,116.4,372.66,116.55,372.24,116.54ZM372,98.38l1.1,0v-.83l-1.1,0Zm2.73,43.54c.2-.31.41-.41.62-.33,0-.71-.38-1-1.11-.88,0,.24,0,.49,0,.77S374.43,141.91,374.75,141.92Zm3.42-3.16c-.53-.34-.9-.46-1.11-.35s-.31.24-.3.4.13.28.39.37S377.76,139.14,378.17,138.76Zm-.81-14.08a.89.89,0,0,1,.63.2,1.29,1.29,0,0,0,.48.32,5.67,5.67,0,0,0-.1-1c-.05-.28-.39-.39-1-.34C377.35,124.12,377.36,124.4,377.36,124.68Zm1.34-29.15a1,1,0,0,0,1.09-.1,1.63,1.63,0,0,0,.62-.82,1,1,0,0,0-.17-.9,1.1,1.1,0,0,0-1.1-.32.59.59,0,0,1-.14.72l-.54.4a.48.48,0,0,0-.23.42C378.23,95.09,378.39,95.29,378.7,95.53Zm.53,4.66,1.72,0c0-.44,0-.88,0-1.31l-1.71,0C379.22,99.32,379.23,99.75,379.23,100.19Zm.17,12.29c0,.43,0,.87,0,1.31l1.73.06c0-.44,0-.88,0-1.32Zm0,3,1.25,0c0-.28,0-.56,0-.83l-1.26,0C379.43,114.9,379.43,115.18,379.44,115.46Zm2.19,34.09c-.42.38-.57.65-.47.81a.65.65,0,0,0,.56.27.53.53,0,0,0,.55-.26C382.37,150.18,382.16,149.91,381.63,149.55Zm1.67-38.14c-.53-.42-.95-.55-1.26-.4a4.36,4.36,0,0,1-1.41.31c-.1.32.06.72.49,1.21.73.1,1.23,0,1.48-.25A6.5,6.5,0,0,0,383.3,111.41Zm-2.08,43.25c0,.56.12.9.33,1a.82.82,0,0,0,.79,0,3.91,3.91,0,0,0,.94-.6,2.08,2.08,0,0,0,.62-.73c-.63-.2-1-.15-1.18.16S382.07,154.87,381.22,154.66Zm0-31.5c.42.18.71.19.87,0a.82.82,0,0,0,.23-.59,1.16,1.16,0,0,0-.25-.67c-.16-.2-.45-.24-.86-.09C381.25,122.28,381.26,122.72,381.26,123.16Zm1.45-20.38c1.56.2,2.28-.18,2.17-1.14a2.12,2.12,0,0,1-1.11-1.17c-.22-.52-.8-.75-1.73-.69q-.3,1.06.33,1.5C382.79,101.57,382.9,102.07,382.71,102.78Zm-.46,12.42a4,4,0,0,0,.57,1.33,1.76,1.76,0,0,1,.1,1.56l2.2.08c-.54-.74-.68-1.32-.42-1.75a1.52,1.52,0,0,0-.26-1.63A3.62,3.62,0,0,0,382.25,115.2Zm2.23,35.37c-.42.37-.57.64-.46.81a.67.67,0,0,0,.55.27.52.52,0,0,0,.55-.26C385.22,151.2,385,150.92,384.48,150.57Zm-.27-18.79,1.1.05c0-.28,0-.56,0-.84l-1.1-.05Zm.34-9.32,1.26.05c0-.28,0-.56,0-.84l-1.25,0C384.54,121.9,384.55,122.18,384.55,122.46Zm1.38-23.79c0-.56-.38-1-1.12-1.34-.41.31-.56.64-.45,1S385,98.81,385.93,98.67Zm2,17.93q2.67.59,2.16-2.08l-2.19-.08Zm.51,2.66,1.1,0v-1l-1.1,0C388.41,118.62,388.42,118.94,388.42,119.26Zm.78-21,1.25,0c0-.28,0-.56,0-.84l-1.24,0Zm3.05,15.14c-.42,0-.58.1-.47.35.94-.13,1.27-.48,1-1a1.73,1.73,0,0,1,.52-1.91,5.3,5.3,0,0,0-2.67-.46.92.92,0,0,1-.3.83,1,1,0,0,0-.3.84,4.41,4.41,0,0,0,1.34.53A1.06,1.06,0,0,1,392.25,113.4Zm-1.51,3.8c-.41.38-.56.65-.46.82a.66.66,0,0,0,.56.26.52.52,0,0,0,.54-.28C391.48,117.81,391.27,117.54,390.74,117.2ZM390.47,100l2.19.06c.19-1.2-.39-1.78-1.74-1.73a1.84,1.84,0,0,1-.46.77C390.25,99.27,390.26,99.57,390.47,100Zm3.92,1.07a2.23,2.23,0,0,0-.94-.39c-.42-.09-.68,0-.77.34-.21.48.09.71.87.69S394.61,101.46,394.39,101.05Zm-1.45,16.6a1.27,1.27,0,0,0,1,.4c.25-.06.38-.2.38-.4s-.14-.35-.4-.44S393.35,117.27,392.94,117.65Zm1.94,13.48c-.11-.65,0-1,.22-1.07s.18-.31-.25-.74a1.75,1.75,0,0,0-1.25.11.81.81,0,0,0-.46.7.92.92,0,0,0,.48.75A1.8,1.8,0,0,0,394.88,131.13Zm-1.36-6.58c1.47.23,2.25,0,2.34-.73a3.23,3.23,0,0,1-1-.41,1.83,1.83,0,0,0-1.34-.07Zm.21-26.17,1.09,0v-.84l-1.1,0C393.72,97.81,393.72,98.09,393.73,98.38Zm.23,14.24c0,.29,0,.57,0,.85.42,0,.63.14.63.39l1.1,0c0-.32.15-.44.46-.34v-.85c-.42-.18-.58-.34-.48-.5l-1.1,0C394.37,112.48,394.16,112.63,394,112.62Zm1-6.48q2.66.45,2.16-1.62l-2.19-.07Zm.8,10.78,1.1,0c0-.28,0-.56,0-.85l-1.1,0C395.74,116.36,395.74,116.64,395.75,116.92Zm1.35,15.19c1.67.18,2.61-.33,2.8-1.53a1.55,1.55,0,0,1-1.11-.43,5.66,5.66,0,0,1-.56-.82,4.62,4.62,0,0,0-.57-.82c-.21-.26-.63-.36-1.26-.31a2.33,2.33,0,0,1,.27,2.07C396.42,130.74,396.56,131.35,397.1,132.11ZM396.79,114l1.57.06c0-.4,0-.81,0-1.21l-1.57-.06Zm2.37,10a.52.52,0,0,1,.46-.59,5,5,0,0,0,.85-.25,3.62,3.62,0,0,0,.7-.39c.21-.15.25-.43.14-.85l-1.56-.08a.52.52,0,0,1-.23.66l-.69.51a1,1,0,0,0-.39.47C398.39,123.63,398.63,123.8,399.16,124Zm1.15,3.09,1.09.06c0-.28,0-.56,0-.85l-1.1-.06Zm1.6-6.84c0-.28,0-.56,0-.85-.32-.34-.61-.47-.87-.41a.82.82,0,0,0-.54.4.67.67,0,0,0,.09.68C400.74,120.31,401.18,120.37,401.91,120.24Zm0,3.05,1.1,0c.72-.61.5-1.07-.65-1.37,0,.33-.09.52-.3.59S401.85,122.87,402,123.29Zm7,21.68a.84.84,0,0,0,.54-.93c-.07-.42-.41-.69-1-.82a1,1,0,0,0-.53,1C408,144.59,408.31,144.84,408.94,145Zm3.77-8.41c.32.35.61.7.88,1.05a1.71,1.71,0,0,0,1.5.48c1-.16,1.5-.56,1.39-1.18a4,4,0,0,0-1-1.87l-1.87.36A1,1,0,0,0,412.71,136.56Zm6.89,7.59a1,1,0,0,0,.53-1c-.06-.38-.4-.64-1-.77a1,1,0,0,0-.53,1C418.63,143.76,419,144,419.6,144.15Zm-.1-5.33,1.72.14,0-1.24-1.1-.09a1,1,0,0,1-.46.52C419.43,138.26,419.38,138.48,419.5,138.82Zm2.34,7.27a.88.88,0,0,0-.94,0c-.42.17-.63.29-.62.37-.21.4-.17.65.09.76a1.26,1.26,0,0,0,.86,0,2,2,0,0,0,.78-.42C422.21,146.6,422.16,146.37,421.84,146.09Zm4.55-22.18a1,1,0,0,1,.06-.93,4.09,4.09,0,0,1,.53-.59,2.47,2.47,0,0,0,.46-.6,1.5,1.5,0,0,0,0-.94,10,10,0,0,1-2.37-1.27c-.95-.64-1.64-.77-2-.38a13.58,13.58,0,0,0,.68,2.78C424,122.92,424.92,123.56,426.39,123.91Zm.86-11.08,0-1.38-1.57-.08C425.47,112.44,426,112.93,427.25,112.83Zm1.65-3c-.18,1.42.56,2,2.22,1.88a1.36,1.36,0,0,0,.45-1,1.1,1.1,0,0,0-.41-.84,2,2,0,0,0-1-.43A1.57,1.57,0,0,0,428.9,109.78Zm.4-10.28,2.81.11a1.15,1.15,0,0,1,.44-1.25,2,2,0,0,1-1.11-.79c-.22-.35-.79-.45-1.72-.32A3.13,3.13,0,0,0,429.3,99.5ZM430,109l1.09.05c0-.29,0-.59,0-.88l-1.09,0C430,108.37,430,108.66,430,109Zm.84,9.85,1.09.07,0-.88-1.09-.07Zm1.12-27.28c-.53-.35-.89-.47-1.1-.35a.52.52,0,0,0-.3.44c0,.16.14.29.4.38S431.52,91.94,431.93,91.53Zm3.92,29.39a3.59,3.59,0,0,1,1.84-1.46,5.24,5.24,0,0,0,2-1.33,4.67,4.67,0,0,0-3-1.08,3.89,3.89,0,0,0-2.33.61,1.46,1.46,0,0,0-.59,1.54C433.9,119.84,434.59,120.41,435.85,120.92Zm-1.21-26.66c-.18,1.52.62,2.3,2.38,2.37a2,2,0,0,1,.68-1.31,2.74,2.74,0,0,0,.82-1.31,2.18,2.18,0,0,0-1.08.22c-.31.16-.59.3-.85.41a1.85,1.85,0,0,1-.85.17A1.92,1.92,0,0,1,434.64,94.26Zm6.82,33.44a1.29,1.29,0,0,0,.59-1.48c-.12-.69-.7-1-1.73-.91a1.62,1.62,0,0,0-.44,1.56C440,127.52,440.53,127.79,441.46,127.7ZM440.72,95c.42.35.77.49,1,.42s.39-.22.38-.44-.14-.37-.4-.46S441.13,94.57,440.72,95Zm4,23.89c-.53-.38-.89-.52-1.1-.4a.48.48,0,0,0-.3.42c0,.18.14.31.4.42S444.29,119.27,444.69,118.87ZM444,117l1.09.08c0-.3,0-.6,0-.9l-1.09-.07Z" fill="#fff"/><path d="M463.17,71.33h68q.2,8.86.37,17.73a1.86,1.86,0,0,1-1.1.33,11.69,11.69,0,0,1-1.44,0,2.76,2.76,0,0,0-1.19.18c-.34.14-.5.46-.49,1a2,2,0,0,0,1,1.47,1.78,1.78,0,0,0,1.36,0,7.51,7.51,0,0,0,1.85-1.27,12.08,12.08,0,0,0,.08,4.09,4,4,0,0,1-.61,3.44q-6-.36-12.08-.69a32.33,32.33,0,0,0-3.15-4,44,44,0,0,0-3.65-3.58,31.73,31.73,0,0,0-5.19-.06c-1.87.12-3.69.17-5.45.15a35.77,35.77,0,0,1-4.69-.31,4.23,4.23,0,0,1-2.93-1.44,4.15,4.15,0,0,1-.9,1.23,2.42,2.42,0,0,1-2.13.21,26.18,26.18,0,0,1,.1,4.17c-.08,1.21-.17,2.34-.26,3.4a28.32,28.32,0,0,0-.09,3.19,14.45,14.45,0,0,0,.6,3.58c-1.27-.82-2.3-.83-3.07,0a7.85,7.85,0,0,0-1.65,2.24,3.05,3.05,0,0,0,2,.27,3.32,3.32,0,0,0,1.26-.68,8.13,8.13,0,0,0,.83-.85c.22-.26.44-.25.68.05a38.73,38.73,0,0,1-.05,8.4,18.85,18.85,0,0,0,.43,7.47c-2-.19-3.22.35-3.53,1.6a1.62,1.62,0,0,0,1.19.19,1.75,1.75,0,0,0,.59-.5,1.74,1.74,0,0,1,.58-.5,1.62,1.62,0,0,1,1.19.19,3.83,3.83,0,0,1-.09,3,6.32,6.32,0,0,1-1.66,1.76,28.43,28.43,0,0,0,4.71,1.49,8.19,8.19,0,0,1,3.87,1.84,3.36,3.36,0,0,1,2.61-1,23,23,0,0,1,4.25.14,37,37,0,0,1,4.6.83c1.54.38,2.76.67,3.67.88.08,3.3.15,6.6.23,9.9a5,5,0,0,0-1.55-.8c-.8-.31-1.07,0-.82.89,0,.48.15.74.44.78a2.18,2.18,0,0,0,.93-.08l.84-.24c.22-.06.28.1.18.47a10.44,10.44,0,0,0,.17,3.94c.32,1.59.15,2.68-.51,3.25-2.38-.39-4.43-.76-6.13-1.12s-3.32-.68-4.86-1-3.09-.51-4.68-.7-3.47-.34-5.62-.46a6.32,6.32,0,0,0-.11,2.62c.14,1,.28,2,.41,3a7.59,7.59,0,0,1,0,2.57,1.91,1.91,0,0,1-1.24,1.53,11.4,11.4,0,0,1,1.28,3.75,23.71,23.71,0,0,1,.36,4.43,18.64,18.64,0,0,1-.49,4.14,5.56,5.56,0,0,1-1.46,2.84,4.25,4.25,0,0,1,2,3.28,28.82,28.82,0,0,1,.3,5.4q-.1,3-.2,6.13a26.54,26.54,0,0,0,.3,5.33c1.37.31,2.93.67,4.69,1.09s3.61.83,5.54,1.25,3.88.89,5.87,1.39,3.87,1,5.69,1.6a4.88,4.88,0,0,0,3.32-2.26,5,5,0,0,1,3.14-2.33,3.22,3.22,0,0,0,.62,1q.26.21.42,0a1.78,1.78,0,0,0,.32-.58,1.23,1.23,0,0,1,.49-.6,28.94,28.94,0,0,0,5.41,1.41,11.09,11.09,0,0,1,4.91,1.92q.3,14,.59,28-15-5-30.13-9.35l0-1c-.79-.32-1.18-.1-1.16.65q-18.22-5.15-36.65-9.24-.14-5.89-.28-11.79a7.19,7.19,0,0,0,3.71-2,8.34,8.34,0,0,1,3.54-2.21,2.1,2.1,0,0,0,.06-1c-.07-.33-.16-.68-.28-1.06a3.72,3.72,0,0,1-.2-1.11,2.28,2.28,0,0,1,.31-1.14c.22-.4.56-.45,1-.13s.69.16.68-.47c0-.36-.24-.47-.7-.34s-.8-.18-1-.94a7.44,7.44,0,0,1-.27-4.19,15.44,15.44,0,0,0,0-5.2.58.58,0,0,1,.59-.37l.94,0a1,1,0,0,0,.76-.2c.17-.15.19-.45.06-.92a7.39,7.39,0,0,0-1.63-.36q-.77-.06-.78-.6-.09-3.9-.18-7.39c-.05-2.32-.11-4.63-.17-6.91s-.11-4.59-.16-6.91-.12-4.79-.18-7.39q-1.76-2.08-3.51-3.81a29.05,29.05,0,0,0-4-3.3v-.39a12.84,12.84,0,0,1,1.59-1.23c.73-.5,1.45-1,2.18-1.57a21.86,21.86,0,0,0,2.09-1.78,5.07,5.07,0,0,0,1.32-1.88,10.52,10.52,0,0,0-.13-5.3,16.36,16.36,0,0,1-.16-6.65q1.89.83,4.31,1.69c1.6.58,2.79.41,3.56-.52l-3-.52a7,7,0,0,1-2.5-.87,2.13,2.13,0,0,0-.47-2.12q-.8-.8-2-2a22.43,22.43,0,0,0-.14-5.51,30.27,30.27,0,0,1-.15-6.44,3.68,3.68,0,0,1,1.86-.65c.79-.1,1.12-.6,1-1.51-1.82-.35-2.82-1.31-3-2.88a34.42,34.42,0,0,1-.11-4.9,42.39,42.39,0,0,0-7.48-5.92Q463.32,77.22,463.17,71.33ZM473,153.17l1.89.27,0-1.08-1.88-.27C473,152.45,473,152.81,473,153.17Zm2.07,7.82q2.93.87,2.35-1.51a1.59,1.59,0,0,1-1.2-.13,3.62,3.62,0,0,1-.61-.56,3.32,3.32,0,0,0-.61-.57,2.1,2.1,0,0,0-1.2-.25.8.8,0,0,0,.11.82,3,3,0,0,0,.61.57,1.71,1.71,0,0,1,.52.62A1.52,1.52,0,0,1,475.06,161Zm-2.83-67.6a3.57,3.57,0,0,1,1.11.45,1.55,1.55,0,0,0,1.28,0l0-1.35C473.11,92.31,472.32,92.59,472.23,93.39Zm.91,37.81,1.2.13c0-.32,0-.63,0-1l-1.2-.12C473.13,130.57,473.13,130.89,473.14,131.2Zm.26-10.45,1.2.11,0-1.08-1.2-.11Zm4,58c-.13-.56-.23-1-.29-1.2a3.17,3.17,0,0,1-.1-.62,2.7,2.7,0,0,1,.07-.6c.05-.21.13-.53.23-1-.92-.62-1.58-.83-2-.64a1.08,1.08,0,0,0-.57,1.11,3.23,3.23,0,0,0,.63,1.72A3,3,0,0,0,477.37,178.74Zm-2.74-56.54a1.67,1.67,0,0,0,1.38.67,5.12,5.12,0,0,0,1.27-.29c.39-.14.76-.27,1.1-.37a1.33,1.33,0,0,1,1.2.45c.11-.44-.1-.78-.62-1a4.69,4.69,0,0,0-1.8-.36,4.89,4.89,0,0,0-1.78.24C474.87,121.71,474.62,121.93,474.63,122.2Zm2.2,34.35,1.2.19,0-1-1.2-.18ZM477,114.3c2.5.2,3.27-.56,2.33-2.26l-3.08-.23A3.17,3.17,0,0,0,477,114.3Zm3.3,65.82c.09-.61-.31-1.15-1.23-1.59-.45.27-.62.6-.49,1S479.27,180.1,480.3,180.12Zm-1.06,5.46,1.2.25a.43.43,0,0,1,.24-.42,1.31,1.31,0,0,0,.42-.39,1.23,1.23,0,0,1-.87-.45c-.11-.2-.46-.32-1-.34C479.22,184.68,479.23,185.13,479.24,185.58Zm.3-92.85-1.88-.07,0,1c.45-.07.9-.12,1.36-.15S479.66,93.19,479.54,92.73Zm1.37,84.67,1.89.36c.55-.34.63-.64.23-.91s-.5-.73-.29-1.41l-1.88-.36c-.22.69-.32,1-.32,1.09S480.67,176.63,480.91,177.4Zm.38-61.8c-.46,0-.75-.18-.86-.41s-.47-.33-1-.29c-.23.25-.25.48-.07.67a1.66,1.66,0,0,0,.69.47,1.39,1.39,0,0,0,.85.07A.49.49,0,0,0,481.29,115.6Zm-2.4-21.53a1,1,0,0,0,.71,1.39,6.94,6.94,0,0,0,2.4.24c0-.64,0-1.28-.05-1.91A5.67,5.67,0,0,0,478.89,94.07Zm.33,13.61,0,1.5a4.75,4.75,0,0,0,3.08.63c-.13-.47,0-.78.23-.94s.36-.48.23-1a2.46,2.46,0,0,0-1.72-.66A2.76,2.76,0,0,0,479.22,107.68Zm2,3.54,1.2.09,0-1-1.19-.08C481.16,110.59,481.17,110.91,481.18,111.22Zm.95,18c-.21.79.11,1.19,1,1.19a8.6,8.6,0,0,1,2.14.24,1.18,1.18,0,0,0-1-1.62A3,3,0,0,0,482.13,129.18Zm-.78-32a7.93,7.93,0,0,1,1.88,0c.68.08.84-.26.48-1C482.23,95.94,481.44,96.27,481.35,97.18Zm1.83,75.35a3,3,0,0,0,2.23.83c.91,0,1.18-.55.81-1.63C484.5,170.68,483.48,171,483.18,172.53Zm.35-13.43,1.71.28c.2-1.25-.21-2-1.24-2.25a1.72,1.72,0,0,1-.49.81C483.28,158.13,483.29,158.52,483.53,159.1Zm2.19-36.27c0-.55-.42-.77-1.21-.66a3.24,3.24,0,0,1-1.88-.18.69.69,0,0,0,.2,1,3.17,3.17,0,0,0,1.21.66,2.35,2.35,0,0,0,1.28.06C485.71,123.59,485.84,123.31,485.72,122.83Zm1-27.88a4.34,4.34,0,0,0-1.49-1.58,5.13,5.13,0,0,0-2.82-.52,2.87,2.87,0,0,0,1.74,1.37C485,94.49,485.83,94.73,486.75,95Zm1.57,15.84a3.68,3.68,0,0,0-2.23-.85,12.2,12.2,0,0,1-2.57-.46c-.22.44-.06.84.46,1.2a4.82,4.82,0,0,0,1.81.75,6.49,6.49,0,0,0,1.87.14Q488.52,111.5,488.32,110.79Zm-1.43-9.89-3.07-.17a1.22,1.22,0,0,0,.29,1.45,2.28,2.28,0,0,0,1.38.56,1.68,1.68,0,0,0,1.27-.4C487.09,102,487.13,101.55,486.89,100.9Zm-3.32-10.48,1.88.07,0-1-1.87-.07C483.56,89.78,483.56,90.1,483.57,90.42Zm3.21,104.14,1.19.28c0-.37.13-.57.42-.59s.35-.29.23-.77l-1.88-.43Zm-.77-81c-.79.21-1.13.42-1,.61a.83.83,0,0,0,.69.33.88.88,0,0,0,.76-.22C486.61,114.06,486.47,113.82,486,113.51Zm-.16,14.7a2.53,2.53,0,0,1,.62,1,5.27,5.27,0,0,1,.11.91c0,.32,0,.64,0,1a1.87,1.87,0,0,0,.54,1.1c.91.29,1.45.28,1.62,0s.58-.33,1.27-.06a4.46,4.46,0,0,0-1.44-3.07A2.43,2.43,0,0,0,485.85,128.21Zm1.43,59.07,1.71.38,0-1.38-1.71-.37Zm1.42-11.78a.87.87,0,0,0,.57-1c-.07-.47-.45-.82-1.13-1a1,1,0,0,0-.57,1.05C487.63,175,488,175.27,488.7,175.5Zm-.76-10.31c-.09,1.08.72,1.68,2.42,1.81.2-1.35-.45-2.11-1.92-2.28C488.44,165.09,488.28,165.25,487.94,165.19Zm-.25-10.36,1.19.19c0-.32,0-.64,0-1l-1.2-.18ZM489.06,92c.21-.64,0-1-.53-1a1.6,1.6,0,0,1-1.21-.46C487,91.84,487.59,92.32,489.06,92ZM489,158.9l1.19.19c0-.32,0-.64,0-1l-1.2-.19Zm1.4,36.91c1,1.08,2.07,1.32,3.07.74l0-1.4a1.66,1.66,0,0,0-1.38-.74c-.68-.07-1-.33-1-.79.46,0,.62-.32.49-1-.68-.07-1.05,0-1.1.29a1.81,1.81,0,0,0,.11.92c.12.35.24.73.37,1.12S490.83,195.64,490.38,195.81Zm-1-88.95c-.79.22-1.13.43-1,.62a.82.82,0,0,0,.69.33,1.25,1.25,0,0,0,.85-.22C490.17,107.42,490,107.17,489.42,106.86Zm1.12,67.62c-.09.72,0,1.15.2,1.29a.74.74,0,0,0,.69.06q.33-.14.24-.57C491.6,175,491.23,174.71,490.54,174.48Zm10.14,19.35c0,.33,0,.66,0,1,.46.29.63.52.53.69l1.36.33c0-.37.16-.52.5-.44l0-1c-.45-.11-.62-.3-.52-.55l-1.36-.33C501.19,193.9,501,194,500.68,193.83ZM500.38,81a1.1,1.1,0,0,0,.37,1.15,1.9,1.9,0,0,0,1.2.45,1.75,1.75,0,0,0,1.19-.4,1,1,0,0,0,.31-1.14c-.58-.48-1-.63-1.37-.45A4.77,4.77,0,0,1,500.38,81Zm3.73,57.39a6.89,6.89,0,0,0,.88,1.19,2.27,2.27,0,0,0,1.71.59,7.81,7.81,0,0,0,1.26-.46c.39-.19.52-.62.4-1.31a2,2,0,0,0-.88-1.2,2.91,2.91,0,0,0-1.45-.48,2.18,2.18,0,0,0-1.35.4A1.42,1.42,0,0,0,504.11,138.37ZM503.5,83a2.12,2.12,0,0,0,1.71.55c.79,0,1.24-.38,1.34-1a2.68,2.68,0,0,0-1.89-.54C503.87,82,503.48,82.38,503.5,83Zm4.72,122.35a2.39,2.39,0,0,1,1.21,1.05c.24.44.8.69,1.71.76.44-.17.66-.61.64-1.33a2.28,2.28,0,0,0-.71-1.7Q508.17,203.09,508.22,205.39Zm1.51-59.06a3.74,3.74,0,0,1,1.11.61,1.93,1.93,0,0,0,1.45.22,1.37,1.37,0,0,0-1.14-1.62C510.3,145.32,509.82,145.58,509.73,146.33Zm4.6,68,1.19.35c0-.34,0-.68,0-1l-1.19-.36C514.32,213.62,514.33,214,514.33,214.3Zm2.91-5.37a1.18,1.18,0,0,1-.85-.61q-.18-.4-1-.36c-.44.45-.21.85.7,1.21S517.37,209.45,517.24,208.93Zm.32-121.43a2.76,2.76,0,0,0-1.55-.56,11.64,11.64,0,0,0-2.21,0,1.53,1.53,0,0,0,.38,1.47,1.94,1.94,0,0,0,1.28.48,2.47,2.47,0,0,0,1.36-.31A1.55,1.55,0,0,0,517.56,87.5ZM521.3,95a2.61,2.61,0,0,0,1.11.51,5.79,5.79,0,0,0,1.54.15,2.32,2.32,0,0,0,1.26-.38.94.94,0,0,0,.32-1.1,1.36,1.36,0,0,0-1-1,2.67,2.67,0,0,0-1.53-.07,3.2,3.2,0,0,0-1.34.67A1.12,1.12,0,0,0,521.3,95ZM523,86.65l1.71.06,0-1-1.7,0C523,86,523,86.3,523,86.65Zm2.85,107.52c-.09,1.16.77,1.89,2.57,2.18,0-.7,0-1.4,0-2.1A3.59,3.59,0,0,0,525.83,194.17Zm.78,5a3.69,3.69,0,0,0,1.94.54c.51-.06.78-.28.83-.67a1.47,1.47,0,0,0-.53-1.19,3,3,0,0,0-1.78-.78,1.74,1.74,0,0,1-.49.83C526.36,198,526.37,198.47,526.61,199.13Z" fill="#fff"/><path d="M539.42,210.88c.6-.83,1.92-1.43,4-1.82a6.83,6.83,0,0,0,4.49-2.61,7.94,7.94,0,0,0,1.32-3.57,19.88,19.88,0,0,1,1.31-4.53,27.82,27.82,0,0,1,1.51-3.56,10.22,10.22,0,0,0,1-3.16,7.25,7.25,0,0,0-.33-3.4,16.16,16.16,0,0,0-2.5-4.36,4.68,4.68,0,0,1,3.68-2.27,29.07,29.07,0,0,0,4.81-1.06,28.34,28.34,0,0,0,1.84-6.19,6.1,6.1,0,0,1,3.18-4.65,6.09,6.09,0,0,1,.3-4.63,5.58,5.58,0,0,1,2.92-3.26,3.5,3.5,0,0,1-.23-3.32,3.15,3.15,0,0,1,2.2-2.16,4.44,4.44,0,0,1,.05-2.79,5.2,5.2,0,0,0,.43-2.38,6.25,6.25,0,0,0,3.35.07q1.66-.42,1.26-3.33a2.22,2.22,0,0,0-1.4-.18,1,1,0,0,0-.64.63,3.42,3.42,0,0,1-.46.82,1.07,1.07,0,0,1-.83.42,2.07,2.07,0,0,1-1.22-.88,1.55,1.55,0,0,1-.11-1.18,12.61,12.61,0,0,1,.44-1.31,3.56,3.56,0,0,0,.26-1.36,1.11,1.11,0,0,0-1.22-.87,1.47,1.47,0,0,1-1.41-.74,43.35,43.35,0,0,0-2.95-9.37,68.2,68.2,0,0,1-3.32-9,27,27,0,0,0-5-3.58,60.61,60.61,0,0,0-5.78-2.79q.9-2.43,2-4.77a28.33,28.33,0,0,1,2.55-4.45,28.61,28.61,0,0,1-3.25-8.36,24,24,0,0,0-3.06-7.75,15.27,15.27,0,0,0-4.71-4.43,12.16,12.16,0,0,1-4.33-4.34q-.13-6.56-.26-13.11h24.24q4.17,12.24,8.85,24.3T581,120.92a195.43,195.43,0,0,0,9-23.7q3.93-12.6,8-25.89h23.49a38.59,38.59,0,0,0,.1,6.11,19.91,19.91,0,0,1-.09,5.17,2.12,2.12,0,0,1-.76,1.48l-.56.54c0,.38.28.7.85,1s.72.65.47,1.14a10.28,10.28,0,0,1-2.82,4.47q-1.89,1.68-4.51,3.74-1.68,5.25-3.34,10.5a68.13,68.13,0,0,1-3.89,9.72,34.15,34.15,0,0,1,2,4.4,39.37,39.37,0,0,0,2,4.45,8.16,8.16,0,0,1-4.92,3.86,13.11,13.11,0,0,0-5.48,3.14c-.24,2.1-.53,4.07-.89,5.9a3.91,3.91,0,0,1-3.14,3.36,3.75,3.75,0,0,1,.49,2.73,14.62,14.62,0,0,1-1,3.25c-.48,1.14-1,2.27-1.54,3.39a14.79,14.79,0,0,0-1.18,3.17,33.6,33.6,0,0,0-3.44-.52,3.55,3.55,0,0,0-2.5.53c-.24,1.21.11,1.94,1,2.19a6.72,6.72,0,0,1,2.33,1.1A2.51,2.51,0,0,1,589,158.2a14.17,14.17,0,0,1-3,.56,1.22,1.22,0,0,0,0,.94,2.68,2.68,0,0,0,.47.54l.56.46a.94.94,0,0,1,.29.76c2.11.81,3,.22,2.76-1.81a3.9,3.9,0,0,1,1.59,1.49,2.58,2.58,0,0,1-.26,1.93,1.4,1.4,0,0,0,1.38-1,9.15,9.15,0,0,1,1.18-2.26c.87.54,1.3,1.08,1.31,1.61A3.82,3.82,0,0,1,595,163l-.72,1.58a1.48,1.48,0,0,0,.38,1.67,7.9,7.9,0,0,0-2.33-2.12c-.93-.56-1.64-.21-2.12,1.07a3.37,3.37,0,0,0,1.22,1.85,2.3,2.3,0,0,0,1.48.18,12.9,12.9,0,0,0,1.75-.45,3.61,3.61,0,0,1,2,0A117.45,117.45,0,0,1,601.28,180q2,7,4,13.9a22.71,22.71,0,0,0,4.87,4.65,31.92,31.92,0,0,1,5,4.45,9.94,9.94,0,0,0-2.9,5.61,23.23,23.23,0,0,0,0,7.06,57,57,0,0,0,1.75,7.85c.79,2.71,1.61,5.41,2.46,8.12a49.63,49.63,0,0,1,4,5.91c1.2,2.1,2.46,4.14,3.78,6.14v16.85q-11.16-5.68-22.47-10.92-4.8-17.52-9.62-34T581.7,183.74q-4.46,13.32-9.34,25.12t-8.91,24.4q-11.81-4.6-23.75-8.73Q539.55,217.71,539.42,210.88Zm13.13-1.38c0-.32.11-.49.36-.52s.52,0,.83,0a4.16,4.16,0,0,0,.74-.08c.18-.05.21-.36.08-.92a2.76,2.76,0,0,0-2.32,0C551.45,208.23,551.55,208.75,552.55,209.5Zm-.71-8.55c-.23.76-.23,1.24,0,1.42a.79.79,0,0,0,.74.15.54.54,0,0,0,.36-.6C553,201.6,552.59,201.28,551.84,201ZM555,203c-.11.8,0,1.3.22,1.48a.77.77,0,0,0,.74.16c.24-.08.33-.29.26-.63S555.77,203.36,555,203Zm10.14-25.52,0,1.14c.62.38.87.66.75.85l1.3.34c0-.44.24-.59.74-.46,0-.39,0-.77,0-1.15q-.93-.24-.75-.69l-1.3-.33C565.9,177.65,565.65,177.75,565.16,177.51Zm.62-8c-.36.79-.17,1.24.58,1.36a10.42,10.42,0,0,1,2,.57l0-1.8A4.65,4.65,0,0,0,565.78,169.53Zm2.09-34.4c-.63-.53-1.07-.74-1.32-.61a.54.54,0,0,0-.36.51c0,.22.16.41.47.57S567.38,135.6,567.87,135.13Zm.7-2.85v-1.16c-.38-.49-.73-.7-1-.64a.88.88,0,0,0-.65.49,1,1,0,0,0,.11.91C567.17,132.24,567.7,132.37,568.57,132.28Zm.07,4.77,1.31.21c0-.44,0-.88,0-1.32l-1.31-.2C568.63,136.18,568.64,136.62,568.64,137.05Zm2,44.82a3.47,3.47,0,0,0,2.59,0,4.85,4.85,0,0,0-1.33-3,17.13,17.13,0,0,1-2.08-2.51,3.12,3.12,0,0,0,0,2.45A15.93,15.93,0,0,1,570.59,181.87Zm-1.1-24.77,2.06.43,0-1.83-1.3-.26a.64.64,0,0,1-.46.65C569.45,156.19,569.36,156.53,569.49,157.1ZM571.74,171a19.72,19.72,0,0,0,2.4-.16q1.11-.15.9-1.86a19.63,19.63,0,0,0-2.4.17C571.9,169.2,571.6,169.82,571.74,171Zm-.8-56.52,1.32.14c0-.39,0-.78,0-1.17l-1.31-.13C570.93,113.66,570.94,114,570.94,114.43Zm.27,19.39,1.31.2c0-.39,0-.78,0-1.16l-1.31-.2C571.2,133.05,571.21,133.44,571.21,133.82Zm.84,19.67,1.49.3c0-.39,0-.78,0-1.17l-1.49-.29C572,152.72,572,153.11,572.05,153.49Zm3.64,22.1a1.35,1.35,0,0,1-.84-.63,1.12,1.12,0,0,0-1-.51.6.6,0,0,0-.08.81,2.5,2.5,0,0,0,.75.69,1.41,1.41,0,0,0,.93.23C575.72,176.15,575.81,176,575.69,175.59Zm-1.75-33.7a2.84,2.84,0,0,0,.58,1.85,2.07,2.07,0,0,1,.21,2,9.39,9.39,0,0,0,2.43.69,5.4,5.4,0,0,0,1.59,0,5.24,5.24,0,0,1,1.39-.08A4.34,4.34,0,0,1,582,147a11.33,11.33,0,0,1-1.72-3.95,6.35,6.35,0,0,0-1-2.62,2.63,2.63,0,0,1-2.32,1.29Zm.33,24.36,1.3.3a.59.59,0,0,1,.27-.52,1.75,1.75,0,0,0,.46-.48,1.34,1.34,0,0,1-.94-.55c-.12-.25-.5-.39-1.12-.42Zm.58-12.2a11.61,11.61,0,0,0,2.36,3.42,11.58,11.58,0,0,1,2.37,3.45,5.82,5.82,0,0,0,3.06-.09,4.27,4.27,0,0,0,2.11-1.41,3.27,3.27,0,0,0,.63-2.34,6.27,6.27,0,0,0-1.24-3,8.13,8.13,0,0,1-3.63-.06,4.5,4.5,0,0,1-3.09-2,1.84,1.84,0,0,1-1.29,1A1.81,1.81,0,0,0,574.85,154.05Zm.77,16.18a1.34,1.34,0,0,1,.93.56c.13.26.5.4,1.12.44a2.14,2.14,0,0,0-1.32-2,.59.59,0,0,1-.28.52A1.56,1.56,0,0,0,575.62,170.23Zm1.21-6.23c.5.11.78.34.85.69a1.15,1.15,0,0,0,.66.83q.17-.63.27-.45a4.63,4.63,0,0,0,.38.6,7.65,7.65,0,0,0,.66.82c.24.29.68.33,1.29.14.61-.53.73-1.41.34-2.63a2.78,2.78,0,0,0-2.43-2.07c-.12.65-.45,1-1,1A1.09,1.09,0,0,0,576.83,164Zm1.08-32.18c1,.26,1.62,0,1.86-.91-.5,0-1,.05-1.49,0S577.65,131.22,577.91,131.82Zm1.55,19.46A3.46,3.46,0,0,0,582,152c.68-.14.88-1,.62-2.51a15.55,15.55,0,0,0-2,.37A1.5,1.5,0,0,0,579.46,151.28Zm.35-16.65,1.31.21c0-.4,0-.79,0-1.19l-1.31-.2C579.81,133.85,579.81,134.24,579.81,134.63Zm1.3,45.9c1,.5,1.6.55,1.85.16a13.32,13.32,0,0,0,.72-1.33,4.51,4.51,0,0,1-1.21-.83,1.64,1.64,0,0,0-1.39-.37Zm1.2-8.15q3,.92,3.31-1.56a5.87,5.87,0,0,0-4.1-2.87,4.81,4.81,0,0,1-.16,2.59C581.12,170.87,581.43,171.48,582.31,172.38Zm-.4-34.53a4.59,4.59,0,0,0,1,3.3,3.48,3.48,0,0,0,2.15,1.06,9,9,0,0,0,2.6-.14,12.87,12.87,0,0,1,2.33-.29,3.23,3.23,0,0,0-.68-2.54,5.75,5.75,0,0,0-2.25-1.58,6.42,6.42,0,0,0-2.9-.47A4.17,4.17,0,0,0,581.91,137.85Zm3.75-14.64a8.66,8.66,0,0,1,1.23.84,1.52,1.52,0,0,0,1.4.18c.23-1.46-.21-2.33-1.33-2.58a1.24,1.24,0,0,1-.65.87A1.14,1.14,0,0,0,585.66,123.21Zm4.6,49.46,0-2.61-2.78-.68C587.1,171.36,588,172.45,590.26,172.67Zm-.35-35.92-1.5-.24c-.49.26-.67.55-.55.86a1.38,1.38,0,0,0,.76.72,1.24,1.24,0,0,0,1,.09C590,138.06,590,137.58,589.91,136.75Zm2.4,58c.73-.36.93-1,.62-2.07a7.24,7.24,0,0,0-1.22-2.46,2.43,2.43,0,0,0-2.2.12,1.68,1.68,0,0,0-.72,1.42,2.84,2.84,0,0,0,.84,1.81A4.12,4.12,0,0,0,592.31,194.76ZM589.05,125a2.52,2.52,0,0,0,1.59.65q.84,0,1-1a1.88,1.88,0,0,0-1.5-.81C589.53,123.85,589.16,124.23,589.05,125Zm4.12,22.22a1,1,0,0,0-1.12-.21c-.49.14-.74.32-.74.55-.24.54-.21.89.11,1.06a1.24,1.24,0,0,0,1,.11,1.77,1.77,0,0,0,.92-.6C593.6,147.85,593.54,147.54,593.17,147.24Zm-2-13.41a2.35,2.35,0,0,0,.3,2.22,2.35,2.35,0,0,1,.3,2.22,11.71,11.71,0,0,0,4.19-.17q1.57-.43,2.49-3.12A13.16,13.16,0,0,0,591.18,133.83Zm5.78,70a3.21,3.21,0,0,0-1.3-2.37,1.13,1.13,0,0,0-.53,1.31C595.25,203.3,595.87,203.65,597,203.79Zm-.6-7.06,1.83.59a13.28,13.28,0,0,0-.1-1.62c-.07-.49-.46-.74-1.2-.73a2.51,2.51,0,0,1-.17,1.09A6.78,6.78,0,0,1,596.36,196.73ZM597.74,209c.48.41.82.53,1,.36a1,1,0,0,0,.27-.79,1.92,1.92,0,0,0-.28-1,1,1,0,0,0-1-.35C597.73,207.8,597.73,208.39,597.74,209Zm8.51-114.49a.9.9,0,0,0-1-.69c-.56,0-1.16,0-1.79,0-.37.58-.4,1-.08,1.43a2,2,0,0,0,1.22.7,1.83,1.83,0,0,0,1.32-.19C606.25,95.52,606.38,95.1,606.25,94.49Zm-2.84-2.14,2.08.11c0-.42,0-.84,0-1.26l-2.07-.11Zm3.43,6.7a14.64,14.64,0,0,0,2.63,1.19,1.81,1.81,0,0,0,2.07-.86c.24-1,.15-1.54-.29-1.76s-.6-.74-.48-1.58a10.42,10.42,0,0,0-3,.54C606.89,96.88,606.58,97.71,606.84,99.05Z" fill="#fff"/><path d="M197.58,26.58l-1-.24c-.31.27-.31.76-.48,1.13,0,.45-.24.79-.24,1.24a12.9,12.9,0,0,0-.41,2.27c-.14.58-.24,1.2-.35,1.78a18.71,18.71,0,0,0-.55,2.58,5.62,5.62,0,0,0-.2.76c0,.34-.66,2.4-.69,3.26,0,.62-.55,2.1-.52,2.24a6.07,6.07,0,0,1-.44,1.71c0,.45-.24.79-.28,1.28-.24.75-.41,1.58-.62,2.37-.27.48-.2,1.13-.51,1.61,0,.17,0,.28-.14.38a1.14,1.14,0,0,1-.51.17,10.54,10.54,0,0,0-1.55-.21c0-.2-.21-.2-.24-.37,0-.59-.45-2.51-.45-3-.17-.45-.82-4.53-.93-4.81a11.14,11.14,0,0,1-.31-1.44c-.2-1-.37-2-.54-3.06A13.34,13.34,0,0,0,186,34.1a10.28,10.28,0,0,0-.72,2.38c.06.34-.38,1.44-.38,1.85a11.32,11.32,0,0,0-.35,1.79c-.27,1.37-.65,2.68-1,4-.14.51-.86,3.5-1.07,4.09-.07.17-.07.38-.2.48s-.42.14-.59.2c-.48,0-1-.1-1.48-.1-.1-.2-.37-.1-.44-.31a8,8,0,0,0-.17-.82c0-1.2-.45-2.17-.49-3.34-.27-.75-.27-1.68-.48-2.44,0-.44-.17-.82-.2-1.23-.07-.21-.31-1.82-.48-2.41a28,28,0,0,0-.52-2.75c-.07-.75-.34-1.41-.38-2.2-.34-1.06-.48-2.37-.72-3.5s-.45-2.1-.69-3.13c-.13-.17-.31-.41-.55-.38s-.51,0-.68.18-.35,0-.38-.18a6.75,6.75,0,0,1-.17-1.71c-.07-.24-.17-.55.13-.69.55,0,1.14.1,1.69,0,.58.14,1.13-.06,1.75.11a1.26,1.26,0,0,0,.52-.07c.51,0,1.06,0,1.61,0a.47.47,0,0,1,.31.41,10.85,10.85,0,0,1-.07,2.13c-.17,0-.93-.21-1.1,0a1,1,0,0,0-.14.62c.14.17,0,.48.14.68a5.79,5.79,0,0,1,.1.86,19.39,19.39,0,0,1,.52,2,24,24,0,0,0,.58,2.79c0,.27.73,3.16.73,3.71.24.93.37,2,.65,2.95.07.07.21.14.27.07a3.88,3.88,0,0,0,.49-1.82,2.5,2.5,0,0,0,.24-1.17c0-.17.3-1.82.41-2.3a13.08,13.08,0,0,0,.38-2,24.25,24.25,0,0,0,.75-3.57c.14-.28.24-2,.45-2.3a.87.87,0,0,0-.17-.52c-.35-.31-.73,0-1.1-.07a10,10,0,0,1-.31-2.2.38.38,0,0,1,.1-.27c.86.1,3.95.14,4.71.1a8,8,0,0,1,1.3,0,7.69,7.69,0,0,1,.24,1.68c-.1.28,0,.79-.34.82a6.85,6.85,0,0,0-.79-.13c-.76.55,0,1.37,0,2.16.07.38.48,2,.52,2.37.27,1,.44,2.2.68,3.16,0,.31.59,3.2.69,3.75A5.68,5.68,0,0,1,190,39c.11.38.21.72.31,1.13a.27.27,0,0,0,.35.11c.3-.21.13-.72.37-1,0-.55.18-1,.24-1.61.18-.35.14-.76.28-1.1a15.11,15.11,0,0,1,.45-2c0-.35.85-4.5,1-5s.13-1.07.31-1.55a5.1,5.1,0,0,0,.17-1.1c-.17-.14-.9-.14-1.27-.28-.14-.1-.18-.89-.14-1.09-.07-.49-.1-.73-.14-1.17.14-.31.55-.24.86-.21.79,0,1.58.1,2.37,0,.72.1,1.62-.14,2.37,0,.14.06.28.13.31.27A11.13,11.13,0,0,1,197.58,26.58Z" fill="#fff"/><path d="M217.85,27a3.42,3.42,0,0,0-1.4.1c-.18,0-.42,0-.45.17a12.17,12.17,0,0,0-.1,2.23c-.07,1.14-.14,2.17-.11,3.2-.1.21,0,1,0,1.27a12.78,12.78,0,0,0,0,1.75,3.78,3.78,0,0,1-.07.62c.07.93,0,1.79,0,2.68,0,.55,0,2.37.07,2.75-.07.9.14,1.79,0,2.68,0,.62,0,1.27.1,1.89a.55.55,0,0,0,.28.28c.48,0,1,0,1.47,0,.21.27.07.68.07,1a2.7,2.7,0,0,1,0,1.06c-.17.24-.41,0-.66,0l-1.23.14a6.23,6.23,0,0,0-1.62.07c-.2-.1-.44,0-.62,0-1.61,0-1.61-.24-1.61-.24a10.22,10.22,0,0,1-.1-1.1c0-.34-.24-.86.1-1s1,.2,1.13-.24c.17-1.65-.13-3.23,0-4.81a18.72,18.72,0,0,1-.07-2,2.57,2.57,0,0,1,0-.48c0-.31,0-.76-.34-.83a2.32,2.32,0,0,1-.83,0,28.44,28.44,0,0,1-2.85.07c-.24,0-1.58-.11-1.72.27-.07.21,0,.52,0,.69.07.89,0,1.89,0,2.68a17.71,17.71,0,0,1,.06,3c.11.48-.1,1.13.18,1.58a3.6,3.6,0,0,0,.82.14.72.72,0,0,1,.79.07,1.13,1.13,0,0,0,0,.48v.69c-.18.1-.21.79-.42.89s0,.1-.13.14-.42-.18-.59,0c-.31,0-2.44.27-3.23.2a11.69,11.69,0,0,1-1.92-.17l-.31-.31c0-.45.14-.75,0-1.13a7.1,7.1,0,0,1,.2-.76,2.21,2.21,0,0,1,1.17,0c.35,0,.38-.35.45-.59a4,4,0,0,0-.07-1.1,41.36,41.36,0,0,1,0-4.15s.07-2.89,0-4.16a24,24,0,0,1,0-3.23,9.83,9.83,0,0,1,.1-2c-.13-.58.14-1.13,0-1.65a18.25,18.25,0,0,0,.07-2,2,2,0,0,0-.07-.82c-.14-.24-1.24.07-1.45-.14s0-.72-.1-1.07c0-.54.21-1,0-1.47a.3.3,0,0,1,.24-.28,16.59,16.59,0,0,1,2,.11c.21-.07,2.93,0,3.34-.11.2,0,.48-.07.51.21a8.91,8.91,0,0,1-.13,1.89c0,.31,0,.65-.18.82-.1,0-1.13-.1-1.2.07-.24.24,0,.76-.17,1,.1.79-.14,1.55-.07,2.37h0c.1.35-.11,2.13,0,2.68.07.07,0,1.24,0,1.69a.86.86,0,0,0,.21.58,22.19,22.19,0,0,0,2.57.11c.83,0,1.76,0,2.55,0,.44-.38.31-1.06.34-1.58s0-1,.07-1.51c0-.14.1-2.24.14-2.51-.07-.72.13-1.34,0-2,0-.1.07-.31,0-.38a2.2,2.2,0,0,1-1.17-.48c-.17.07-.24-.07-.28-.17s-.1-.31,0-.41l0-2.17c0-.13.21-.1.27-.17a2.41,2.41,0,0,0,1,0,7.62,7.62,0,0,0,2,.07h2.34c0-.1.1-.14.2-.14a1.27,1.27,0,0,1,.69.38c.2.24-.07,1.82,0,2.1S218.13,27,217.85,27Z" fill="#fff"/><path d="M233.93,43.55a5.86,5.86,0,0,1,0,1.62,1.84,1.84,0,0,1-.44,1.75c-.41.28-.52.79-.83,1.17-.34.17-.34.65-.72.69-.1.2-1,.27-1.17.1-.27.17-1.2-.21-1.41,0-.2,0-1.09.2-1.4,0s-1.21,0-1.41,0c-.35-.06-1,.18-1.07-.3-.31-.14-.27-.49-.58-.62a10.78,10.78,0,0,0-1-1.27,1.13,1.13,0,0,1-.35-.79s0-.35,0-1.65V38c-.1-.2,0-.44,0-.68,0-.86.07-1.72,0-2.48s.11-2.27,0-2.37.11-.17,0-.65c0-.86,0-1.86-.06-2.75,0-.48,0-1.13-.07-1.65,0-.34.31-.52.44-.79s.24-.28.35-.41c.34-.52.75-1,1.1-1.51a1.28,1.28,0,0,1,.55-.18c.79,0,1.71,0,2.57,0a28.91,28.91,0,0,1,3.27.07c.48.52,1,1,1.48,1.55.2.41.75.65.72,1.17a6.92,6.92,0,0,1,0,1.44,8.19,8.19,0,0,1,.07,2.37c.06.69,0,1.41.1,2.1.1.41,0,2,0,2.54l0,1.61C234,39.47,234,41.46,233.93,43.55ZM231.25,43a20.33,20.33,0,0,1,0-2.13,15.64,15.64,0,0,0,0-3.06c0-.41,0-.69,0-1.1-.13-.17.11-.27,0-.45,0-.68,0-3.74,0-4.19-.06-.72,0-1.54-.06-2.2s-.07-1-.07-1A10,10,0,0,0,231,27a.92.92,0,0,0-.28-.2,7.61,7.61,0,0,1-2.78.06,5.35,5.35,0,0,1-1.27,0c-.25,0-.31.21-.38.34a5.46,5.46,0,0,0,0,1.07l0,1.1c.14.93,0,1.92.07,2.92a17.27,17.27,0,0,1,0,2.4c0,1.55,0,3.1,0,4.61,0,1.68.07,3.37,0,5.05a12.42,12.42,0,0,0,.1,2c.11.24.42.21.66.27s1.44.07,1.85,0a9.79,9.79,0,0,0,1.93,0c.48-.21.27-.93.37-1.41A10.46,10.46,0,0,1,231.25,43Z" fill="#fff"/><path d="M261.59,38.61a21.82,21.82,0,0,1,0,3.43,14,14,0,0,1-.06,3.68c0,.65-.66,1-.86,1.55-.38.3-.48.79-.86,1.06,0,.24-.14.45-.35.45s-3.12,0-3.23.13c-.48,0-2.13-.13-2.47-.13-.07-.11-.21,0-.31-.07-.41-.14-.45-.62-.76-.86a14.7,14.7,0,0,0-1.13-1.65,22.91,22.91,0,0,1-.14-3.44.68.68,0,0,1,.62-.06c1.41,0,1.93,0,1.93,0a11.57,11.57,0,0,1,.1,2.44c.07.45-.07,1,.34,1.2,1.21,0,2.75,0,4,0,.55-.24.35-1,.42-1.45-.07-.65,0-2.37,0-2.57a27.24,27.24,0,0,1,0-2.92c-.1-.45,0-1-.1-1.34.1-.21,0-.42-.1-.59s-.48-.2-.62-.44a10.69,10.69,0,0,1-1.41-.31c-.51-.11-.89-.31-1.37-.42-.24.11-.93-.24-1.1-.17a4.39,4.39,0,0,1-1-.31c-.14-.17-.38.14-.52-.13a6,6,0,0,0-.62-.93c-.24-.35-.69-.62-.58-1.21,0-.68-.07-3.4-.11-3.71a11.26,11.26,0,0,0-.1-2.61c.1-.82.83-1.23,1.1-2a1.59,1.59,0,0,0,.45-.61c.27-.49.93-.31,1.41-.35s1.06,0,1.51,0c.2,0,1.2,0,1.44-.07.28.11,1.72,0,2.13.07a8,8,0,0,1,1.27,1.34c.11.41.59.52.76.89a.89.89,0,0,1,.14.83c.1.24,0,2.44.1,2.65s-.31.34-.48.55a14.51,14.51,0,0,0-1.89.06,4.14,4.14,0,0,0-.41-.61c0-.73-.14-1.38-.11-2.07-.06,0,0-.06,0-.13a1.29,1.29,0,0,1,0-.48c0-.28-.68-.93-.86-.69a13,13,0,0,0-3.33-.11.44.44,0,0,0-.51.62,21.93,21.93,0,0,0,0,3c0,.58,0,1.34.07,1.89s0,1.1.41,1.37a24.32,24.32,0,0,1,3.71.83c.07.13.28.07.42.13.54.07,1,.28,1.58.35.3.17.37.55.65.79a4.71,4.71,0,0,1,.79,1.2Z" fill="#fff"/><path d="M277.54,43.55a6.75,6.75,0,0,1,0,1.62,1.82,1.82,0,0,1-.45,1.75c-.41.28-.51.79-.82,1.17-.35.17-.35.65-.73.69-.1.2-1,.27-1.16.1-.28.17-1.21-.21-1.41,0-.21,0-1.1.2-1.41,0s-1.2,0-1.41,0-1,.18-1.07-.3c-.3-.14-.27-.49-.58-.62a9.86,9.86,0,0,0-1-1.27,1.12,1.12,0,0,1-.34-.79s0-.35,0-1.65V38c-.1-.2,0-.44,0-.68,0-.86.07-1.72,0-2.48s.1-2.27,0-2.37a1,1,0,0,0,0-.65c0-.86,0-1.86-.07-2.75,0-.48,0-1.13-.07-1.65,0-.34.31-.52.45-.79s.24-.28.34-.41c.34-.52.76-1,1.1-1.51a1.28,1.28,0,0,1,.55-.18c.79,0,1.72,0,2.58,0a28.78,28.78,0,0,1,3.26.07c.48.52,1,1,1.48,1.55.2.41.76.65.72,1.17a6.92,6.92,0,0,1,0,1.44,7.86,7.86,0,0,1,.07,2.37c.07.69,0,1.41.1,2.1.11.41,0,2,0,2.54l0,1.61C277.64,39.47,277.64,41.46,277.54,43.55ZM274.86,43a20,20,0,0,1,0-2.13,14.22,14.22,0,0,0,0-3.06,10.11,10.11,0,0,1,0-1.1c-.14-.17.1-.27,0-.45,0-.68,0-3.74,0-4.19-.07-.72,0-1.54-.07-2.2s-.07-1-.07-1a9.23,9.23,0,0,0-.17-1.93.81.81,0,0,0-.28-.2,7.61,7.61,0,0,1-2.78.06,5.35,5.35,0,0,1-1.27,0c-.24,0-.31.21-.38.34a5.46,5.46,0,0,0,0,1.07l0,1.1c.13.93,0,1.92.06,2.92a18.89,18.89,0,0,1,0,2.4c0,1.55,0,3.1,0,4.61,0,1.68.07,3.37,0,5.05a12.39,12.39,0,0,0,.11,2c.1.24.41.21.65.27s1.44.07,1.86,0a9.69,9.69,0,0,0,1.92,0c.48-.21.27-.93.38-1.41A9.07,9.07,0,0,1,274.86,43Z" fill="#fff"/><path d="M295.51,27.1c-.14.2-.1.34-.07.61s.1.59,0,.93c0,.55.07,1.34.1,2l0,0c.1,1.24,0,2.55.1,3.75a8.34,8.34,0,0,0,0,1.58,3.34,3.34,0,0,0,0,.55c-.1.69,0,1.31,0,2a31.63,31.63,0,0,0,0,4.5,15.29,15.29,0,0,0-.1,2.54,8.31,8.31,0,0,0,0,1.65c0,.55-.1,1.1-.13,1.69,0,.13-2.58.51-2.72-.24-.1-.11-.07-.45-.21-.59-.2-.69-.41-1.41-.61-2.06-.24-.86-.55-1.65-.73-2.51a4.35,4.35,0,0,1-.24-1c-.27-.59-.65-2.58-.86-2.82-.1-.75-.44-1.44-.58-2.27a22.73,22.73,0,0,1-1-3.67c-.1-.31-.45-1.48-.58-1.72s-.25-.17-.38-.24a.65.65,0,0,0-.21.62c.07,1.27.1,5.56,0,6.35s0,1.58,0,2.27a28.89,28.89,0,0,1-.1,3.33,7.76,7.76,0,0,0,.1,2.07,1.53,1.53,0,0,0,1.1.13c.34.14.1.69.14,1,0,.44-.14.85-.11,1.23,0,.11,0,.28-.17.31s-1.06-.14-1.3-.14a27.58,27.58,0,0,0-3.37,0c-.14.1-.31,0-.45,0-.14-.17-.1-.51-.1-.75l0-1.51c.14-.18.52-.14.76-.07a1,1,0,0,0,.76-.38c.17-.34,0-.69.06-1.1a29.37,29.37,0,0,1,.14-3c-.1-1.17-.07-2.27-.07-3.44a11.91,11.91,0,0,1,0-2.47,3,3,0,0,1,0-.79,29.76,29.76,0,0,0-.07-4.16,7.88,7.88,0,0,0,0-1.75l.07-.14a8.88,8.88,0,0,1-.14-2c-.17-.07.14-.58-1.3-.44-.11,0-.25,0-.28-.07a6.54,6.54,0,0,1-.14-1.07,5.87,5.87,0,0,1-.1-1.13.35.35,0,0,1,.31-.21c.48.14,4.6-.2,5,.35a.91.91,0,0,0,.21.55,7.84,7.84,0,0,0,.72,2.06,15.05,15.05,0,0,0,.69,2.2c.24.72,1.1,3.43,1.34,4a8.76,8.76,0,0,0,.72,2.37c.1.72.48,1.34.58,2.06.07.1.11.27.31.27s.28-.13.28-.24c0-1.1,0-2.26.07-3.26-.14-.79,0-3.54-.07-4.12-.07-.83,0-1.52-.07-2.34a8.64,8.64,0,0,0-.1-1.24c-.07-.2-1.48-.07-1.59-.34a13.83,13.83,0,0,1-.13-1.75c-.07-.14,0-.28,0-.45.17-.28.58,0,.86-.1.06.07,1.75,0,2.47,0,.45,0,.79-.07,1.24,0a1.49,1.49,0,0,1,1.1.07,9.15,9.15,0,0,1,0,2.34A4.25,4.25,0,0,1,295.51,27.1Z" fill="#fff"/><path d="M312.62,29c.07.14,0,.24,0,.38a6.93,6.93,0,0,1-.07,1.13c0,.1-.17.1-.28.07a3.32,3.32,0,0,0-1.44,0c-.28-.18-.55.13-.86-.07a13.06,13.06,0,0,1,0-2.34h0c-.06-.24.11-.76-.2-.82-.38-.21-.83.1-1.2-.14a9.36,9.36,0,0,1-2.24,0,2.92,2.92,0,0,0-1.1.18c-.2,0-.17.2-.34.3-.14.59,0,1.24-.14,1.83s0,.92,0,1.3c0,.76-.07,1.48-.07,2.24-.07.3,0,.61,0,1h0a26.45,26.45,0,0,1,0,2.82c-.11.2.1.41,0,.61a9.75,9.75,0,0,1,0,1.41c0,1.14,0,2.3.06,3.44,0,.72.07,1.51,0,2.3a8.83,8.83,0,0,0,0,1c0,.38.1.65.1,1,.21.24,1.17.17,1.34.21a12.44,12.44,0,0,1,2.2,0c.45-.06,1.27.28,1.41-.34a3.84,3.84,0,0,0,0-.89,4.77,4.77,0,0,0,0-1c0-.72,0-1.58-.07-2.2,0-.17.07-1.37,0-1.58-.14-.82.21-1.85-.55-2.34a3.59,3.59,0,0,0-1.55-.17c-.31-.27-.13-2-.2-2.47,0-.17.13-.21.27-.21,1.45,0,3.06.11,4.47,0,.1.07.31,0,.34.17-.07.76-.1,1.55-.1,2.27a4.93,4.93,0,0,0,0,1.45c0,1.64,0,2.33,0,2.33l.07.1c-.07,1.55.11,3,0,4.54,0,.38-1,1.38-1.21,1.58s-.34.76-.72.93c-.31,0-2,0-2.13-.1-.13.13-.82-.18-1,.06a4.55,4.55,0,0,1-1,0,18.91,18.91,0,0,1-2.48-.1c-.17-.27-.37-.51-.58-.79-.38-.14-.45-.48-.72-.72s-.31-.58-.72-.69a10.14,10.14,0,0,1-.21-2.09c-.1-1,.07-2.1-.07-3.13a7.33,7.33,0,0,0,0-1.24c.07-.2,0-.41,0-.65a20.85,20.85,0,0,0,0-2.1,20.14,20.14,0,0,0,.11-2.81,11.33,11.33,0,0,1,0-1.55c-.14-.38.1-.83,0-1.2,0-.69.14-1.52.18-2.27,0,0,0-.1,0-1.31,0-.44-.17-1,.1-1.44.45-.38.66-1,1.1-1.34a10.15,10.15,0,0,0,.9-1.2c.31-.28.75-.14,1.17-.14.13.07,1.51,0,2.23,0,.34.1.79-.07,1.17,0,.07-.1.13,0,.24,0a13,13,0,0,1,1.54,0c.48.34.62,1,1.07,1.34.24.27.38.62.65.89.11.45.72.73.48,1.27C312.76,28.13,312.62,28.57,312.62,29Z" fill="#fff"/><path d="M340.9,48.78l-3.33-.11v0a.33.33,0,0,1,0-.17.82.82,0,0,0-.62-.59c-.65.38-1.2.83-1.75,1.14a2.27,2.27,0,0,1-1.61.38c-1.41.1-2.65-1.07-3.23-2.72a9.81,9.81,0,0,1,1-8.49,15.06,15.06,0,0,1,1.45-2.13c-1.31-3-2.41-7-.55-9.79A3.27,3.27,0,0,1,335.88,25a2.06,2.06,0,0,1,1.65,1.24c1.14,2,.72,5-.38,7a1.86,1.86,0,0,1-.58.86l-.31.31a1.44,1.44,0,0,0-.45,1.72c.42.75.49,1.61.86,2.37a3.75,3.75,0,0,0,.31.89c.11.28.28.55.45,1,.51.21.75,0,.86-.27a.73.73,0,0,0,.07-.24,1.72,1.72,0,0,1,.07-.21,8.41,8.41,0,0,0,.17-1.51v-1.3l.07,0a9.37,9.37,0,0,0,1.06,0,1.2,1.2,0,0,1,.72.1c-.17,1.21-.27,2.37-.44,3.54a11,11,0,0,1-1.07,3.44,3.29,3.29,0,0,0,1.13,2.37,1.61,1.61,0,0,0,.69,0h.14C340.93,47.13,340.83,47.88,340.9,48.78Zm-7-9.73-.58-.31a3.14,3.14,0,0,0-.52.93c-.07.21-.14.41-.21.69a25.18,25.18,0,0,0-.1,3.13,4.47,4.47,0,0,0,1.17,2.85,1.31,1.31,0,0,0,1.41.2,1.86,1.86,0,0,0,1.17-1.41C335.4,43.11,334.61,41.22,333.89,39.05Zm1.58-11.51c-.41-.44-1-.2-1.41.07-.89,1.07-.34,2.47-.1,3.64.27.55.27,1,1,1.27l.38-.27a9,9,0,0,0,.55-1.58C336,29.84,336.23,28.37,335.47,27.54Z" fill="#fff"/><path d="M368.66,46.89a4.4,4.4,0,0,0,0,1c-.1.27,0,.45-.07.72,0,.1,0,.48-.13.52a4.6,4.6,0,0,1-1.17,0c-1.07,0-2.34,0-3.37.07-.38-.14-.72,0-1.1,0-.86,0-3.74-.21-4.22-.35-.21-.07-.55,0-.62-.27s0-1.48-.11-1.69a.53.53,0,0,1,.38-.48c.28-.1.45,0,.76,0,.1-.17.82.11.65-1,.1-.34-.1-1.34,0-1.55.1-.48-.1-2.5,0-2.88a6.91,6.91,0,0,1,0-2,8.23,8.23,0,0,1,0-1.86h0c-.07-.34,0-3.09,0-3.47.13-1.2.13-2.13.24-3.33-.07-.58.1-1.06.07-1.65.13-.17,0-.45.1-.62-.14-.34.14-.65-.1-1a3.6,3.6,0,0,1-.76-.38c-.21,0-.45.24-.62,0a.5.5,0,0,0-.07-.41c0-.27,0-1.51,0-1.58a1,1,0,0,1,.17-.72c.75.07,1.61.07,2.37.07.55,0,1.13,0,1.58,0s1.2,0,1.82,0c.07,0,.28.07.28.21,0,.41-.11.72-.07,1.06-.14.48,0,1.17-.38,1.52a2.85,2.85,0,0,1-.93,0l-.27.07c-.35.31-.21.89-.24,1.34-.11.79,0,1.58-.17,2.3a18.6,18.6,0,0,1,0,2.24c-.07.17-.07,2.4-.18,2.71a5.41,5.41,0,0,1,0,1.34v2.78c0,.24-.07,1.21,0,1.41a14.15,14.15,0,0,0,.11,2.06c0,.35-.11.69,0,1,0,.72,0,1.34,0,2.06.1.07.1.24.24.31a19.3,19.3,0,0,0,2.75,0c.31-.21.34-1.2.27-1.24,0-.58,0-1.27-.06-1.89,0-.13.06-.31.24-.31.44,0,.82,0,1.3,0,.28,0,.69,0,1,0s.31.07.31.25a4,4,0,0,0,0,1.54A11.23,11.23,0,0,0,368.66,46.89Z" fill="#fff"/><path d="M387.94,48.33v.52c-.14.13-.34,0-.52,0A5.83,5.83,0,0,1,386,49a3.08,3.08,0,0,1-.83.07,7.83,7.83,0,0,1-1.27-.14,1.86,1.86,0,0,0-.41,0,3.1,3.1,0,0,0-1-.1c-.07-.17-.07-.41-.14-.62h0a5.43,5.43,0,0,1,0-.79c0-.24-.1-.55.07-.72.38-.1.79.14,1.17,0a5.5,5.5,0,0,0-.24-2.61,3.12,3.12,0,0,1-.24-1c-.07-.06,0-.27-.07-.34-.14-.27-.07-.62-.27-.82-.55-.31-1.17,0-1.79-.18-.83,0-1.65,0-2.48,0-.34.41-.27,1.1-.48,1.58a23,23,0,0,0-.37,3.16c.24.59.85,0,1.3.21.28.44,0,1,.07,1.51,0,.2.07.58-.14.69-.34-.07-.48.2-.75.2a5.16,5.16,0,0,1-1.52,0c-.37.11-.72-.1-1.13-.07-.21-.1-.48,0-.69-.1v0a4.24,4.24,0,0,0-1.17-.06c-.24-.11-.06-.49-.17-.69.07-.1,0-.17,0-.28.1-.44-.28-1,.17-1.23s1.27.34,1.34-.35l.07-.51h0c.07-.38.14-.83.24-1.31.18-1.06.35-2.2.59-3.33,0-.1.1-.24.07-.34.1-.52.17-.93.24-1.45a13.83,13.83,0,0,0,.34-2.06,6.24,6.24,0,0,0,.31-1.72c.1-.34.17-.75.24-1.13s.1-.72.28-1,0-.58.17-.79c-.07-.31.27-.58.17-.89a5.06,5.06,0,0,0,.34-1.51c.31-.76.31-1.69.55-2.51a2.1,2.1,0,0,0,0-1.14c-.31-.31-1.2.38-1-.44a.34.34,0,0,1,0-.28,2.22,2.22,0,0,1,0-1c0-.1,0-.34,0-.45.11-.27-.1-.79.35-.75s.75.1,1.13,0h3.33c.28,0,.86,0,1.31,0a.71.71,0,0,1,.31.07c.14.55-.1,1.13,0,1.68a3.68,3.68,0,0,0-.14.86c-.07.07,0,.31-.14.31s-.31-.17-.48-.07-.31.24-.38.41c-.1.62.18,1,.21,1.58a14.59,14.59,0,0,0,.34,2.1,10.75,10.75,0,0,0,.28,1.54c0,.28.14.42.07.66l.14,1c.1.38.17.79.24,1.2a21,21,0,0,1,.3,2.13c.18.17.07.48.11.72s.1.38.14.62c.24.93.34,1.89.65,2.75-.07.62.27,1.07.27,1.65.11.24.14.55.24.79s.18.59.18.93c.27.58.27,1.37.55,1.92.17.28.58.18.82.21s.34-.14.52-.07,0,.52.1.76A2.2,2.2,0,0,1,387.94,48.33Zm-6-10.72c-.1-.48-.1-1.07-.24-1.51h0l-.06-.28c-.07-.13,0-.31-.07-.44,0-.83-.35-1.55-.35-2.41,0-.14-.1-.34-.07-.45a11.53,11.53,0,0,0-.34-2c0-.11-.07-.28-.27-.25s-.14.42-.24.56c0,.44-.21.85-.21,1.3-.24.24-.1.65-.28.93a2.39,2.39,0,0,1-.13.75,11.14,11.14,0,0,1-.28,1.62,14,14,0,0,1-.44,2.06c.06.52-.18,1-.07,1.44,0,.24.24.28.41.31H381a2.61,2.61,0,0,0,.79,0l.24-.13A3.79,3.79,0,0,0,382,37.61Z" fill="#fff"/><path d="M406.8,48.57c-.07.14,0,.34-.13.45-.18,0-1.31.17-1.59.1-.68-.07-3.12,0-3.67,0-.31-.07-.14-.45-.35-.59,0-.2-.13-1.06-.13-1.37.27-.14.1-.72.55-.59.17-.06.55.07.79-.13a.91.91,0,0,0,.07-.59,4.17,4.17,0,0,1-.52-1.23,5.4,5.4,0,0,1-.86-1.48,6.07,6.07,0,0,1-1.06-2c-.21-.28-.24-.65-.49-.89-.54-1.83-1.13-1.48-1.51-1.24-.34,0-.38.41-.48.65a17,17,0,0,0,0,1.89,22.29,22.29,0,0,1-.11,2.48c-.1.37,0,1.75,0,2.06.07.13.14.34.27.38s1.07,0,1.28.06,0,.52,0,.79a7.33,7.33,0,0,0,0,1.24c-.07.24-.34.34-.58.41A4.31,4.31,0,0,0,397,49a17.08,17.08,0,0,0-3.48,0c-.13,0-.34,0-.44,0-.21-.17,0-.52-.17-.76a10.63,10.63,0,0,0,0-1.51s0-.2.14-.17a2.24,2.24,0,0,1,.93,0c.17-.07.44-.07.51-.31,0-.41.17-.72,0-1.1a8.13,8.13,0,0,0,0-2c0-.86.1-2.78.07-2.92,0-.62-.07-1.23,0-1.78,0,0,0-.25,0-2.55h0c-.1-.27.07-1.17,0-1.27.06-1.1.1-4.36,0-4.91.1-.17.24-2.27-.35-2.65-.24,0-.48-.24-.72,0-.21-.14-.48.2-.58-.11,0-.58-.28-1.06-.14-1.58a2.7,2.7,0,0,1,0-.75c.28-.31.62,0,1-.11a34.71,34.71,0,0,1,3.64,0c.17.1,1.27,0,1.65,0a5.36,5.36,0,0,1,1.06,0,2.23,2.23,0,0,1,1.17,0c.14.14.21.31.41.38.59.75,1.14,1.4,1.76,2.09a1.17,1.17,0,0,1,.2,1.1c.11.69,0,1.41.11,2.17a2.58,2.58,0,0,0,0,.92l0,2.51c.07.31,0,1.86,0,2.24s0,.92-.28,1.2a10.38,10.38,0,0,0-1.37,2.13c.28.82.72,1.48,1.07,2.27a16.63,16.63,0,0,0,1.27,2.4c.31.69.75,1.34,1.06,2.06.24.18.28.62.69.55.24.14.62-.06.79.14A16,16,0,0,1,406.8,48.57Zm-6-18c0-.18.17-.31,0-.42l0-1.3c.06-.11-.07-.14,0-.21a4.58,4.58,0,0,0-.18-1.41A11.43,11.43,0,0,0,399,27.1a3.59,3.59,0,0,0-1.75.24c0,.92.13,1.64.06,2.64,0,.28.11.41,0,.65a8.35,8.35,0,0,1,0,1c.14.21-.1.41,0,.62-.07.34.06.72,0,1.06s-.07.83,0,1.24a7.44,7.44,0,0,0,.1,1.75c.24.18.58.11.86.11s.51-.07.79.07c.41-.18.89.1,1.3-.11s.18-.62.25-.89.13-.31,0-.45c.1-.75,0-1.65.06-2.44C400.76,32,400.82,31.18,400.76,30.57Z" fill="#fff"/><path d="M425.7,48.57c-.07.14,0,.34-.13.45-.18,0-1.31.17-1.59.1-.68-.07-3.12,0-3.67,0-.31-.07-.14-.45-.35-.59,0-.2-.13-1.06-.13-1.37.27-.14.1-.72.55-.59.17-.06.55.07.79-.13a.91.91,0,0,0,.07-.59,4.17,4.17,0,0,1-.52-1.23,5.4,5.4,0,0,1-.86-1.48,6.07,6.07,0,0,1-1.06-2c-.21-.28-.25-.65-.49-.89-.55-1.83-1.13-1.48-1.51-1.24-.34,0-.38.41-.48.65a17,17,0,0,0,0,1.89,22.29,22.29,0,0,1-.11,2.48c-.1.37,0,1.75,0,2.06.07.13.14.34.27.38s1.07,0,1.27.06,0,.52,0,.79a7.33,7.33,0,0,0,0,1.24c-.07.24-.34.34-.58.41a4.37,4.37,0,0,0-1.35,0,17,17,0,0,0-3.47,0c-.13,0-.34,0-.44,0-.21-.17,0-.52-.17-.76a10.63,10.63,0,0,0,0-1.51s0-.2.14-.17a2.24,2.24,0,0,1,.93,0c.17-.07.44-.07.51-.31,0-.41.17-.72,0-1.1a8.13,8.13,0,0,0,0-2c0-.86.1-2.78.07-2.92,0-.62-.07-1.23,0-1.78,0,0,0-.25,0-2.55h0c-.1-.27.07-1.17,0-1.27a44.36,44.36,0,0,0,0-4.91c.11-.17.25-2.27-.34-2.65-.24,0-.48-.24-.72,0-.21-.14-.48.2-.58-.11,0-.58-.28-1.06-.14-1.58a2.7,2.7,0,0,1,0-.75c.28-.31.62,0,1-.11a34.71,34.71,0,0,1,3.64,0c.17.1,1.27,0,1.65,0a5.36,5.36,0,0,1,1.06,0,2.23,2.23,0,0,1,1.17,0c.14.14.21.31.41.38.59.75,1.14,1.4,1.76,2.09a1.17,1.17,0,0,1,.2,1.1c.1.69,0,1.41.1,2.17a2.83,2.83,0,0,0,0,.92l0,2.51c.07.31,0,1.86,0,2.24s0,.92-.28,1.2A10,10,0,0,0,421,39.26c.28.82.72,1.48,1.07,2.27a16.63,16.63,0,0,0,1.27,2.4c.31.69.75,1.34,1.06,2.06.24.18.28.62.69.55.24.14.62-.06.79.14A16,16,0,0,1,425.7,48.57Zm-6.05-18c0-.18.18-.31,0-.42l0-1.3c.07-.11-.06-.14,0-.21a4.3,4.3,0,0,0-.17-1.41,11.43,11.43,0,0,0-1.54-.13,3.65,3.65,0,0,0-1.76.24c0,.92.14,1.64.07,2.64,0,.28.11.41,0,.65a8.35,8.35,0,0,1,0,1c.14.21-.1.41,0,.62-.07.34.06.72,0,1.06s-.07.83,0,1.24a7.44,7.44,0,0,0,.1,1.75c.24.18.58.11.86.11s.51-.07.79.07c.41-.18.89.1,1.3-.11s.18-.62.24-.89.14-.31,0-.45c.11-.75,0-1.65.07-2.44C419.65,32,419.72,31.18,419.65,30.57Z" fill="#fff"/><path d="M443.12,26c-.58.37-.41,1.1-.75,1.54,0,.41-.35.69-.38,1.07-.31,1-.76,2-1,3-.41,1.41-1.1,2.71-1.55,4.12a11.73,11.73,0,0,0-.14,2.13c-.1,1.82-.13,3.47-.1,5.22a25.83,25.83,0,0,0,.1,2.75c.21.66.93.28,1.41.31l.11.14a14.55,14.55,0,0,1,0,2.64,22.11,22.11,0,0,1-5.5,0,15.67,15.67,0,0,1-.28-2.58c.07-.1.11-.24.24-.27.31-.07,1.17-.07,1.14-.24,0-1.76,0-3.54,0-5.23a21.68,21.68,0,0,0-.07-4.77c-.41-1.07-.86-2.13-1.27-3.16-.24-.24-1-2.48-1.37-3.27-.11-.48-.52-.82-.55-1.3a18.17,18.17,0,0,1-.83-1.86c-.13-.07-.68-.31-.79-.17-.31,0-.79.14-1-.14,0-.69-.14-1.37-.14-2.06a.31.31,0,0,1,.2-.38c1.76,0,3.54.07,5.23,0a.48.48,0,0,1,.51.07,1,1,0,0,1,.11.65,15.43,15.43,0,0,1,0,1.79c-.07.07-1.54-.31-1.13.55s1.44,3.74,1.68,4.3.28,1.06.76,1.44c.44-.14.41-.72.62-1.07.17-.17.55-2,.89-2.57.14-.83.55-1.48.62-2.27,0-.17-.1-.41-.28-.48s-.48.24-.75.13a9.73,9.73,0,0,1-.11-2.4c.24-.31.59,0,.86-.1a31.57,31.57,0,0,1,4.92,0,7.58,7.58,0,0,1,0,2.44C444.26,26.27,443.26,26.06,443.12,26Z" fill="#fff"/><path d="M451.06,30.5c-.38.27-.93,1.27-1.37.58-.11-.41-.93-.34-.55-.89a3.78,3.78,0,0,0,1.4-2.79c-.44-.44-.89,0-1.37-.27v-3.2l.24-.17c1,.07,2.06,0,3,.17C452.09,26.24,452.78,28.74,451.06,30.5Z" fill="#fff"/><path d="M467.45,38.61a23.1,23.1,0,0,1,0,3.43,14.21,14.21,0,0,1-.07,3.68c0,.65-.65,1-.86,1.55-.38.3-.48.79-.86,1.06,0,.24-.13.45-.34.45s-3.13,0-3.23.13c-.48,0-2.13-.13-2.47-.13-.07-.11-.21,0-.31-.07-.42-.14-.45-.62-.76-.86a16.17,16.17,0,0,0-1.13-1.65,22.91,22.91,0,0,1-.14-3.44.68.68,0,0,1,.62-.06c1.41,0,1.92,0,1.92,0a11.57,11.57,0,0,1,.1,2.44c.07.45-.06,1,.35,1.2,1.2,0,2.75,0,4,0,.55-.24.34-1,.41-1.45-.07-.65,0-2.37,0-2.57a27.24,27.24,0,0,1,0-2.92c-.1-.45,0-1-.1-1.34.1-.21,0-.42-.11-.59s-.48-.2-.62-.44a10.21,10.21,0,0,1-1.4-.31c-.52-.11-.9-.31-1.38-.42-.24.11-.93-.24-1.1-.17a4.54,4.54,0,0,1-1-.31c-.14-.17-.38.14-.51-.13a6.75,6.75,0,0,0-.62-.93c-.24-.35-.69-.62-.59-1.21s-.07-3.4-.1-3.71a11.85,11.85,0,0,0-.1-2.61c.1-.82.82-1.23,1.1-2a1.58,1.58,0,0,0,.44-.61c.28-.49.93-.31,1.41-.35s1.07,0,1.51,0c.21,0,1.21,0,1.45-.07.27.11,1.72,0,2.13.07a8.47,8.47,0,0,1,1.27,1.34c.1.41.58.52.75.89a.84.84,0,0,1,.14.83c.11.24,0,2.44.11,2.65s-.31.34-.48.55a14.6,14.6,0,0,0-1.9.06,4.14,4.14,0,0,0-.41-.61c0-.73-.13-1.38-.1-2.07-.07,0,0-.06,0-.13a1.29,1.29,0,0,1,0-.48c0-.28-.69-.93-.86-.69a13.09,13.09,0,0,0-3.33-.11.76.76,0,0,0-.38.07.74.74,0,0,0-.14.55,22,22,0,0,0,0,3c0,.58,0,1.34.06,1.89s0,1.1.42,1.37a24.58,24.58,0,0,1,3.71.83c.07.13.27.07.41.13.55.07,1,.28,1.58.35.31.17.38.55.65.79a4.23,4.23,0,0,1,.79,1.2Z" fill="#fff"/><path d="M219.86,237.55l.08-1.74.3-.31v-.3l.91-2.12.68-2.43.15-1.22-.07-.53-.3-.45-.54-.38-1.21-.15-2.05.45-.68.61-.61.08-1.74,1.66-.15.54-.31.15-.22.53-.84.91-1.14,2.2-.76,1.67-.45.3v.53l-1,1.9-.53,1.89-.6,1.6-.76,2.12-.38,2.13-.15.15-.23,2.42-.08,1.22.91,1.89.76,1.14,1.52,1,2.58.61,1.06.15,2.35-.31H217l.15-.15.68-.07.68-.38,2.36-.84,2-1.14,1.75-1.36.53-.23.84-.91,1-.68,1.67-1.9.91-.53.08-.45.68-.46.07-.45.91-.84,1.07-1.29v-.38l.45-.3.08-.53.38-.15.15-.61.61-.83,1.36-1.22.61-.15,1.21.3.84.69.38.6.07,1.14-.53,1.21-.23.23-.15.53-2.05,3-.45.38-.84,1.44-.53.3-.15.54-.53.38-.15.53-.53.3-.15.53-1.9,1.75-.91.68-.38.45-.15.46-.23.23h-.38l-.15.38h-.38l-.15.3h-.38l-.68.53v.15l-.31.08-1.51,1.21-2.13,1-.83.68-.76.23-.38.3-2.35.53-.84.15v.16l-.68.22-2.43.31-.83.3-2.28-.3-.45.15-2.43-.15h-.68l-.15-.16H207l-.37-.3-2.36-1-.83-.46-.61-.08-1.59-1.82-1.44-1.89-.31-1.52-.45-1.06-.23-1.14.15-.76-.15-.15-.15-2.35.23-2.35.68-2.35.23-2.2.15-.16v-.53l.38-1,.23-1.29.22-.23.91-2.13.76-2.12,1.14-1.67v-.38l.3-.15v-.38h.23v-.3l1.29-2,.84-.84.15-.53.3-.15.61-1,1.74-1.82.23-.22.61-.23,1-1.07,1.14-.6,1-.84.6-.15.46-.38.53-.15.3-.38.91-.3,1.37-.15,2.35-.53,2.28-.16,2.5.46,1.82.38,1.75,1.44.91.76.38.83.45.38.46.91.37,1.22.38,2.5-.07,1.9-.38,1.13-.15,1.22-.84,2.35-.38,1.14-1.74,1.67-2.35.3-2.51-.08-1.21-.07-.08-.15-.6-.23-.46-.53ZM203.7,241.5l.15-.23-.07-.3-.23-.16-.15.31.15.38Zm3.64-3.42h.31v-.38h-.31Zm3.95-8.27v.31l.23.22.75-.15V230l-.6-.3h-.31Zm14.11-1.36h.3l.15-.38-.3-.15-.15.38Z" fill="#fff"/><path d="M267.12,231.63l-.61,2.43-.61,1.82h-.15v.38h-.15v.3h-.15v.38h-.23v.31l-.61,1.06-.15,1.21-1.14,2-.68,2.35-1,2.13-.54,1.14-.22,1.13-.23.23-.61,2.13-.38,1.36v1.37l.23,1.21.3.61.46.15.15.3h.91l1.14-.38,1-.53,1.89-1.67.53-.23,1.67-1.82.15-.3.84-.68.6-1,1.07-1.14.15-.53.3-.15.23-.53.3-.15.16-.53.37-.15.16-.54.6-.6.08-.46,1.44-2.05.46-1,.91-1.14.37-.23,1.14.15,1.14.54.83.83.23.91-.45,1.14-.84,1.52-.38.37v.31L276.9,247h-.15v.38h-.15l-.23.76-.53.76-.83.68-.08.46-.23.15-.3.53-.53.46v.3l-.61.61-.07.45-1.67,1.82L269.85,256l-1.9,1.67-1.67,1.44h-.38v.16h-.3v.15h-.38l-.07.3-1.45.76-1.82.61-2.27.6-1.06.16-2.36-.38-1.13-.31-1-.45-1.67-1.75-1-1.21-.08-.53-1.06-.68-.53.15-1.9,1.59-1.74,1.59-1.14.46-.69.45-1.13.38-1.75.15-.23.23-2.2.15-1.06-.15-.15-.23-.83-.15V261h-.38v-.15h-.31v-.23h-.38v-.15l-1.06-.53-1.06-1.14-.08-.38-.37-.15-.31-1.21-.23-.23-.38-1.82-.3-2.43.23-2.43.23-1.21v-1.59l.38-.84.15-1.36.6-1.67.61-2.13.46-1.44.15-.07.68-2.28.53-1.21.53-1.9L237,234l.23-.84.38-.38.76-1.67.45-.38.38-1.13.23-.16.3-.75.53-.38.23-.61.46-.3.68-1,.23-.61,1.21-1.36,1.06-.69.31-.53h.38l.07-.3.76-.23.23-.38h.3l.53-.37.53-.08.08-.3.38-.08.23-.38h.3l.53-.38,2.28-.53h2.5l1.9.45v.16l.91.15.37.45,1.07.69.91.91.76,1.36.22.15.16.46,1.28.83h.38l.16-.22,1-.16,2.2-1.06,2.13-.91,1.89-.91h.68l1.07,1.06-.08.76-1,2.2-.15.76-.22.15-.31,1-1.14,2.43-.3.53-.23.15Zm-30.88,20.94.08.3.45.23v.15l.91-.15.46-.23-.23-.83-.68.08-.83.45Zm2.2,2.2.31-.07.22-.61-.45.23-.08.3Zm.69,1.06.68.15v-.37l-.23-.16-.3.08Zm1.21-17.9h.45l.08-.3h-.38Zm11.83-9.41h-.3v.16h-.38v.15h-.3l-.38.53-.68.38-1.6,1.82-1.29,2.12-1.44,2-.3.76h-.15v.38h-.23l-.15.84-.31.53-.22.15-.38,1.21-.38.46-.46,1.06-.53,2.35-.76,2-.38,1.07-.45,2.42v2.66l.3,1.06.76.84.91.53h1.37l1.67-.38.37-.38.38-.08.16-.38h.37l.16-.3,1.44-1.21,1.51-1.75,1.22-1.36.07-.53.91-2.28.38-1.14.61-.91.38-1.36.38-.38v-.31l.3-.38.76-2.42.84-2.2,1-2.28.23-1.29v-1.06l-.23-1.14-.61-1.06-.9-.84-1.07-.37-1.21-.16-.15.16-1.14.3Zm-.45-3.11v-.3l-.23-.15-.3.23.3.22Zm1.14,27,.6.15.61-.68-.23-.15-.6.07-.38.46Zm1.21,4.78.68-1.06-.15-.31-.53-.15-.23.53-.07.69.15.22Zm.15-7.21.08.38.23.08.45-.38-.23-.23-.3.15Zm.53-1.36.38.3.61-.15.61-.84-.31-.15-.6.08-.54.3-.15.3Zm.69,6.67.6-.23v-.45l-.22-.15-.38.6Zm1.59.84.15-.23v-.61l.3-.23-.3-.07-.08.3-.38.46.08.3Zm2.58-12.37.15-.53-.38-.3-.15.22v.38l.23.23Zm.83-6.52.15-.23-.22-.46-.31-.15-.15.53.15.31Zm1.9-5.16.15-.53-.3-.3-.15.6.15.15Zm.3-1.37.53.23h.38v-.3l-.23-.23-.6.15Zm.68,2.05.61-.23v-.45l-.23-.15-.38.6Zm.23,2.58.15-.6-.15-.08-.23.53.08.08Z" fill="#fff"/><path d="M300.49,255.76l.31.07,1.36-.45h.38v-.15h.3v-.16h.38v-.22h.31v-.15h.38l.83-.84h.38l1.82-1.74.23-.16.6-1,1.29-1.29v-.31l.84-.83.15-.53,1.59-1.9,1.37-1.74.23-.23.07-.45.38-.38,1.14-2.2.91-1.14,2.2.45.38.38.45.08.46.91-.08,1-1.21,2.2-.91,1.74-.46.23-1.21,2-1.29,2-.91,1.22-.53.38-.15.53-1.6,1.67-1.66,1.89-.54.16-.68,1-.53.08-.3.53h-.38v.15l-1.14.61-1.37,1.06-2.12.68-1.59.68-2.43.08-2.35-.15-1.14-.38-.91-.61-1-.91-1-1.44-.46-.45-.38-2.2-.15-1.29.15-2.51.16-1.29.68-2.27.53-2.35.15-.54.23-.22.07-.61.46-.83.38-.31V243h.15l.61-1.89.45-1.37H295v-.3l.61-.91.84-2.13.3-1.13.53-1.07.15-.83h.15v-.3l.38-.91.31-2.58v-.31l-1-1.13-1.06-.16-2.43.69-2.2,1.21-1.82,1.37-.83,1-.91.68-.69.91-.53,1.14-.38,1.52h-.15l-.23,1-.45.91-.31,1.21-.91,2.2-.91,2.28-.83,2-.38.31-.76,2.2-.91,2.35-.23,1.06-.6,1-.84,2.35-.83,2.2-1,1.89-.76.84-.91.3-2.58.31-1.21-.23-.53-.3h-1.29l-1.29-.38-.15-1.22.61-2.35.75-2,1.22-2.2.91-2.35.15-.61.38-.61.3-1.21.46-1.06.3-1.22.91-2.05.84-2.19,1.13-2.2.91-2.36.91-2.27.84-2.28.91-2,.76-2.28.91-2.27.91-2.05.53-.91.83-.68.61.07,1.06.38.31.31,1.44.6.38.38h.3v.15l2.12,1.07h.76l1.14-.46,2-1.37,1.6-.9h.3v-.23h.38v-.15l2.12-.61,2.2-.53,1.29-.15,1.44.07,1.22.23,1,.53,1.82,1.59.16.15.6,1.9.38,1v1.13l-.45,2.51-.69,2.43-.68,2-.23.23-.53,1.66-.38.46-.68,2.12-.23.84-.53.68v.53l-.91,2-.45,1.14-.23.23-.53,1.82h-.15l-.08.53-.38.53-.15.61-.23.23-.68,2.2-.46,2.27h-.15l.08,2.51.07.75.69.54Zm-19.64-14.49h.53v-.46h-.31Zm2.57-10.77v-.31l-.22-.22h-.46v.37l.15.23h.38Zm1.6-1.9.3.15.23-.3-.38-.23-.08.23Zm11.68,16.31.3-.08v-.3l-.3-.15Zm1.36-5,.08.61.23.08.45-.31.08-.53-.76.08Zm0,10,.38-.08.16-.23-.23-.38h-.15l-.16.46Zm3.27-16.54v-.3l-.38-.38v.6l.22.15Zm1.21-6.83.15.15.31-.07.15-.23.76-.3.15-.23-.31-.15-.83.15-.38.53Zm1.21,3.57.16-.31-.23-.53-.3-.15-.23.08-.08.6.15.23.31.08Zm1-4v-.3l-.38-.15-.08.3.23.15Z" fill="#fff"/><path d="M337.43,206.75l.15,1.37-.22,1.14-1,2.12-.38.84-.76,2.19-.15.54v.75l.3.54.38.07.16.23h2.5l1,.23.61.75.08.54-.31,1.29-.6.91-.76.75h-.31l-.22.31-1.06.23-2.43-.23-1.22.15-1,.68-1.06,2-.76,2.2-1.06,2.28-.61,1v.23L328.1,231l-.23,1.67-.53.68-.68,2.05-.83,2.27-.91,2.35-.31,1.07-.23.15-.91,2.27-.53,1.07-.6,1.66-.16.16-.15.91-.38.45-.22,1.14-.69,2.12-.3,2.58.08.69.53,1,.76.23.22.23,2.05-.23,1.44-.91.61-.23,2.05-1.67,1.44-1.51,1.67-1.9.15-.3.38-.16v-.3l.45-.38.46-.91.45-.3v-.31l.53-.38.16-.53,1.51-1.74.38-.61V243h.16v-.3h.15v-.38l.45-.38.23-.61.91-1.29,1.44-.3,1.21.46.92,1.13.07,1.14-.23.84-.68,1.06-.53.53-.15.53-.38.15-.08.46-.45.22-.08.54-.61,1.13v.31l-1.44,1.82-1.29,1.36v.38l-.53.31v.38h-.15l-1.14,1.82-.45.15L331.44,256l-.3.08-1.52,1.52-.46.15-1.82,1.52-1.89,1.14-2.13.83-2.43.45h-2.65l-1.29-.15-2-.6-.84-.53-1.06-1.07V259l-.53-.38-.15-.68-.38-.38-.15-2h-.15l-.16-2.5.31-2.35v-.54l.15-.22.15-1.22.23-.15.83-2.35.76-2.35.31-1.14h.15v-.38h.15l.76-2.12L316,239l.76-2.2.31-.45.3-1.22.53-.83.08-.46.53-1.06.23-1.14.68-1.51.23-.15v-.38h.15l.6-1.82.23-.23v-.31l.38-.53v-.38h.15l.69-2.12.53-1.52-.16-.6-.3-.46-.45-.23h-2.2l-.91-.22-.61-.38L317,220l.22-1.29.38-.38.23-.53.53-.61.53-.15.15-.23,1.14-.3,2.66.07,1.14-.15,1.06-.6.3-.53.23-.16.23-1.06.22-.23.23-1.06.38-.38.38-1.06.61-1,.6-2,.31-.91.3-.16.15-.53h.38l.08-.22,1.06-.23h2.65l.53-.23h1.52l1.29.23.84.38Zm-21.62,47.79.23.16h.38l.23-.16v-.15l-.61-.23-.23.23Zm10.85-31.48h.3v-.3h-.3Zm.68-2.88v-.53l-.22.15.07.3Zm4.1-3.79.3-.31.08-.53-.38-.3h-.3l-.54.3.16,1.22.53-.31Zm-.68,3,.15-.16v-.3l-.15-.08-.16.16.16.15-.16.07Z" fill="#fff"/><path d="M353.89,222.3l-.45,1.82-.23.08-.84,2.2-.68,2.12-.38.38-.07.69-.31.38-.45,1.59h-.23l-.38,1.14-.23.22-.83,2.13-.15.91-.23.07-.53,1.75-.84,1.14-.07.38h-.15v.38h-.16l-.3,1.06-.53,2.2-.23.15-.76,2.35-.53,1.37-.38.38v.53l-.22.22-.31,1.37h-.15l-.61,2.12-.3,1.29v1.22l.76,1,1,.53,2-.3,1.82-1.21.91-1,.76-.45.91-.91.31-.61.83-.84,1.29-2,1.52-1.67.15-.53.45-.3.16-.53.38-.31.15-.53,1.21-1.51.3-1.14.61-.68.08-.31.83-.83,1.37-.15,1,.68.69.68.38.61-.31,1.29-1.14,2.2-.45.76-.08.45-.38.53-.3.15v.38l-.68.69v.3h-.23l-.15.53-.3.15-.23.53-.76.53-.23.69-.38.15v.38l-.61.91-.22.07-.69,1-1.74,1.74-1.59,1.83-.08.15-.53.15-.53.68h-.23l-2,1.59-.91.76-.45.08v.15h-.31l-2.27.76-1.06.3h-2.43l-1.44.15-.15-.22h-.76l-1.29-.53-.61-.31-.61-1-.53-.54-.07-1-1.29-2.05-.23-.53-.08-2.35.16-2.43.53-2.05.07-.76h.23l.15-1.21.76-2.2.76-2.28.38-.37.76-1.9.3-1.14.3-.53.16-.91.37-.3L339,236l.15-.15v-.38l.38-.38.07-.53.69-1.21.68-2.12.3-.84h.15l.91-2.35,1-2.2,1.14-2.13.53-1.44.91-.83.76-.38h5.31l.76.15.53.31.6.68Zm-16.84,31.26.23.53.53.15.3-.15v-.38l-.15-.23h-.76Zm3.11-2.73-.08.22-.53.16-.07.3.6-.15.38-.53v-.31l-.38-.68-.3-.08.38.92ZM344,236.56v-.3l-.38-.38-.15.23.08.3.23.15Zm1.52-1.89v-.53l-.53-.15v.38l.38.3Zm13.43-21.32-.23.15v.31l-.68.83-.08.31-2,1.29-.68.22-.46.46h-1.06l-2.58-.46-.91-.53-.46-.45-.07-.46-.3-.15-1-2.2-.15-1.06.22-1.37.54-1,.45-.46,1-1.44,1.82-.61,1.14-.15,1.29.15,1.13.38,1,.53.91.84.68,1,.31.91.15,2.66Z" fill="#fff"/><path d="M383.17,255.76l.3.07,1.37-.45h.38v-.15h.3v-.16h.38v-.22h.3v-.15h.38l.84-.84h.38l1.82-1.74.22-.16.61-1,1.29-1.29v-.31l.84-.83.15-.53,1.59-1.9,1.37-1.74.22-.23.08-.45.38-.38,1.14-2.2.91-1.14,2.2.45.38.38.45.08.46.91-.08,1-1.21,2.2-.91,1.74-.46.23L398,249l-1.29,2-.91,1.22-.53.38-.15.53-1.6,1.67-1.67,1.89-.53.16-.68,1-.53.08-.31.53h-.37v.15l-1.14.61L387,260.31l-2.12.68-1.59.68-2.43.08-2.35-.15-1.14-.38-.91-.61-1-.91-1-1.44-.46-.45-.38-2.2-.15-1.29.15-2.51.15-1.29.69-2.27.53-2.35.15-.54.23-.22.07-.61.46-.83.38-.31V243h.15l.6-1.89.46-1.37h.15v-.3l.61-.91.83-2.13.31-1.13.53-1.07.15-.83h.15v-.3l.38-.91.3-2.58v-.31l-1-1.13-1.06-.16-2.43.69-2.2,1.21-1.82,1.37-.84,1-.91.68-.68.91-.53,1.14-.38,1.52h-.15l-.23,1-.45.91-.31,1.21-.91,2.2-.91,2.28-.83,2-.38.31-.76,2.2-.91,2.35L363,252l-.6,1-.84,2.35-.83,2.2-1,1.89-.76.84-.91.3-2.58.31-1.21-.23-.53-.3h-1.29l-1.29-.38-.15-1.22.6-2.35.76-2,1.22-2.2.91-2.35.15-.61.38-.61.3-1.21.46-1.06.3-1.22.91-2.05.83-2.19,1.14-2.2.91-2.36.91-2.27.84-2.28.91-2,.75-2.28.91-2.27.92-2.05.53-.91.83-.68.61.07,1.06.38.3.31,1.44.6.38.38h.31v.15l2.12,1.07h.76l1.14-.46,2-1.37,1.59-.9h.31v-.23h.38v-.15l2.12-.61,2.2-.53,1.29-.15,1.44.07,1.21.23,1,.53,1.82,1.59.15.15.61,1.9.38,1v1.13l-.46,2.51-.68,2.43-.68,2L389,234l-.53,1.66-.38.46-.68,2.12-.23.84-.53.68v.53l-.91,2-.46,1.14-.22.23-.53,1.82h-.16l-.07.53-.38.53-.15.61-.23.23-.68,2.2-.46,2.27h-.15l.08,2.51.07.75.68.54Zm-19.65-14.49h.53v-.46h-.3Zm2.58-10.77v-.31l-.23-.22h-.45v.37l.15.23H366Zm1.59-1.9.31.15.23-.3-.38-.23-.08.23Zm11.69,16.31.3-.08v-.3l-.3-.15Zm1.36-5,.08.61.23.08.45-.31.08-.53-.76.08Zm0,10,.38-.08.15-.23-.22-.38h-.16l-.15.46ZM384,233.38v-.3l-.38-.38v.6l.23.15Zm1.22-6.83.15.15.3-.07.15-.23.76-.3.15-.23-.3-.15-.83.15-.38.53Zm1.21,3.57.15-.31-.22-.53-.31-.15-.23.08-.07.6.15.23.3.08Zm1-4v-.3l-.38-.15-.08.3.23.15Z" fill="#fff"/><path d="M430.58,231.63l-.61,2.43-.61,1.82h-.15v.38h-.15v.3h-.15v.38h-.23v.31l-.6,1.06-.16,1.21-1.13,2-.69,2.35-1,2.13-.53,1.14-.23,1.13-.23.23-.61,2.13-.38,1.36v1.37l.23,1.21.31.61.45.15.15.3h.91l1.14-.38,1-.53,1.89-1.67.53-.23,1.67-1.82.16-.3.83-.68.61-1,1.06-1.14.15-.53.3-.15.23-.53.3-.15.16-.53.38-.15.15-.54.6-.6.08-.46,1.44-2.05.46-1,.91-1.14.38-.23,1.13.15,1.14.54.84.83.22.91-.45,1.14-.84,1.52-.38.37v.31l-.9,1.36h-.16v.38h-.15l-.23.76-.53.76-.83.68-.08.46-.23.15-.3.53-.53.46v.3l-.61.61-.07.45L435,254.39,433.31,256l-1.9,1.67-1.67,1.44h-.38v.16h-.3v.15h-.38l-.07.3-1.44.76-1.83.61-2.27.6-1.06.16-2.36-.38-1.13-.31-1-.45-1.67-1.75-1-1.21-.08-.53-1.06-.68-.53.15-1.9,1.59-1.74,1.59-1.14.46-.68.45-1.14.38-1.75.15-.22.23-2.2.15-1.07-.15-.15-.23-.83-.15V261H400v-.15h-.31v-.23h-.37v-.15l-1.07-.53-1.06-1.14-.07-.38-.38-.15-.31-1.21-.22-.23-.38-1.82-.31-2.43.23-2.43.23-1.21v-1.59l.38-.84.15-1.36.61-1.67.6-2.13.46-1.44.15-.07.68-2.28.53-1.21.53-1.9.38-.45.23-.84.38-.38.76-1.67.45-.38.38-1.13.23-.16.3-.75.53-.38.23-.61.46-.3.68-1,.23-.61,1.21-1.36,1.06-.69.31-.53h.38l.07-.3.76-.23.23-.38h.3l.53-.37.53-.08.08-.3.38-.08.23-.38h.3l.53-.38,2.28-.53H417l1.9.45v.16l.91.15.38.45,1.06.69.91.91.76,1.36.22.15.16.46,1.29.83H425l.15-.22,1-.16,2.2-1.06,2.13-.91,1.89-.91H433l1.06,1.06-.08.76-1,2.2-.16.76-.22.15-.31,1-1.13,2.43-.31.53-.22.15ZM399.7,252.57l.08.3.46.23v.15l.91-.15.45-.23-.23-.83-.68.08-.83.45Zm2.2,2.2.31-.07.23-.61-.46.23-.08.3Zm.69,1.06.68.15v-.37l-.23-.16-.3.08Zm1.21-17.9h.46l.07-.3H404Zm11.83-9.41h-.3v.16H415v.15h-.3l-.38.53-.68.38-1.6,1.82-1.29,2.12-1.44,2-.3.76h-.15v.38h-.23l-.15.84-.3.53-.23.15-.38,1.21-.38.46-.46,1.06-.53,2.35-.76,2-.38,1.07-.45,2.42v2.66l.3,1.06.76.84.91.53h1.37l1.67-.38.38-.38.37-.08.16-.38h.38l.15-.3,1.44-1.21,1.52-1.75,1.21-1.36.08-.53.91-2.28.37-1.14.61-.91.38-1.36.38-.38v-.31l.3-.38.76-2.42.84-2.2,1-2.28.23-1.29v-1.06l-.23-1.14-.6-1.06-.91-.84-1.07-.37L417,228l-.15.16-1.14.3Zm-.45-3.11v-.3L415,225l-.3.23.3.22Zm1.14,27,.6.15.61-.68-.23-.15-.6.07-.38.46Zm1.21,4.78.68-1.06-.15-.31-.53-.15-.23.53-.07.69.15.22Zm.15-7.21.08.38.23.08.45-.38-.23-.23-.3.15Zm.53-1.36.38.3.61-.15.61-.84-.31-.15-.6.08-.53.3-.16.3Zm.69,6.67.6-.23v-.45l-.22-.15-.38.6Zm1.59.84.15-.23v-.61l.31-.23-.31-.07-.07.3-.38.46.07.3Zm2.58-12.37.15-.53-.38-.3-.15.22v.38l.23.23Zm.83-6.52.16-.23-.23-.46-.31-.15-.15.53.15.31Zm1.9-5.16.15-.53-.3-.3-.15.6.15.15Zm.3-1.37.53.23H427v-.3l-.22-.23-.61.15Zm.69,2.05.6-.23v-.45l-.22-.15-.38.6Zm.22,2.58.16-.6-.16-.08-.22.53.07.08Z" fill="#fff"/><path d="M323.27,162.76c.83.26,1.44.44,2,.66.14.05.24.22.35.34-.17,0-.38.16-.51.1a6.5,6.5,0,0,0-4-.06,5.82,5.82,0,0,1-2.56,0,11.5,11.5,0,0,0-4.53-.07l1.37-1.46a14.42,14.42,0,0,1-1.51-1.37c-.58-.67-1-1.46-1.59-2.15a42.15,42.15,0,0,0-3-3.51c-3.54-3.48-7.13-6.89-10.7-10.32l-5.5-5.35a17.23,17.23,0,0,1-1.45-1.38,8.36,8.36,0,0,1-.76-1.45l1.26.95c.34-1.3-.78-1.69-1.23-2.47,2,1.71,5,1.7,6.88,3.65-2.59-4.17-6.32-7.56-8.3-12.33,1,1.35,2,2.54,2.82,3.82a6.75,6.75,0,0,0,2.66,2.06c.12.06.29,0,.68,0-.65-.75-1.15-1.4-1.73-2-.24-.25-.43-.77-1-.51,0,0-.1,0-.12-.08a31.47,31.47,0,0,1-1.87-3.3c3.5,4,7.54,7.61,10.47,12.13l.2-.14a.94.94,0,0,1,0-.29c.07-.26.11-.69.25-.73a1,1,0,0,1,.85.19c.94,1.1,1.73,2.36,2.76,3.37,1.22,1.19,1.83,2.89,3.32,3.84.25.16.39.48.68.67-5.08-12.8-10.9-25.27-16.22-38l2,3.87.17-.06.14-.67c.71.34.56,1,.69,1.5.17.66.16,1.36,1.07,1.47.09,0,.19.17.23.28.16.4.3.82.51,1.4.26-.29.51-.48.48-.56-.27-.65.07-1.32-.28-2a13,13,0,0,0-2.28-3.46c-.25-.25-.52-.48-.92-.85l.14.78h-.06L292,102.36l.23-.12a20.52,20.52,0,0,1,1.28,2.34,5.94,5.94,0,0,0,2.43,3.13,6.16,6.16,0,0,1,1.36,1.58c2.41,3.14,3.5,6.92,5,10.48.49,1.12.92,2.26,1.4,3.38a1.24,1.24,0,0,0,.61.61,21.15,21.15,0,0,1-.6-2.47,33.58,33.58,0,0,1-.32-4.58c0-1.1.5-2.19.57-3.29.12-2,.09-4.07.09-6.11a2.63,2.63,0,0,0-.29-.9l.17-.11a4.7,4.7,0,0,1,.45.55c1.19,2,2.3,4.12,3.58,6.1a29.82,29.82,0,0,0,2.37,2.69,7.66,7.66,0,0,1,.88,1.42c.56,1.06,1.11,2.12,1.63,3.19.29.62.5,1.27.74,1.9l.22-.06c-.09-1.55-.16-3.09-.26-4.64-.14-2-.34-4.1-.43-6.15a35.18,35.18,0,0,1,.12-3.7,3.29,3.29,0,0,1,.42-1.39c0,1,0,2,0,3,0,.8.16,1.6.21,2.4a12.13,12.13,0,0,0,.05,1.71,1.44,1.44,0,0,0,.7,1c.47.18.67-.28.82-.71a1.42,1.42,0,0,0-.05-1.46.64.64,0,0,1-.13-.43c.15-.78.33-1.55.53-2.47l.4,1.3a11.18,11.18,0,0,0-1.32-5.23c-.06-.11-.18-.27-.26-.26-1,.07-.72-.56-.68-1.11.08-1.15.13-2.3.17-3.23.64,1.58,1.3,3.36,2.07,5.08a33.94,33.94,0,0,1,1,3.65c0,.09.08.18.2.43a70.68,70.68,0,0,0,2.41-8.71l.54,1.34c.64,1.54,1.24,3.11,1.94,4.63.34.74.44,1.67,1.32,2.09.05,0-.05.27,0,.39.15.39-.05.94.61,1.1.16,0,.32.5.32.77,0,3.58,0,7.16,0,10.74v6.1c.71-.28.81-1,1-1.64.77-2.79,1.54-5.58,2.21-8.39.77-3.19,1.38-6.42,2.2-9.6A9.35,9.35,0,0,1,331.5,106c1.48-2.15,3-4.27,4.51-6.4a.57.57,0,0,1,.54-.2,14.26,14.26,0,0,0-1.44,2.25c-.43,1-.61,2.18-.95,3.25a3.83,3.83,0,0,1-.66,1.16c-.53.71-1.13,1.36-1.66,2.07-.34.45-.57,1-.94,1.41-1.43,1.63-1.54,3.72-2,5.66-.16.6-.31,1.2-.45,1.72l.86.87.26-.12.17,1.8.3,0v-.58l.13,0,.31.74.26-1.87-.19,0-.1.7-.17,0c-.06-.25-.25-.56-.16-.74s.45-.31.78-.51c-.6-.71.28-1.06.52-1.64a31.28,31.28,0,0,0,1.05-3.28c.19-.67.27-1.36.43-2a1.65,1.65,0,0,1,.25-.54,6.5,6.5,0,0,1,.39-.57l1.09-1.27c-2,7.2-4,14.5-6,21.8l.19.08c.24-.45.51-.89.7-1.35,1.25-3,2.42-6,3.76-8.9a28,28,0,0,1,2.37-3.86c1.12-1.68,2.3-3.33,3.46-5,.17-.24.32-.5.48-.75l.25.23-1.89,3,.19.18c.15,0,.34-.06.44-.16a25.12,25.12,0,0,0,4.29-5.85c.6-1,1.16-2.11,1.83-3.15l-1.77,7.7a2.63,2.63,0,0,0,2.1-1.3c.78-1.15,1.52-2.32,2.29-3.47a7.85,7.85,0,0,1,.67-.76c-.15.43-.29.64-.27.83a1.64,1.64,0,0,1-.51,1.21,6.1,6.1,0,0,0-1.31,3.63,8.26,8.26,0,0,1-.27,1.46l.93-.57c-.53,1.06-1,2-1.48,3-.9,1.78-1.78,3.57-2.71,5.34-2.08,4-4.19,8-6.28,12a4.62,4.62,0,0,0-.39.92,22.09,22.09,0,0,1-2.6,5,46.81,46.81,0,0,0-2.55,5.05,4.17,4.17,0,0,0,0,1.59c2.37-.49,4.21-2,6-3.53-1.66.77-3,2.43-5.19,1.89.47-.83.93-1.66,1.42-2.48,1.35-2.3,2.71-4.59,4.05-6.89a4.92,4.92,0,0,0,.42-.9,12.8,12.8,0,0,1,3.33-4.75,9.4,9.4,0,0,0,2.05-3.12c.55-1.34,1.25-2.68,2.71-3.17a3.55,3.55,0,0,0,1.84-1.62,7.65,7.65,0,0,1,.65-.74l.18.08a19.66,19.66,0,0,1-1,2.76c-1.82,3.33-3.7,6.62-5.59,9.91-1.43,2.48-2.91,4.94-4.43,7.52.28.05.46.09.64.11l.75.05a3.19,3.19,0,0,1-.15.71c-.74,1.44-1.5,2.87-2.25,4.3a.6.6,0,0,0-.05.47l1.33-1a48.17,48.17,0,0,0,4.89-3.82c1.66-1.66,3.73-2.55,5.69-3.67a12.9,12.9,0,0,1,2.44-1c.81-.26,1.65-.44,2.51-.67-.72.8-1.36,1.54-2,2.25-.09.09-.33.05-.5.07.13,1.16-.35,1.69-1.47,1.56a1.15,1.15,0,0,1-.32,1.59c-1.68,1.36-3.36,2.72-5.07,4.05-3,2.31-6,4.58-8.93,6.93-1.66,1.33-3.23,2.78-4.85,4.18A18.71,18.71,0,0,0,328,158.2a4.57,4.57,0,0,0-1.11,1.61,3.45,3.45,0,0,1-2,2C324.42,162.09,324,162.37,323.27,162.76Zm18.12-46.5c-.23.38-.51.76.1,1.06.73-.56,1.08-.52,1.27.17l.67-.32c.07-.33.05-.6.18-.77.35-.48.25-.79-.27-1l1,.3c-.53-1.14.43-1.4,1-2.06l-1.82-.76.39-.75A5.21,5.21,0,0,0,341.39,116.26ZM340.26,130l-.44,1.36c.68-.47,1.31-.94,2-1.35,1.22-.76,2.46-1.48,2.3-3.28-.17,0-.39,0-.48,0-.43.42-.79.91-1.22,1.32C341.68,128.78,340.93,129.42,340.26,130Zm-39.72,12.3a12.85,12.85,0,0,0-1-1.21c-.41-.41-.78-.88-1.56-.64a.69.69,0,0,1-1-.69c0-.11-.48-.37-.65-.3a3.1,3.1,0,0,0-.77.65l.09.11.46-.34c.65,1.67,1.67,2.38,2.42,1.62.17.65,1.43.28,1.23,1.43Zm8.52-27.62a2.11,2.11,0,0,0,1.92,2ZM340.28,119c.06.73.07.74,1.3,1.41l-.22-1Zm-24.17-5.58.29.07.75-3-.26-.07Zm25.45,4.39c.22,1.25.22,1.25.71,1.18-.83-.69.38-.56.34-1.13Zm-42.4-3.65-.25.15.2,1.57c.21-.25.57-.49.55-.69A3.5,3.5,0,0,0,299.16,114.11Zm45.21,11.31.24-1.38-.22,0C344.16,124.38,343.39,124.67,344.37,125.42Z" fill="#fff"/><path d="M289.83,125.76l-2.15-2.09c.75-.34,2.23.91,2.33,1.91Z" fill="#fff"/><path d="M340.73,108.89l2.1-3.3c.2.34.09.68-.67,1.77-.4.57-.86,1.1-1.29,1.64Z" fill="#fff"/><path d="M290.21,135.18l-2.46-1.65.62-.29,2,1.71Z" fill="#fff"/><path d="M343.75,104.74l-.82-.18,1-1.15.2.12Z" fill="#fff"/><path d="M342.87,115.48l-.08,1a6.91,6.91,0,0,1-.91,0,1.89,1.89,0,0,1-.51-.26c.35,0,.65.08.8-.39C342.24,115.68,342.63,115.6,342.87,115.48Z" fill="#fff"/><path d="M343.73,113.59c.25.89-.49.87-.72,1.23l-.17-.13Z" fill="#fff"/><path d="M181,243.83a3.8,3.8,0,0,1-1.59,1.8,17.38,17.38,0,0,0-1.87,1.87,4.91,4.91,0,0,1-2,1.65,8.14,8.14,0,0,1-2.45.65,8,8,0,0,1-5.83-2.3,9.68,9.68,0,0,1-2.81-6.05,6.6,6.6,0,0,0-.14-1.36,1.79,1.79,0,0,1,.14-1.23,23.2,23.2,0,0,1,2.16-3.74,5.21,5.21,0,0,1,4.61-2.88c.57.1,1.15.22,1.73.36a10.85,10.85,0,0,1,1.58.51q3.73.42,5.18,2.87a13.13,13.13,0,0,1,1.73,5.47A6.5,6.5,0,0,1,181,243.83Zm-1-1.8-.87-.86a3.86,3.86,0,0,0-.71.86c0,.19.24.38.71.57A3.63,3.63,0,0,1,180,242Zm-1.58-5.9h.28c0-.1,0-.15-.14-.15Zm-.72,1.29c-.29-.28-.48-.43-.58-.43s-.24,0-.43.43a4,4,0,0,0,.72.58Zm-.44,6.55a.4.4,0,0,1,.15-.21,1.11,1.11,0,0,0-.29-.22,1.32,1.32,0,0,1-.29-.21.81.81,0,0,0-.57.28.87.87,0,0,1,.36.29,1.75,1.75,0,0,0,.36.43C177.19,244.14,177.28,244,177.28,244Zm-.57-8.71c.19,0,.29-.19.29-.57.19-.19.09-.38-.29-.58a3.8,3.8,0,0,0-.72-.43,1.21,1.21,0,0,0-.72-.14.83.83,0,0,1,.29.57l-.29.58-.29.57a.29.29,0,0,1-.07.22.29.29,0,0,0-.07.22.39.39,0,0,1-.15.28,3.47,3.47,0,0,0,.51.44,3.32,3.32,0,0,1,.5.43,3.2,3.2,0,0,1,.43-.72C175.75,235.55,175.94,235.26,176.71,235.26Zm-1.3,9.94-.29.57.15.15a1.11,1.11,0,0,1,.29-.22,1.31,1.31,0,0,0,.29-.22c-.1-.09-.17-.14-.22-.14S175.51,245.29,175.41,245.2Zm-1.87-4.32a1.83,1.83,0,0,0,.86.86.6.6,0,0,0,.58,0,1.39,1.39,0,0,0,.43-.29,2.16,2.16,0,0,0-.14-1.29H175a1.48,1.48,0,0,0-.5-.36,3.91,3.91,0,0,1-.51-.22,1.51,1.51,0,0,1-.36-.21,1.34,1.34,0,0,0-.36-.22l-.86-.86c-.29-.29-.48-.44-.58-.44s-.36.2-.5.29a4,4,0,0,0-.5.43.7.7,0,0,0,.28.36,1.17,1.17,0,0,1,.29.22,3.27,3.27,0,0,0,.72.58.93.93,0,0,1-.29.21,1.08,1.08,0,0,0-.28.22,2,2,0,0,1-.65.43c-.24.1-.36.19-.36.29.29.48.62,1,1,1.58a.8.8,0,0,0,.28.36.74.74,0,0,1,.29.36l.43.43a2.42,2.42,0,0,0,1,.15,1.23,1.23,0,0,1-.14-.51.49.49,0,0,0-.15-.36c-.76-.48-.81-1-.14-1.44.1,0,.14-.09.14-.28H173c-.1-.1-.17-.15-.22-.15s-.12-.05-.22-.14a2.22,2.22,0,0,0,.44-.58Zm1,3.88a.13.13,0,0,0-.15.15A.13.13,0,0,0,174.55,244.76Zm-1.15,2.31a.27.27,0,0,0,.07.21c.05.05.07,0,.07-.07a.79.79,0,0,0,.58-.29l-.15-.28A2.14,2.14,0,0,0,173.4,247.07Zm.36-12.09a1.32,1.32,0,0,1,.21-.29l-.28-.29a2.87,2.87,0,0,0-.72.58l.57.28A1.08,1.08,0,0,0,173.76,235Zm-1.51-1.16-.15-.14c-.19,0-.29,0-.29.14l.15.29Zm-4.75,6.91,1.29,1.73.65-.65c.24-.24.31-.4.22-.5a5.58,5.58,0,0,0-.65-.79l-.8-.79C167.74,240.21,167.5,240.54,167.5,240.73Zm1.29-2.66a1.36,1.36,0,0,0-.14-.36,1.11,1.11,0,0,1-.29.22.8.8,0,0,0-.29.36l-.43.43a.35.35,0,0,1-.22.14s-.11,0-.21.15c.29.28.48.43.57.43a.82.82,0,0,0,.58-.15,3.19,3.19,0,0,0,.57-.86A1.36,1.36,0,0,1,168.79,238.07Zm-.29-1.22c0,.09,0,.12.08.07a.29.29,0,0,0,.07-.22.83.83,0,0,0-.58-.28c-.09-.1-.24,0-.43.14A2.23,2.23,0,0,0,168.5,236.85Zm-1.87.86.15-.14h-.15l-.14.14Z" fill="#fff"/><path d="M475.69,237.86a12.93,12.93,0,0,1,.12,5.73c-.38,1.85-1.71,3.32-4,4.39a12.6,12.6,0,0,1-1.34,1c-.5.32-1,.61-1.52.89a5.18,5.18,0,0,1-5.28-1.25,22.17,22.17,0,0,1-3.25-2.85,1.82,1.82,0,0,1-.53-1.11,6.6,6.6,0,0,0-.3-1.34,9.64,9.64,0,0,1,.72-6.63,7.1,7.1,0,0,1,7.3-4.22,4.94,4.94,0,0,1,2.44.92,17.5,17.5,0,0,0,2.38,1.17,3.81,3.81,0,0,1,2.07,1.19A6.14,6.14,0,0,1,475.69,237.86Zm-2.55-.36c-.39.34-.56.6-.49.78a4,4,0,0,0,1,.59l.54-1.1A3.46,3.46,0,0,1,473.14,237.5Zm1.58,6.46c.1,0,.12-.09.09-.18l-.13,0-.14.05ZM473,242.42a4.4,4.4,0,0,0-.5.78c.31.3.49.39.55.27s.22-.23.4-.6Zm-2.44-5.86a1.91,1.91,0,0,0-.21.53.7.7,0,0,1-.25.38.85.85,0,0,0,.64.09,1.14,1.14,0,0,1,.21-.3,1.13,1.13,0,0,0,.2-.29.49.49,0,0,1-.21-.16C470.92,236.76,470.79,236.68,470.55,236.56Zm1.81,8.05a3.57,3.57,0,0,1-.64-.54,3.42,3.42,0,0,1-.34.57,3.27,3.27,0,0,0-.34.57.38.38,0,0,1,.23.22.35.35,0,0,0,.14.19.25.25,0,0,1,.14.18l.45.45.46.45a.81.81,0,0,1-.09.64c.37-.12.58-.25.64-.37a3.25,3.25,0,0,0,.54-.64c.31-.3.34-.52.09-.64-.12-.36-.27-.51-.46-.45C472.46,245.49,472.18,245.28,472.36,244.61Zm-3.43-8.56a.5.5,0,0,0,.15-.21,1,1,0,0,0-.34-.11,1.9,1.9,0,0,1-.34-.11l-.09.18.46.45C468.83,236.13,468.88,236.06,468.93,236.05Zm-.91,5.62a2,2,0,0,0-.59-.4c.06-.13.11-.2.16-.21a.5.5,0,0,0,.15-.21l.28-.09c-.07-.18-.14-.26-.23-.22-.79-.25-.9-.71-.33-1.41a.48.48,0,0,0,0-.39,1.24,1.24,0,0,1,0-.52,2.27,2.27,0,0,0-.91.46l-.27.54a.79.79,0,0,1-.16.44.8.8,0,0,0-.16.43c-.17.67-.32,1.27-.44,1.82,0,.09.17.14.43.16a1.82,1.82,0,0,1,.75.2,1.08,1.08,0,0,0,.35.11,1.07,1.07,0,0,1,.34.12,3.09,3.09,0,0,0-.5.77,1.42,1.42,0,0,1-.2.3.73.73,0,0,0-.16.43,4.21,4.21,0,0,0,.62.25,5.28,5.28,0,0,0,.57.11c.09,0,.22-.23.4-.59l.54-1.1a1.82,1.82,0,0,0,.28-.32,1.62,1.62,0,0,1,.27-.32c.15-.15.28-.27.4-.37a1.43,1.43,0,0,0,.37-.5l.27-.09a2.18,2.18,0,0,0-.28-1.27,1.68,1.68,0,0,0-.5-.14.6.6,0,0,0-.55.19,1.82,1.82,0,0,0-.54,1.09Zm-.11-4.82a.13.13,0,0,0,.18.09A.13.13,0,0,0,467.91,236.85Zm-1-1.5L467,235a.85.85,0,0,0-.64-.09c0-.09-.06-.1-.09,0a.3.3,0,0,0,0,.23A2.24,2.24,0,0,0,466.94,235.35Zm3.24,10.91-.45.46a3.07,3.07,0,0,0,.87.31l.18-.36a1.44,1.44,0,0,1-.3-.21A1,1,0,0,0,470.18,246.26Zm-1.13,1.6,0,.32c0,.09.14.1.32,0l.09-.18Zm-5.34-4.12.49-1a5.56,5.56,0,0,0,.36-1c.06-.12-.06-.26-.36-.41l-.83-.4L462.7,243C462.76,243.2,463.1,243.44,463.71,243.74Zm1.09,1a3.23,3.23,0,0,0-.82-.64.85.85,0,0,0-.59.05c-.09,0-.23.23-.41.6.13.06.21.08.25.06a.44.44,0,0,1,.25.07l.55.27a.91.91,0,0,0,.39.25,1,1,0,0,1,.34.11,1.05,1.05,0,0,0,0-.38A2.12,2.12,0,0,1,464.8,244.74Zm-.62,2.19c.24.12.4.11.45,0a.8.8,0,0,0,.46-.45.27.27,0,0,0-.14-.18c-.06,0-.08,0-.05.09A2.11,2.11,0,0,0,464.18,246.93Zm-1.46-.72.18.09.14-.05-.19-.09Z" fill="#fff"/></svg>