<?xml version="1.0" encoding="UTF-8"?>
<svg width="232px" height="35px" viewBox="0 0 232 35" version="1.1" xmlns="http://www.w3.org/2000/svg" xmlns:xlink="http://www.w3.org/1999/xlink">
    <!-- Generator: Sketch 64 (93537) - https://sketch.com -->
    <title>el torito logo</title>
    <desc>Created with Sketch.</desc>
    <defs>
        <polygon id="path-1" points="0.000225242718 0.883488175 55.7905942 0.883488175 55.7905942 34.875 0.000225242718 34.875"></polygon>
        <polygon id="path-3" points="0.663368287 0.735907065 21.3079612 0.735907065 21.3079612 19.770991 0.663368287 19.770991"></polygon>
        <polygon id="path-5" points="8.52789252e-13 35.1163125 231.909903 35.1163125 231.909903 1.1244375 8.52789252e-13 1.1244375"></polygon>
    </defs>
    <g id="Design" stroke="none" stroke-width="1" fill="none" fill-rule="evenodd">
        <g id="Hours-&amp;-Locations:-Location-Set" transform="translate(-30.000000, -65.000000)">
            <g id="header" transform="translate(0.000000, 45.000000)">
                <g id="el-torito-logo" transform="translate(30.000000, 19.000000)">
                    <g id="Group-3" transform="translate(0.000000, 0.241313)">
                        <mask id="mask-2" fill="white">
                            <use xlink:href="#path-1"></use>
                        </mask>
                        <g id="Clip-2"></g>
                        <path d="M33.5625165,24.5995875 C33.4487689,24.6018375 33.3350214,24.6052125 33.2302835,24.6052125 C31.7538175,24.6052125 30.7593709,24.0404625 29.5126524,23.3958375 C28.1668272,22.7017125 26.8480311,22.4204625 26.6351767,22.4024625 C26.6351767,22.4024625 26.7984777,21.5407125 26.7984777,20.7352125 C26.7984777,19.9263375 26.4775068,19.5550875 26.2691573,19.0657125 C26.0585553,18.5853375 25.9200311,18.4683375 26.083332,18.3299625 C26.1171184,18.3007125 26.1858175,18.2849625 26.2860505,18.2849625 C26.6903612,18.2849625 27.5766913,18.5144625 28.5598757,19.0657125 C29.7840699,19.7587125 31.1997204,21.2234625 32.5680699,22.5599625 C33.9307883,23.9020875 35.874633,24.0618375 35.874633,24.0618375 C35.874633,24.0618375 35.2270602,24.5084625 33.5625165,24.5995875 M33.3293903,29.8949625 C32.8259728,30.7274625 31.2244971,32.3204625 31.2244971,32.3204625 C31.2244971,32.3204625 30.4384,32.6422125 29.895565,32.9313375 C29.789701,32.9830875 29.6984777,33.0607125 29.6016233,33.1383375 C29.3684971,32.6883375 29.0587883,32.3204625 29.0587883,32.3204625 C29.0587883,32.3204625 29.0036039,31.7680875 29.1725359,31.0942125 C29.2716427,30.6970875 29.6703223,29.7678375 30.617468,29.1592125 C31.498167,28.5865875 31.535332,27.1893375 31.535332,27.1893375 C31.535332,27.1893375 31.9036039,27.2692125 32.5782058,27.1893375 C33.2404194,27.1027125 33.4487689,27.0610875 33.4487689,27.0610875 C33.4487689,27.0610875 33.5321087,27.3929625 33.8260505,28.0612125 C34.118866,28.7272125 33.8260505,29.0590875 33.3293903,29.8949625 M20.4196039,23.2383375 C20.1222835,23.2383375 19.8125748,23.2180875 19.4916039,23.1753375 C18.2527689,23.0032125 16.7166136,21.9513375 15.2311379,21.3235875 C13.7524194,20.6992125 13.3255845,20.6789625 12.0371961,20.1445875 C10.9740505,19.7058375 10.649701,17.9035875 11.5056233,16.8325875 C11.9606136,16.2678375 12.6307107,16.0360875 13.3481087,16.0360875 C14.1150602,16.0360875 14.9326913,16.3049625 15.6027883,16.7245875 C16.9013126,17.5334625 18.5658563,19.7789625 19.5884583,20.9770875 C20.6054291,22.1853375 22.9896233,22.8288375 22.9896233,22.8288375 C22.9896233,22.8288375 21.8408854,23.2383375 20.4196039,23.2383375 M53.205934,27.3547125 C53.158633,25.8145875 52.8714485,24.5219625 52.2891961,23.3575875 C51.7046913,22.1932125 51.0345942,21.7758375 50.4140505,20.9410875 C49.7912544,20.1063375 50.0401476,20.2357125 49.9984777,18.8204625 C49.9568078,17.4040875 49.5772738,17.7337125 48.8745165,16.6942125 C48.1616233,15.6535875 48.286633,15.4870875 47.622167,14.4048375 C47.3811573,14.0189625 47.0151379,13.6319625 46.641235,13.2843375 L46.641235,13.2820875 L46.6356039,13.2787125 C46.5973126,13.2460875 46.5578951,13.2112125 46.5218563,13.1774625 L46.5218563,13.2112125 C46.4204971,13.1403375 46.2571961,13.0312125 46.0657398,12.8872125 C45.7391379,12.6543375 45.650167,12.5047125 45.5611961,12.1233375 C45.4699728,11.7408375 46.1592155,11.3347125 46.1592155,11.3347125 C46.4509049,11.1265875 46.7944,10.9668375 47.5163029,10.6822125 C48.4116427,10.3255875 49.2867107,9.9768375 50.1843029,9.7000875 C51.0818951,9.4312125 51.0616233,9.2478375 51.0818951,8.7067125 C51.1044194,8.1610875 50.2867883,7.4320875 49.7799922,6.7503375 C49.2754485,6.0685875 49.4973126,5.4970875 49.6606136,4.5363375 C49.8272932,3.5834625 49.8272932,3.5182125 49.6606136,3.0187125 C49.4973126,2.5225875 49.3509049,2.3752125 49.430866,1.8779625 C49.5164583,1.3728375 49.7045359,1.1860875 49.6606136,0.9813375 C49.6211961,0.7698375 48.9128078,0.8980875 48.117701,1.3964625 C47.3282252,1.8959625 46.7245748,2.7104625 46.7020505,4.7275875 C46.6829049,6.7447125 48.7269825,7.9979625 49.2867107,8.3107125 C49.8520699,8.6178375 49.6020505,8.7235875 49.1650796,8.8720875 C48.7269825,9.0149625 48.1818951,9.1173375 47.0568078,9.4728375 C45.9317204,9.8227125 45.2875262,10.3255875 44.8359146,10.6270875 C44.389934,10.9252125 43.7558757,11.1029625 43.7558757,11.1029625 C43.7558757,11.1029625 43.5114874,10.9612125 43.1105553,10.7947125 L43.1071767,10.7947125 C42.6747107,10.6169625 42.0631767,10.4110875 41.3705553,10.3255875 C40.0326136,10.1624625 39.7476816,10.1174625 38.1653515,9.5257125 C36.5841476,8.9294625 36.9490408,8.4513375 35.5311379,7.4950875 C34.118866,6.5422125 33.5321087,6.5422125 31.9914485,4.9154625 C30.4496621,3.2887125 29.362866,3.4192125 27.5327689,3.0400875 C25.7015456,2.6665875 23.6135456,2.4978375 22.4051184,3.3742125 C21.8262447,3.7904625 21.3949049,4.0638375 20.6549825,4.4485875 L20.6651184,4.4485875 C20.2168854,4.6859625 19.6222447,4.9717125 19.2111767,5.1595875 L19.2111767,5.1505875 C18.5309437,5.4768375 17.6660117,5.8807125 16.5285359,6.4128375 C12.4448854,8.3298375 11.8356039,10.2277125 11.8356039,10.2277125 C11.8356039,10.2277125 11.3873709,10.9083375 10.9436427,12.5047125 C10.4728854,14.1955875 10.8884583,14.8334625 10.8884583,14.8334625 C10.8884583,14.8334625 10.987565,15.3487125 11.1103223,16.3927125 C11.1182058,16.4095875 11.1182058,16.4197125 11.1182058,16.4365875 C11.1046913,16.4534625 11.0877981,16.4692125 11.0731573,16.4838375 C10.5168078,17.1700875 10.323099,18.1600875 10.5584777,19.0657125 C10.749934,19.8228375 11.2094291,20.4044625 11.8243417,20.6620875 C11.8907883,20.6857125 11.9459728,20.7115875 12.0079146,20.7329625 C11.9302058,20.9354625 11.8524971,21.1210875 11.7804194,21.2763375 C11.4448078,21.9850875 10.1958369,22.6072125 9.69467184,23.1472125 C9.19913786,23.6905875 8.47610874,24.7019625 7.55937087,26.1599625 C6.30927379,28.1377125 3.93634175,30.1177125 2.88671068,31.0447125 C1.47331262,32.2912125 0.000225242718,34.0450875 0.000225242718,34.0450875 L5.55358447,34.0450875 C5.55358447,34.0450875 5.80247767,33.4207125 5.88919612,33.0415875 C5.97140971,32.6647125 5.88919612,32.1528375 5.88919612,32.1528375 C5.88919612,32.1528375 7.03793398,30.8860875 8.44232233,29.9298375 C9.85234175,28.9825875 12.0293126,28.0825875 12.0293126,28.0825875 C12.0293126,28.0825875 12.1543223,27.7270875 12.4065942,27.2692125 C12.6521087,26.8124625 13.0676816,26.6898375 14.6117204,26.0238375 C15.289701,25.7335875 15.5723806,25.5929625 15.6861282,25.5322125 C15.7469437,25.6897125 16.0397592,26.3512125 16.5882252,26.8282125 C17.2121476,27.3715875 18.3676427,27.9003375 18.6964971,29.1299625 C19.4195262,31.8209625 20.4477592,32.4588375 23.0335456,32.2383375 C24.3669825,32.1224625 24.5742058,31.5577125 24.8647689,31.0132125 C25.1587107,30.4754625 25.4774291,26.4670875 25.4774291,26.4670875 L27.3244194,26.7685875 C27.3244194,26.7685875 26.9257398,27.9273375 26.826633,28.8138375 C26.7264,29.6542125 26.4493515,31.8209625 26.4493515,31.8209625 L25.9448078,32.5432125 C25.9448078,32.5432125 25.5438757,32.7198375 25.2825942,33.8178375 C25.0731184,34.6953375 25.1170408,34.8753375 25.1170408,34.8753375 L30.005934,34.8753375 C30.005934,34.8753375 29.9338563,34.5603375 29.8640311,34.0147125 L35.0333515,34.0147125 C35.0333515,34.0147125 35.0772738,33.4724625 34.8250019,32.9707125 C34.5783612,32.4768375 34.3688854,32.2259625 34.3688854,32.2259625 L34.783332,31.7680875 C35.2022835,31.3057125 35.3655845,31.1448375 36.9490408,29.9770875 C38.5336233,28.8138375 37.9491184,28.5157125 37.9108272,28.1455875 C37.8669049,27.7687125 37.6585553,26.8124625 37.6585553,26.8124625 C37.6585553,26.8124625 38.2430602,26.6054625 39.0437981,25.9450875 C39.8411573,25.2847125 39.7882252,25.3128375 41.3232544,24.3093375 C42.8627883,23.3013375 42.7445359,24.7728375 43.4090019,25.2295875 C44.0824777,25.6897125 44.9102447,24.9809625 46.7887689,25.1047125 C48.6639146,25.2295875 50.2867883,26.3140875 50.3723806,28.0612125 C50.4523417,29.8117125 50.4523417,29.9770875 50.9568854,30.5182125 C51.4524194,31.0604625 51.8713709,32.0167125 51.5853126,32.7828375 C51.302633,33.5467125 51.3690796,33.9708375 51.3690796,33.9708375 L55.7905942,33.9922125 C55.7905942,33.9922125 55.1610408,32.1820875 54.1643417,31.1842125 C53.158633,30.1829625 53.2476039,28.8892125 53.205934,27.3547125" id="Fill-1" fill="#000000" mask="url(#mask-2)"></path>
                    </g>
                    <path d="M84.0248816,8.2229625 L84.0361437,19.9173375 C84.0383961,21.2740875 84.0102408,22.3642125 83.1351728,23.4509625 L101.263833,23.4385875 L101.258202,16.1317125 C100.030629,19.8903375 98.1543573,19.9634625 98.1543573,19.9634625 C98.1284544,19.9634625 96.9234058,19.9657125 96.8975029,19.9634625 C95.6733087,19.9657125 88.7459689,19.9398375 87.9733864,19.8318375 C87.8652699,18.0813375 87.8382408,17.0992125 87.8382408,16.8584625 C87.8382408,16.8314625 87.8359883,16.8055875 87.8359883,16.8055875 L87.8326097,8.2195875 C87.8269786,6.8898375 87.9069398,5.7490875 88.7549786,4.6848375 L83.0901243,4.6904625 C83.6746291,5.4059625 84.0215029,6.4702125 84.0248816,7.5052125 C84.0215029,7.6908375 84.0215029,7.9304625 84.0248816,8.2229625" id="Fill-4" fill="#000000"></path>
                    <path d="M77.519534,20.140875 C76.7469515,20.138625 76.2683107,20.138625 76.0532039,20.138625 L65.7900194,20.1285 L65.7945243,17.3115 L65.8485825,15.361875 L74.2906796,15.361875 C75.468699,15.366375 76.481165,15.43725 77.4260583,16.192125 L77.4316893,11.178 C76.7942524,11.696625 75.8516117,11.998125 74.9348738,11.998125 L74.2963107,11.998125 L65.9375534,11.9925 L65.940932,8.197875 L77.1906796,8.204625 C77.4463301,8.204625 77.8405049,8.215875 78.199767,8.973 L79.9634175,4.726125 L62.128699,4.726125 L62.128699,4.743 L61.1815534,4.746375 C61.9541359,5.69925 62.1174369,6.79275 62.1196893,8.28 L62.1196893,8.7255 L62.128699,8.7255 L62.128699,12.60675 L62.1196893,19.940625 C62.1174369,21.425625 61.9541359,22.519125 61.1815534,23.47425 L80.5997282,23.49225 L80.6064854,18.550125 C79.9161165,20.034 79.4115728,20.14425 77.519534,20.140875" id="Fill-6" fill="#000000"></path>
                    <path d="M126.806695,4.4766 L126.806695,4.470975 C124.973219,4.5531 119.424365,4.60485 116.632482,4.60485 C113.948715,4.608225 108.479821,4.5531 106.698151,4.4766 L106.698151,10.72035 C107.905452,7.868475 108.620598,7.452225 110.156753,7.4781 C110.395511,7.48035 110.634268,7.48035 110.903433,7.4781 C111.139938,7.4781 114.662734,7.48035 114.875588,7.48035 L114.875588,19.786725 C114.875588,21.2751 114.692016,22.36185 113.919433,23.32035 L119.614695,23.32035 C118.845491,22.3911 118.660792,21.27285 118.660792,19.7811 L118.656287,7.4781 C119.000909,7.4781 119.185608,7.452225 119.23854,7.449975 L123.290656,7.449975 L123.3312,7.449975 L123.716365,7.48035 C124.008054,7.5186 124.411239,7.59735 124.841452,7.75935 C125.517181,8.1351 126.078035,8.9631 126.819083,10.72035 L126.819083,10.6551 L126.821336,10.649475 L126.819083,4.470975 C126.815705,4.4766 126.810074,4.470975 126.806695,4.4766" id="Fill-8" fill="#000000"></path>
                    <path d="M184.52075,4.6051875 L178.855895,4.5995625 C179.468555,5.3465625 179.787274,6.3849375 179.783895,7.4199375 C179.781643,7.7945625 179.783895,8.0071875 179.787274,8.1399375 L179.774885,19.8298125 C179.774885,21.3215625 179.612711,22.4128125 178.844633,23.3679375 L184.508361,23.3679375 C183.895701,22.6265625 183.578109,21.6421875 183.581487,20.4980625 C183.579235,20.3664375 183.581487,20.1268125 183.575856,19.8365625 L183.589371,8.1399375 C183.589371,6.8135625 183.642303,5.6953125 184.52075,4.6051875" id="Fill-10" fill="#000000"></path>
                    <path d="M158.513437,7.7571 L167.186408,7.77285 C168.436505,7.780725 168.492816,7.400475 168.469165,11.0106 C168.461282,12.3426 168.013049,12.359475 166.595146,13.072725 C165.553398,13.596975 159.452699,15.52185 158.474019,15.9471 L158.513437,7.7571 Z M154.641515,19.7991 C154.631379,21.3156 154.464699,22.4046 153.693243,23.3316 L159.331068,23.364225 C158.722913,22.6161 158.409825,21.6261 158.41433,20.488725 C158.41433,20.35485 158.418835,20.1141 158.419961,19.818225 L158.437981,17.761725 C160.21965,16.7616 166.371029,15.093225 166.371029,15.093225 C167.274252,15.102225 167.644777,15.934725 168.166214,17.42535 L169.947883,20.99385 C170.080777,21.36735 170.393864,21.8376 170.811689,23.539725 L176.131922,23.573475 C174.88633,22.500225 174.54734,22.005225 174.155417,20.9646 L170.772272,12.9681 C172.398524,12.0276 172.667689,11.673225 172.678951,9.866475 C172.708233,4.893975 172.36699,4.590225 169.068311,4.56435 C167.684194,4.556475 160.580039,4.630725 158.611417,4.619475 C158.080971,4.617225 157.732971,4.617225 157.65301,4.617225 C155.552621,4.6026 154.304777,4.565475 153.796854,4.56435 C154.403883,5.3136 154.712466,6.3486 154.710214,7.389225 C154.710214,7.57485 154.709087,7.7841 154.704583,8.1081 L154.641515,19.7991 Z" id="Fill-12" fill="#000000"></path>
                    <path d="M144.13214,19.6399125 L137.695829,19.6399125 C134.610004,19.6489125 134.289033,19.5667875 134.28329,17.6317875 C134.277771,14.0126625 134.484994,10.8210375 134.668567,8.8331625 C134.746276,8.1086625 134.983907,7.7925375 135.704683,7.7925375 C135.945693,7.7925375 136.075208,7.7902875 136.075208,7.7902875 L136.085344,7.7677875 L136.839907,7.7677875 C136.837654,7.7722875 136.835402,7.7756625 136.835402,7.7812875 C136.835402,7.7812875 137.083169,7.7756625 137.42779,7.7677875 L144.378781,7.7677875 L144.378781,7.7385375 C144.608528,7.7329125 144.801111,7.7317875 144.905849,7.7317875 C145.999402,7.7284125 146.45214,7.7284125 146.641344,8.6025375 C146.667247,8.7352875 147.101965,11.9764125 147.10881,17.5069125 C147.113227,19.3912875 146.955557,19.6342875 144.13214,19.6399125 M151.053867,19.0650375 C151.033577,10.6162875 150.200179,5.8834125 150.120217,5.6460375 C149.665227,4.3961625 148.548023,4.3500375 146.179596,4.35221956 C145.996023,4.35221956 145.398004,4.3691625 144.378781,4.3905375 L144.378781,4.3882875 L136.413072,4.3882875 L136.388295,4.3882875 L135.811674,4.3882875 L135.800412,4.3882875 C135.523363,4.3905375 135.25645,4.3905375 135.006431,4.3905375 C132.953344,4.3961625 131.893577,4.4760375 131.419441,5.3287875 C131.069188,5.9104125 130.388955,10.7760375 130.405849,19.0976625 C130.410353,21.0641625 130.622082,22.2611625 131.717887,22.8697875 C132.595208,23.3749125 134.751907,23.3940375 138.369305,23.3861625 C138.7128,23.3861625 144.485771,23.3861625 144.859674,23.3850375 C149.758703,23.3749125 151.05948,23.2950375 151.053867,19.0650375" id="Fill-14" fill="#000000"></path>
                    <path d="M208.220788,10.720125 L208.220788,10.654875 L208.220788,10.650375 L208.220788,4.47075 C208.218536,4.476375 208.211779,4.47075 208.205021,4.476375 L208.205021,4.47075 C206.372672,4.554 200.827196,4.604625 198.035313,4.604625 C195.348167,4.608 189.883779,4.554 188.099856,4.476375 L188.099856,10.720125 C189.307157,7.86825 190.023429,7.452 191.558458,7.477875 C191.797216,7.480125 192.035973,7.480125 192.302885,7.477875 C192.540517,7.477875 196.066691,7.480125 196.279546,7.480125 L196.279546,19.787625 C196.279546,21.274875 196.094847,22.36275 195.321138,23.320125 L201.017526,23.320125 C200.247196,22.390875 200.062497,21.272625 200.062497,19.782 L200.059118,7.477875 C200.40374,7.477875 200.590691,7.452 200.641371,7.44975 L204.694614,7.44975 L204.731779,7.44975 L205.11807,7.480125 C205.409759,7.518375 205.815196,7.59825 206.243157,7.759125 C206.922264,8.134875 207.47974,8.962875 208.220788,10.720125" id="Fill-16" fill="#000000"></path>
                    <g id="Group-20" transform="translate(210.601942, 3.616313)">
                        <mask id="mask-4" fill="white">
                            <use xlink:href="#path-3"></use>
                        </mask>
                        <g id="Clip-19"></g>
                        <path d="M14.3888427,16.0236 L7.95253204,16.0236 C4.86558058,16.0326 4.54686214,15.950475 4.54573592,14.015475 C4.53447379,10.39635 4.7428233,7.204725 4.92639612,5.21685 C5.00523107,4.49235 5.24060971,4.176225 5.95913398,4.176225 C6.20014369,4.176225 6.33191068,4.173975 6.33191068,4.173975 L6.33979417,4.151475 L7.09773592,4.151475 C7.09660971,4.155975 7.09435728,4.15935 7.09435728,4.164975 C7.09435728,4.164975 7.34212427,4.15935 7.68561942,4.151475 L14.6354835,4.151475 L14.6354835,4.122225 C14.8652311,4.1166 15.0589398,4.115475 15.1625515,4.115475 C16.2561049,4.1121 16.7088427,4.1121 16.8980466,4.986225 C16.9250757,5.118975 17.3597942,8.3601 17.364299,13.8906 C17.3721825,15.774975 17.2133864,16.017975 14.3888427,16.0236 M21.3083346,15.448725 C21.2936583,6.999975 20.4568816,2.2671 20.3769204,2.029725 C19.9219301,0.77985 18.8036,0.733725 16.4329204,0.735907065 C16.2527262,0.735907065 15.655833,0.75285 14.6354835,0.774225 L14.6354835,0.771975 L6.66752233,0.771975 L6.64950291,0.771975 L6.06725049,0.771975 L6.05711456,0.771975 C5.78006602,0.774225 5.51427961,0.774225 5.26313398,0.774225 C3.2100466,0.77985 2.1491534,0.859725 1.67389126,1.712475 C1.32589126,2.2941 0.646784466,7.159725 0.66367767,15.48135 C0.667056311,17.44785 0.881036893,18.64485 1.97684272,19.253475 C2.85191068,19.7586 5.0074835,19.777725 8.62488155,19.76985 C8.97288155,19.76985 14.7469786,19.76985 15.1163767,19.768725 C20.0142796,19.7586 21.3161825,19.678725 21.3083346,15.448725" id="Fill-18" fill="#000000" mask="url(#mask-4)"></path>
                    </g>
                    <polygon id="Fill-21" fill="#000000" points="65.2719612 32.2599375 62.9744854 29.3664375 61.981165 29.3664375 61.981165 34.1555625 62.7751456 34.1555625 62.7751456 30.2394375 62.7954175 30.2394375 65.2652039 33.3613125 67.7541359 30.2394375 67.7744078 30.2394375 67.7744078 34.1555625 68.5683883 34.1555625 68.5683883 29.3664375 67.5784466 29.3664375"></polygon>
                    <polygon id="Fill-23" fill="#000000" points="74.606132 32.0248125 77.4137825 32.0248125 77.4137825 31.3104375 74.606132 31.3104375 74.606132 30.0808125 78.644734 30.0808125 78.644734 29.3664375 73.8121515 29.3664375 73.8121515 34.1555625 78.8305592 34.1555625 78.8305592 33.4400625 74.606132 33.4400625"></polygon>
                    <polygon id="Fill-25" fill="#000000" points="88.7920311 29.3661 87.7604194 29.3661 85.9190602 31.2291 84.0731961 29.3661 83.039332 29.3661 85.3987495 31.729725 82.954866 34.155225 83.9853515 34.155225 85.9111767 32.217975 87.8471379 34.155225 88.8798757 34.155225 86.4337398 31.725225"></polygon>
                    <mask id="mask-6" fill="white">
                        <use xlink:href="#path-5"></use>
                    </mask>
                    <g id="Clip-28"></g>
                    <polygon id="Fill-27" fill="#000000" mask="url(#mask-6)" points="93.4081553 34.1544375 94.2032621 34.1544375 94.2032621 29.3664375 93.4081553 29.3664375"></polygon>
                    <path d="M100.660746,30.4504875 C101.078571,30.1118625 101.618027,29.9419875 102.279115,29.9419875 C103.154183,29.9419875 103.832163,30.1996125 104.318687,30.7148625 L105.04059,30.4572375 C104.399775,29.6303625 103.480784,29.2141125 102.279115,29.2141125 C101.44459,29.2141125 100.746338,29.4289875 100.180979,29.8564875 C99.5322796,30.3447375 99.2068039,30.9758625 99.2068039,31.7476125 C99.2068039,32.5328625 99.5277748,33.1662375 100.167464,33.6533625 C100.728318,34.0763625 101.432202,34.2867375 102.279115,34.2867375 C102.885017,34.2867375 103.404202,34.1967375 103.837794,34.0189875 C104.273639,33.8412375 104.663309,33.5509875 105.006804,33.1493625 L104.325445,32.7724875 C103.83892,33.2967375 103.172202,33.5599875 102.326416,33.5599875 C101.623658,33.5599875 101.066183,33.3923625 100.655115,33.0593625 C100.241794,32.7263625 100.035697,32.2909875 100.035697,31.7476125 C100.035697,31.2233625 100.244047,30.7913625 100.660746,30.4504875" id="Fill-29" fill="#000000" mask="url(#mask-6)"></path>
                    <path d="M111.117864,32.368725 L112.35332,30.048975 L113.574136,32.368725 L111.117864,32.368725 Z M111.845398,29.3661 L109.310291,34.155225 L110.179728,34.155225 L110.730447,33.0831 L113.959301,33.0831 L114.512272,34.155225 L115.381709,34.155225 L112.846602,29.3661 L111.845398,29.3661 Z" id="Fill-30" fill="#000000" mask="url(#mask-6)"></path>
                    <polygon id="Fill-31" fill="#000000" mask="url(#mask-6)" points="124.570823 33.294825 120.909503 29.366325 119.92294 29.366325 119.92294 34.15545 120.71692 34.15545 120.71692 30.228075 124.377115 34.15545 125.364804 34.15545 125.364804 29.366325 124.570823 29.366325"></polygon>
                    <path d="M137.029561,31.6150875 L137.029561,30.0817125 L139.823697,30.0817125 C140.485911,30.0817125 140.817017,30.3449625 140.817017,30.8748375 C140.817017,31.3675875 140.509561,31.6150875 139.896901,31.6150875 L137.029561,31.6150875 Z M141.279891,31.8524625 C141.514144,31.6060875 141.63127,31.2798375 141.63127,30.8748375 C141.63127,30.4124625 141.488241,30.0445875 141.201056,29.7723375 C140.913872,29.5023375 140.519697,29.3662125 140.015153,29.3662125 L136.235581,29.3662125 L136.235581,34.1553375 L137.029561,34.1553375 L137.029561,32.3305875 L139.449794,32.3305875 L140.746066,34.1553375 L141.670687,34.1553375 L140.386804,32.2900875 C140.766338,32.2270875 141.063658,32.0819625 141.279891,31.8524625 L141.279891,31.8524625 Z" id="Fill-32" fill="#000000" mask="url(#mask-6)"></path>
                    <polygon id="Fill-33" fill="#000000" mask="url(#mask-6)" points="147.344777 32.0248125 150.151301 32.0248125 150.151301 31.3104375 147.344777 31.3104375 147.344777 30.0808125 151.384505 30.0808125 151.384505 29.3664375 146.54967 29.3664375 146.54967 34.1555625 151.568078 34.1555625 151.568078 33.4400625 147.344777 33.4400625"></polygon>
                    <path d="M159.625348,31.3106625 C159.413619,31.2859125 158.976649,31.2487875 158.314435,31.2049125 C157.86395,31.1779125 157.538474,31.1295375 157.341386,31.0586625 C157.063212,30.9619125 156.924687,30.8089125 156.924687,30.5962875 C156.924687,30.3949125 157.054202,30.2351625 157.314357,30.1204125 C157.575639,30.0056625 157.950668,29.9482875 158.439445,29.9482875 C159.177115,29.9482875 159.90127,30.1282875 160.611911,30.4905375 L161.095056,29.9550375 C160.39793,29.4825375 159.532998,29.2474125 158.499134,29.2474125 C157.732183,29.2474125 157.137542,29.3767875 156.715212,29.6377875 C156.294008,29.8976625 156.08228,30.2531625 156.08228,30.7020375 C156.08228,31.1396625 156.269231,31.4490375 156.639755,31.6346625 C156.957348,31.7944125 157.511445,31.8990375 158.30092,31.9519125 C159.192882,32.0092875 159.740221,32.0644125 159.94294,32.1172875 C160.331483,32.2196625 160.525192,32.4210375 160.525192,32.7259125 C160.525192,32.9857875 160.377658,33.1905375 160.081464,33.3412875 C159.772882,33.4954125 159.338163,33.5730375 158.777309,33.5730375 C157.912377,33.5730375 157.104882,33.3446625 156.354823,32.8845375 L155.917852,33.4594125 C156.596959,33.9994125 157.54861,34.2671625 158.771678,34.2671625 C159.614085,34.2671625 160.259406,34.1276625 160.711017,33.8497875 C161.161503,33.5730375 161.384493,33.1804125 161.384493,32.6730375 C161.384493,32.2759125 161.24259,31.9699125 160.956532,31.7550375 C160.669348,31.5379125 160.225619,31.3905375 159.625348,31.3106625" id="Fill-34" fill="#000000" mask="url(#mask-6)"></path>
                    <polygon id="Fill-35" fill="#000000" mask="url(#mask-6)" points="165.59732 30.08025 167.888039 30.08025 167.888039 34.153875 168.682019 34.153875 168.682019 30.08025 170.972738 30.08025 170.972738 29.367 165.59732 29.367"></polygon>
                    <path d="M176.652683,32.368725 L177.88814,30.048975 L179.108955,32.368725 L176.652683,32.368725 Z M177.381344,29.3661 L174.845111,34.155225 L175.714548,34.155225 L176.267518,33.0831 L179.495247,33.0831 L180.047091,34.155225 L180.916528,34.155225 L178.380295,29.3661 L177.381344,29.3661 Z" id="Fill-36" fill="#000000" mask="url(#mask-6)"></path>
                    <path d="M190.059468,32.41485 C190.059468,32.7906 189.896167,33.07635 189.571817,33.275475 C189.248594,33.473475 188.772206,33.572475 188.147157,33.572475 C187.51873,33.572475 187.041216,33.473475 186.712361,33.275475 C186.383507,33.07635 186.220206,32.7906 186.220206,32.41485 L186.220206,29.3661 L185.426225,29.3661 L185.426225,32.607225 C185.426225,33.1011 185.668361,33.50385 186.153759,33.817725 C186.657177,34.139475 187.320517,34.30035 188.147157,34.30035 C188.971546,34.30035 189.630381,34.139475 190.127041,33.817725 C190.610186,33.50835 190.853449,33.1056 190.853449,32.607225 L190.853449,29.3661 L190.059468,29.3661 L190.059468,32.41485 Z" id="Fill-37" fill="#000000" mask="url(#mask-6)"></path>
                    <path d="M196.859658,31.6150875 L196.859658,30.0817125 L199.651542,30.0817125 C200.313755,30.0817125 200.644862,30.3449625 200.644862,30.8748375 C200.644862,31.3675875 200.338532,31.6150875 199.725872,31.6150875 L196.859658,31.6150875 Z M201.107736,31.8524625 C201.341988,31.6060875 201.460241,31.2798375 201.460241,30.8748375 C201.460241,30.4124625 201.316085,30.0445875 201.030027,29.7723375 C200.742843,29.5023375 200.347542,29.3662125 199.844124,29.3662125 L196.064551,29.3662125 L196.064551,34.1553375 L196.859658,34.1553375 L196.859658,32.3305875 L199.277639,32.3305875 L200.575037,34.1553375 L201.499658,34.1553375 L200.214649,32.2900875 C200.594183,32.2270875 200.892629,32.0819625 201.107736,31.8524625 L201.107736,31.8524625 Z" id="Fill-38" fill="#000000" mask="url(#mask-6)"></path>
                    <path d="M207.485033,32.368725 L208.720489,30.048975 L209.941305,32.368725 L207.485033,32.368725 Z M208.212567,29.3661 L205.67746,34.155225 L206.546897,34.155225 L207.098742,33.0831 L210.32647,33.0831 L210.879441,34.155225 L211.747751,34.155225 L209.211518,29.3661 L208.212567,29.3661 Z" id="Fill-39" fill="#000000" mask="url(#mask-6)"></path>
                    <polygon id="Fill-40" fill="#000000" mask="url(#mask-6)" points="220.936866 33.294825 217.275546 29.366325 216.290109 29.366325 216.290109 34.15545 217.084089 34.15545 217.084089 30.228075 220.743157 34.15545 221.731973 34.15545 221.731973 29.366325 220.936866 29.366325"></polygon>
                    <polygon id="Fill-41" fill="#000000" mask="url(#mask-6)" points="226.306202 30.08025 228.59692 30.08025 228.59692 34.153875 229.390901 34.153875 229.390901 30.08025 231.681619 30.08025 231.681619 29.367 226.306202 29.367"></polygon>
                </g>
            </g>
        </g>
    </g>
</svg>