<?xml version="1.0" encoding="UTF-8"?><svg id="Layer_2" xmlns="http://www.w3.org/2000/svg" xmlns:xlink="http://www.w3.org/1999/xlink" viewBox="0 0 153.26 31.29"><defs><style>.cls-1{clip-path:url(#clippath);}.cls-2{fill:#fff;}.cls-3{clip-path:url(#clippath-1);}.cls-4{clip-path:url(#clippath-4);}.cls-5{clip-path:url(#clippath-3);}.cls-6{clip-path:url(#clippath-2);}.cls-7{clip-path:url(#clippath-7);}.cls-8{clip-path:url(#clippath-6);}.cls-9{clip-path:url(#clippath-5);}</style><clipPath id="clippath"><path class="cls-2" d="m140.67,19.8c.2-.63.26-1.15.51-1.55,1.04-1.66,2.13-3.29,3.21-4.93.14-.21.3-.4.52-.69.57.87,1.08,1.63,1.59,2.4.72,1.1,1.47,2.18,2.14,3.32.2.34.25.83.21,1.23-.01.1-.61.21-.94.21-1.16,0-2.32.01-3.51.01s-2.42,0-3.72,0m2.09-15.51c.03.88.07,1.77-.01,2.64-.06.61-.21,1.28-.53,1.79-1.72,2.73-3.52,5.42-5.28,8.13-.18.27-.36.61-.36.91-.03,2.92-.03,5.85,0,8.77,0,.18.34.51.54.52.62.03,1.23.03,1.85.03.42,0,.84,0,1.25,0,.48.01.63-.2.61-.65-.02-.65.02-1.29-.01-1.94-.02-.48.17-.63.64-.63,2.28.01,4.55.02,6.83,0,.53,0,.67.24.65.71-.02.65-.03,1.3.01,1.94.02.19.24.53.37.53,1.31,0,2.62-.06,3.93-.1v-9.48c-1.98-3.03-3.97-6.05-5.93-9.08-.18-.28-.28-.67-.3-1-.04-1.03-.02-2.07,0-3.11,0-.45-.14-.65-.63-.64-.98.03-1.97.03-2.95,0-.02,0-.05,0-.07,0-.45,0-.63.17-.62.66"/></clipPath><clipPath id="clippath-1"><path class="cls-2" d="m95.31,3.18c-.11.05-.22.12-.33.14-3.01.57-5.11,3.01-5.18,6.01-.08,3.13,1.89,5.72,4.87,6.44.68.16,1.37.28,2.03.49.91.28,1.87.49,2.68.96,1.23.7,1.73,2.3,1.32,3.6-.43,1.37-1.62,2.22-3.11,2.23-.57,0-1.14,0-1.71,0-1.49,0-2.38-.65-2.94-2.06-.07-.18-.28-.44-.43-.45-1.28-.04-2.57-.02-3.94-.02.18,1.89.89,3.4,2.2,4.59,2.36,2.16,5.2,2.56,8.2,1.95,4.92-.99,7.52-6.43,5.15-10.71-1.18-2.13-3.15-3.22-5.42-3.83-1.1-.29-2.22-.49-3.31-.8-.8-.22-1.36-.77-1.47-1.63-.12-.9-.05-1.77.82-2.35.78-.52,2.88-.49,3.65.06.15.1.35.22.39.37.24.98.93.95,1.62.93.12,0,.24,0,.36,0,.22,0,.44,0,.65,0,.43,0,.86-.01,1.29.02.68.05.81-.25.67-.83-.44-1.89-1.45-3.37-3.19-4.27-.69-.36-1.48-.55-2.22-.82h-2.64Z"/></clipPath><clipPath id="clippath-2"><path class="cls-2" d="m42.14,4.51c.03,4.5.02,9.01.02,13.51,0,2.77.01,5.54-.01,8.31,0,.57.15.79.75.77.9-.04,1.81-.04,2.72,0,.61.03.82-.16.81-.78-.04-1.58-.04-3.16,0-4.74.01-.43.16-.92.4-1.28,1.09-1.57,2.23-3.11,3.36-4.65.14-.2.31-.37.55-.65.62.93,1.21,1.74,1.7,2.61.25.45.44.99.44,1.5.05,2.41.04,4.81.01,7.22,0,.58.18.78.76.76.9-.04,1.81-.05,2.72,0,.65.04.77-.23.77-.81-.02-2.74,0-5.49-.03-8.23,0-.46-.18-.97-.44-1.35-1.02-1.52-2.09-3.02-3.18-4.5-.32-.43-.31-.73,0-1.16,1.1-1.47,2.15-2.98,3.22-4.47.66-.92,1.31-1.84,2.09-2.93-1.52,0-2.84.02-4.15-.01-.55-.02-.91.18-1.23.62-1.85,2.53-3.72,5.04-5.58,7.55-.42.57-.85,1.14-1.27,1.7-.06-.02-.11-.04-.17-.06v-.5c0-2.85-.01-5.69,0-8.54,0-.56-.17-.8-.76-.77-.88.04-1.76.05-2.64,0-.05,0-.1,0-.15,0-.57,0-.73.25-.73.88"/></clipPath><clipPath id="clippath-3"><path class="cls-2" d="m64.38,19.8c-.97,0-1.22-.49-.67-1.38.64-1.03,1.32-2.04,1.99-3.05.58-.88,1.16-1.76,1.84-2.79,1.38,2.11,2.68,4.04,3.91,6.01.48.76.17,1.21-.7,1.21-.9,0-1.79,0-2.69,0-1.23,0-2.45,0-3.68,0m1.01-15.42c.02.9.06,1.82-.02,2.72-.04.54-.19,1.12-.47,1.58-1.01,1.65-2.11,3.26-3.16,4.88-.83,1.28-1.98,2.47-2.38,3.87-.41,1.43-.09,3.08-.09,4.63h-.03c0,1.45.02,2.9,0,4.35,0,.5.16.69.67.68.43-.01.86,0,1.29,0,.58,0,1.16,0,1.74-.03.19-.01.51-.33.53-.54.07-.67.04-1.34.02-2.02-.01-.47.17-.64.64-.64,2.28.01,4.56.01,6.83,0,.52,0,.68.23.67.71-.02.57.03,1.14-.01,1.71-.04.59.14.85.78.81.9-.05,1.81-.04,2.72,0,.61.03.8-.2.8-.81-.03-2.74,0-5.49-.03-8.23,0-.36-.12-.77-.32-1.08-1.48-2.31-2.92-4.64-4.51-6.88-1-1.41-1.62-2.84-1.38-4.59.06-.41-.01-.83.01-1.24.03-.48-.18-.64-.64-.63-.98.02-1.97.03-2.95,0-.02,0-.04,0-.06,0-.52,0-.64.26-.63.74"/></clipPath><clipPath id="clippath-4"><path class="cls-2" d="m106.35,4.58c.04,4.3.01,8.59.02,12.89,0,.88,0,1.76.11,2.63.51,4.33,4.33,7.42,8.84,7.17,4.19-.23,7.65-3.89,7.67-8.1,0-1.94,0-3.88,0-5.82,0-2.98-.02-5.95.01-8.93,0-.62-.19-.82-.8-.78-.55.03-1.11.03-1.67.02-.25,0-.49,0-.74,0q-1.03,0-1.03,1c0,4.79.02,9.58,0,14.36-.02,3.11-3.39,5.05-6.06,3.5-1.55-.9-2.1-2.32-2.09-4.06.02-4.58,0-9.16,0-13.74,0-.33-.03-.66-.05-1.06-1.12,0-2.18.04-3.24-.01-.05,0-.11,0-.15,0-.62,0-.83.24-.82.95"/></clipPath><clipPath id="clippath-5"><path class="cls-2" d="m136.65,4.58c.02.14-.04.32-.12.44-1.26,1.95-2.53,3.9-3.89,5.98-.24-.31-.38-.48-.5-.66-1.04-1.58-2.09-3.15-3.09-4.75-.26-.41-.31-.95-.51-1.41-.09-.21-.31-.5-.48-.51-1.08-.05-2.17-.04-3.26,0-.15,0-.43.21-.43.32.01,1.02-.23,2.05.41,3.01,1.62,2.43,3.18,4.91,4.8,7.33.4.59.37.99-.02,1.58-1.6,2.35-3.09,4.78-4.73,7.1-.79,1.11-.94,2.26-.83,3.52.02.2.33.53.52.54.65.03,1.3.03,1.94.03.39,0,.77,0,1.16,0,.44,0,.56-.19.61-.61.05-.44.11-.94.35-1.3,3.75-5.8,7.5-11.6,11.32-17.35.75-1.13,1.05-2.25.97-3.56-.03-.46-.15-.65-.63-.63-.85.03-1.71.05-2.56,0-.08,0-.15,0-.23,0-.59,0-.92.21-.8.96"/></clipPath><clipPath id="clippath-6"><path class="cls-2" d="m72.49,4.32c.02.96.04,1.92,0,2.87-.03.64.23.8.82.79,1.45-.03,2.9-.01,4.35,0q1.05,0,1.06,1.05c0,5.7.02,11.39-.02,17.09,0,.81.24,1.04,1.02.98.82-.06,1.66-.06,2.48,0,.71.05.87-.23.86-.89-.03-2.87-.01-5.75-.01-8.62s.01-5.9-.01-8.85c0-.57.16-.78.75-.77.84.02,1.68.02,2.52.01.66,0,1.32,0,1.99,0,.49,0,.71-.14.7-.67-.03-1.04-.02-2.07,0-3.11,0-.44-.17-.59-.6-.59-5.08,0-10.15.01-15.22,0h0c-.52,0-.66.23-.65.71"/></clipPath><clipPath id="clippath-7"><path class="cls-2" d="m19.53,16.25c.3.49.26,1.48-.34,3.48-1.33.26-2.61.42-3.41.42-.64,0-.87.38-.23.68.87.42,1.33.46,3.3,0-1.44,4.16-3.41,6.32-6.59,8.4-.91.64-.64.99.45.57,3.26-1.25,6.02-3.56,8.03-9.35,1.06-.19,2.23-.42,2.92-.53.68-.07.95.08.87,1.51-.08,3.07-.34,4.43-.98,5.76-.42.76-.64.76-2.92-.42-.57-.34-.83.19-.42.64.91,1.02,1.63,2.5,1.67,3.37.04.6.72.72,1.67.04,1.82-1.36,2.5-3.26,2.84-7,.23-2.27.38-3.03.83-3.44.38-.42.38-.76-.98-1.63-1.21-.76-1.86-.61-2.35-.38-.72.34-1.7.68-2.76.95.26-.79.57-1.32,1.06-2.08.34-.53.08-.99-1.55-1.67-.31-.14-.58-.2-.78-.2-.53,0-.7.39-.31.88m-4.92-10.68c.53.76,1.36,1.59,2.08,2.04.8.42,1.44.15,1.25-.91-.15-.98-.83-1.44-2.73-1.89-.12-.03-.23-.05-.32-.05-.47,0-.6.36-.28.8m11.17-3.22c-.19.83-.53,1.48-2.04,2.99-.53.49-.34.83.3.45,2.5-1.29,3.29-1.59,4.35-1.82.76-.15.91-.64-.79-1.86-.56-.4-.93-.59-1.2-.59-.33,0-.49.29-.62.82m-6.55-1.02c.49.68.6,1.74.3,4.13-.19,1.33-.42,2.58-.64,3.75-1.21.27-2.39.42-3.45.53-1.51.19-1.67.53-.38.8.95.19,1.82.19,3.52-.04-.19.83-.42,1.63-.72,2.39-1.97.34-3.9.57-5.3.61-.68.04-.68.34-.08.72.95.57,1.55.72,2.88.34.42-.11,1.02-.23,2.04-.42-1.1,2.35-3.11,4.96-5.6,6.93-.15.11-.3.23-.34.3-.04-1.7-.04-4.62-.04-11.74,0-2.57.3-3.64.76-4.47.42-.72.42-1.21-.68-1.82-1.4-.87-1.82-.68-2.31-.38-.98.61-2.27,1.02-3.64,1.17-1.7-1.1-2.54-.6-1.89.8.61,1.25.76,4.62.42,10.15-.34,5.07-1.55,9.84-3.75,13.29-.68,1.06-.23,1.4.53.53,2.58-2.84,3.98-5.87,4.77-11.93,1.17.04,1.89-.04,2.95-.38,1.02-.34.91-1.13-.3-1.36-.45-.04-.98.04-2.54.72.11-1.14.23-2.73.27-4.43.95.04,1.51-.08,2.42-.45,1.06-.38.87-.95-.08-1.21-.42-.15-.8,0-2.31.64.04-1.7.04-3.56-.04-5.38.83-.04,1.63-.19,2.88-.57.57-.15.83-.08.91.95.15,2.31.08,14.88-.19,18.78-.11,1.48-.49,1.67-2.31,1.33-1.21-.34-1.33.19-.61.72,1.29,1.02,1.86,1.63,2.12,2.61.23.72,1.17.79,1.85-.46.8-1.51,1.06-2.69.87-4.96-.04-.53-.08-1.21-.08-1.7.19.08.42.04.76-.11,2.76-1.25,5.38-4.24,6.97-7.91,1.1-.23,2.61-.46,3.45-.57,1.14,1.21,1.63,1.7,5.45,5.53,1.17,1.17,1.51,1.36,6.25.91,1.48-.15,1.36-.68.45-.95-4.24-.99-6.66-2.16-10.9-5.68,2.95-.38,3.6-.42,4.54-.46,1.97-.07,2.27-.83,1.02-1.59-.61-.3-1.67-.42-3.37.08-1.67.49-4.01,1.02-6.4,1.51.27-.72.53-1.55.72-2.35,1.14-.19,2.46-.42,6.1-1.25,1.55-.34,1.51-1.1.61-1.33-.98-.26-1.82-.11-3.03.23-1.17.34-2.27.64-3.26.91.3-1.33.57-2.65.72-3.82.08-.68.57-1.93.95-2.69.42-.83.42-1.17-1.78-2.01-.53-.18-.95-.27-1.26-.27-.72,0-.8.48-.22,1.33"/></clipPath></defs><g id="Artwork"><path class="cls-2" d="m140.67,19.8c.2-.63.26-1.15.51-1.55,1.04-1.66,2.13-3.29,3.21-4.93.14-.21.3-.4.52-.69.57.87,1.08,1.63,1.59,2.4.72,1.1,1.47,2.18,2.14,3.32.2.34.25.83.21,1.23-.01.1-.61.21-.94.21-1.16,0-2.32.01-3.51.01s-2.42,0-3.72,0m2.09-15.51c.03.88.07,1.77-.01,2.64-.06.61-.21,1.28-.53,1.79-1.72,2.73-3.52,5.42-5.28,8.13-.18.27-.36.61-.36.91-.03,2.92-.03,5.85,0,8.77,0,.18.34.51.54.52.62.03,1.23.03,1.85.03.42,0,.84,0,1.25,0,.48.01.63-.2.61-.65-.02-.65.02-1.29-.01-1.94-.02-.48.17-.63.64-.63,2.28.01,4.55.02,6.83,0,.53,0,.67.24.65.71-.02.65-.03,1.3.01,1.94.02.19.24.53.37.53,1.31,0,2.62-.06,3.93-.1v-9.48c-1.98-3.03-3.97-6.05-5.93-9.08-.18-.28-.28-.67-.3-1-.04-1.03-.02-2.07,0-3.11,0-.45-.14-.65-.63-.64-.98.03-1.97.03-2.95,0-.02,0-.05,0-.07,0-.45,0-.63.17-.62.66"/><g class="cls-1"><rect class="cls-2" x="136.55" y="3.62" width="16.71" height="23.47"/></g><path class="cls-2" d="m95.31,3.18c-.11.05-.22.12-.33.14-3.01.57-5.11,3.01-5.18,6.01-.08,3.13,1.89,5.72,4.87,6.44.68.16,1.37.28,2.03.49.91.28,1.87.49,2.68.96,1.23.7,1.73,2.3,1.32,3.6-.43,1.37-1.62,2.22-3.11,2.23-.57,0-1.14,0-1.71,0-1.49,0-2.38-.65-2.94-2.06-.07-.18-.28-.44-.43-.45-1.28-.04-2.57-.02-3.94-.02.18,1.89.89,3.4,2.2,4.59,2.36,2.16,5.2,2.56,8.2,1.95,4.92-.99,7.52-6.43,5.15-10.71-1.18-2.13-3.15-3.22-5.42-3.83-1.1-.29-2.22-.49-3.31-.8-.8-.22-1.36-.77-1.47-1.63-.12-.9-.05-1.77.82-2.35.78-.52,2.88-.49,3.65.06.15.1.35.22.39.37.24.98.93.95,1.62.93.12,0,.24,0,.36,0,.22,0,.44,0,.65,0,.43,0,.86-.01,1.29.02.68.05.81-.25.67-.83-.44-1.89-1.45-3.37-3.19-4.27-.69-.36-1.48-.55-2.22-.82h-2.64Z"/><g class="cls-3"><rect class="cls-2" x="88.57" y="3.18" width="17.91" height="24.48"/></g><path class="cls-2" d="m42.14,4.51c.03,4.5.02,9.01.02,13.51,0,2.77.01,5.54-.01,8.31,0,.57.15.79.75.77.9-.04,1.81-.04,2.72,0,.61.03.82-.16.81-.78-.04-1.58-.04-3.16,0-4.74.01-.43.16-.92.4-1.28,1.09-1.57,2.23-3.11,3.36-4.65.14-.2.31-.37.55-.65.62.93,1.21,1.74,1.7,2.61.25.45.44.99.44,1.5.05,2.41.04,4.81.01,7.22,0,.58.18.78.76.76.9-.04,1.81-.05,2.72,0,.65.04.77-.23.77-.81-.02-2.74,0-5.49-.03-8.23,0-.46-.18-.97-.44-1.35-1.02-1.52-2.09-3.02-3.18-4.5-.32-.43-.31-.73,0-1.16,1.1-1.47,2.15-2.98,3.22-4.47.66-.92,1.31-1.84,2.09-2.93-1.52,0-2.84.02-4.15-.01-.55-.02-.91.18-1.23.62-1.85,2.53-3.72,5.04-5.58,7.55-.42.57-.85,1.14-1.27,1.7-.06-.02-.11-.04-.17-.06v-.5c0-2.85-.01-5.69,0-8.54,0-.56-.17-.8-.76-.77-.88.04-1.76.05-2.64,0-.05,0-.1,0-.15,0-.57,0-.73.25-.73.88"/><g class="cls-6"><rect class="cls-2" x="42.13" y="3.61" width="16.67" height="23.52"/></g><path class="cls-2" d="m64.38,19.8c-.97,0-1.22-.49-.67-1.38.64-1.03,1.32-2.04,1.99-3.05.58-.88,1.16-1.76,1.84-2.79,1.38,2.11,2.68,4.04,3.91,6.01.48.76.17,1.21-.7,1.21-.9,0-1.79,0-2.69,0-1.23,0-2.45,0-3.68,0m1.01-15.42c.02.9.06,1.82-.02,2.72-.04.54-.19,1.12-.47,1.58-1.01,1.65-2.11,3.26-3.16,4.88-.83,1.28-1.98,2.47-2.38,3.87-.41,1.43-.09,3.08-.09,4.63h-.03c0,1.45.02,2.9,0,4.35,0,.5.16.69.67.68.43-.01.86,0,1.29,0,.58,0,1.16,0,1.74-.03.19-.01.51-.33.53-.54.07-.67.04-1.34.02-2.02-.01-.47.17-.64.64-.64,2.28.01,4.56.01,6.83,0,.52,0,.68.23.67.71-.02.57.03,1.14-.01,1.71-.04.59.14.85.78.81.9-.05,1.81-.04,2.72,0,.61.03.8-.2.8-.81-.03-2.74,0-5.49-.03-8.23,0-.36-.12-.77-.32-1.08-1.48-2.31-2.92-4.64-4.51-6.88-1-1.41-1.62-2.84-1.38-4.59.06-.41-.01-.83.01-1.24.03-.48-.18-.64-.64-.63-.98.02-1.97.03-2.95,0-.02,0-.04,0-.06,0-.52,0-.64.26-.63.74"/><g class="cls-5"><rect class="cls-2" x="58.95" y="3.63" width="16.96" height="23.5"/></g><path class="cls-2" d="m106.35,4.58c.04,4.3.01,8.59.02,12.89,0,.88,0,1.76.11,2.63.51,4.33,4.33,7.42,8.84,7.17,4.19-.23,7.65-3.89,7.67-8.1,0-1.94,0-3.88,0-5.82,0-2.98-.02-5.95.01-8.93,0-.62-.19-.82-.8-.78-.55.03-1.11.03-1.67.02-.25,0-.49,0-.74,0q-1.03,0-1.03,1c0,4.79.02,9.58,0,14.36-.02,3.11-3.39,5.05-6.06,3.5-1.55-.9-2.1-2.32-2.09-4.06.02-4.58,0-9.16,0-13.74,0-.33-.03-.66-.05-1.06-1.12,0-2.18.04-3.24-.01-.05,0-.11,0-.15,0-.62,0-.83.24-.82.95"/><g class="cls-4"><rect class="cls-2" x="106.34" y="3.6" width="16.67" height="23.93"/></g><path class="cls-2" d="m136.65,4.58c.02.14-.04.32-.12.44-1.26,1.95-2.53,3.9-3.89,5.98-.24-.31-.38-.48-.5-.66-1.04-1.58-2.09-3.15-3.09-4.75-.26-.41-.31-.95-.51-1.41-.09-.21-.31-.5-.48-.51-1.08-.05-2.17-.04-3.26,0-.15,0-.43.21-.43.32.01,1.02-.23,2.05.41,3.01,1.62,2.43,3.18,4.91,4.8,7.33.4.59.37.99-.02,1.58-1.6,2.35-3.09,4.78-4.73,7.1-.79,1.11-.94,2.26-.83,3.52.02.2.33.53.52.54.65.03,1.3.03,1.94.03.39,0,.77,0,1.16,0,.44,0,.56-.19.61-.61.05-.44.11-.94.35-1.3,3.75-5.8,7.5-11.6,11.32-17.35.75-1.13,1.05-2.25.97-3.56-.03-.46-.15-.65-.63-.63-.85.03-1.71.05-2.56,0-.08,0-.15,0-.23,0-.59,0-.92.21-.8.96"/><g class="cls-9"><rect class="cls-2" x="123.88" y="3.62" width="17.07" height="23.47"/></g><path class="cls-2" d="m72.49,4.32c.02.96.04,1.92,0,2.87-.03.64.23.8.82.79,1.45-.03,2.9-.01,4.35,0q1.05,0,1.06,1.05c0,5.7.02,11.39-.02,17.09,0,.81.24,1.04,1.02.98.82-.06,1.66-.06,2.48,0,.71.05.87-.23.86-.89-.03-2.87-.01-5.75-.01-8.62s.01-5.9-.01-8.85c0-.57.16-.78.75-.77.84.02,1.68.02,2.52.01.66,0,1.32,0,1.99,0,.49,0,.71-.14.7-.67-.03-1.04-.02-2.07,0-3.11,0-.44-.17-.59-.6-.59-5.08,0-10.15.01-15.22,0h0c-.52,0-.66.23-.65.71"/><g class="cls-8"><rect class="cls-2" x="72.45" y="3.61" width="16.53" height="23.54"/></g><path class="cls-2" d="m19.53,16.25c.3.49.26,1.48-.34,3.48-1.33.26-2.61.42-3.41.42-.64,0-.87.38-.23.68.87.42,1.33.46,3.3,0-1.44,4.16-3.41,6.32-6.59,8.4-.91.64-.64.99.45.57,3.26-1.25,6.02-3.56,8.03-9.35,1.06-.19,2.23-.42,2.92-.53.68-.07.95.08.87,1.51-.08,3.07-.34,4.43-.98,5.76-.42.76-.64.76-2.92-.42-.57-.34-.83.19-.42.64.91,1.02,1.63,2.5,1.67,3.37.04.6.72.72,1.67.04,1.82-1.36,2.5-3.26,2.84-7,.23-2.27.38-3.03.83-3.44.38-.42.38-.76-.98-1.63-1.21-.76-1.86-.61-2.35-.38-.72.34-1.7.68-2.76.95.26-.79.57-1.32,1.06-2.08.34-.53.08-.99-1.55-1.67-.31-.14-.58-.2-.78-.2-.53,0-.7.39-.31.88m-4.92-10.68c.53.76,1.36,1.59,2.08,2.04.8.42,1.44.15,1.25-.91-.15-.98-.83-1.44-2.73-1.89-.12-.03-.23-.05-.32-.05-.47,0-.6.36-.28.8m11.17-3.22c-.19.83-.53,1.48-2.04,2.99-.53.49-.34.83.3.45,2.5-1.29,3.29-1.59,4.35-1.82.76-.15.91-.64-.79-1.86-.56-.4-.93-.59-1.2-.59-.33,0-.49.29-.62.82m-6.55-1.02c.49.68.6,1.74.3,4.13-.19,1.33-.42,2.58-.64,3.75-1.21.27-2.39.42-3.45.53-1.51.19-1.67.53-.38.8.95.19,1.82.19,3.52-.04-.19.83-.42,1.63-.72,2.39-1.97.34-3.9.57-5.3.61-.68.04-.68.34-.08.72.95.57,1.55.72,2.88.34.42-.11,1.02-.23,2.04-.42-1.1,2.35-3.11,4.96-5.6,6.93-.15.11-.3.23-.34.3-.04-1.7-.04-4.62-.04-11.74,0-2.57.3-3.64.76-4.47.42-.72.42-1.21-.68-1.82-1.4-.87-1.82-.68-2.31-.38-.98.61-2.27,1.02-3.64,1.17-1.7-1.1-2.54-.6-1.89.8.61,1.25.76,4.62.42,10.15-.34,5.07-1.55,9.84-3.75,13.29-.68,1.06-.23,1.4.53.53,2.58-2.84,3.98-5.87,4.77-11.93,1.17.04,1.89-.04,2.95-.38,1.02-.34.91-1.13-.3-1.36-.45-.04-.98.04-2.54.72.11-1.14.23-2.73.27-4.43.95.04,1.51-.08,2.42-.45,1.06-.38.87-.95-.08-1.21-.42-.15-.8,0-2.31.64.04-1.7.04-3.56-.04-5.38.83-.04,1.63-.19,2.88-.57.57-.15.83-.08.91.95.15,2.31.08,14.88-.19,18.78-.11,1.48-.49,1.67-2.31,1.33-1.21-.34-1.33.19-.61.72,1.29,1.02,1.86,1.63,2.12,2.61.23.72,1.17.79,1.85-.46.8-1.51,1.06-2.69.87-4.96-.04-.53-.08-1.21-.08-1.7.19.08.42.04.76-.11,2.76-1.25,5.38-4.24,6.97-7.91,1.1-.23,2.61-.46,3.45-.57,1.14,1.21,1.63,1.7,5.45,5.53,1.17,1.17,1.51,1.36,6.25.91,1.48-.15,1.36-.68.45-.95-4.24-.99-6.66-2.16-10.9-5.68,2.95-.38,3.6-.42,4.54-.46,1.97-.07,2.27-.83,1.02-1.59-.61-.3-1.67-.42-3.37.08-1.67.49-4.01,1.02-6.4,1.51.27-.72.53-1.55.72-2.35,1.14-.19,2.46-.42,6.1-1.25,1.55-.34,1.51-1.1.61-1.33-.98-.26-1.82-.11-3.03.23-1.17.34-2.27.64-3.26.91.3-1.33.57-2.65.72-3.82.08-.68.57-1.93.95-2.69.42-.83.42-1.17-1.78-2.01-.53-.18-.95-.27-1.26-.27-.72,0-.8.48-.22,1.33"/><g class="cls-7"><rect class="cls-2" x="-.35" y="0" width="36.16" height="31.5"/></g></g></svg>