<svg id="Group_102673" data-name="Group 102673" xmlns="http://www.w3.org/2000/svg" xmlns:xlink="http://www.w3.org/1999/xlink" width="123.477" height="57" viewBox="0 0 123.477 57">
  <defs>
    <clipPath id="clip-path">
      <rect id="Rectangle_1231" data-name="Rectangle 1231" width="123.477" height="57" fill="#fff"/>
    </clipPath>
  </defs>
  <g id="Group_102256" data-name="Group 102256" clip-path="url(#clip-path)">
    <path id="Path_550" data-name="Path 550" d="M96.006,25.852c.28.288.035.4-.07.844-.093.393.113.411.113.815s-.019.4-.019.805-.119.4-.119.8.167.466-.053.8c-.243.368-.317.143-.711.338s-.378.229-.772.424a2.482,2.482,0,0,1-.808.267c-.418.1-.4-.019-.825-.019-.31,0-.631.247-.884.169a2.433,2.433,0,0,1-.73-.5,2.348,2.348,0,0,1-.492-.7,2.747,2.747,0,0,1-.291-.786c-.066-.271-.311-.587-.311-.884a1.768,1.768,0,0,1,.51-.866c.291-.307.405-.185.782-.374s.435-.072.811-.263.329-.282.7-.472a2.433,2.433,0,0,1,.789-.237c.382-.094.432-.314.827-.314s.285.086.679.086.6-.222.871.061m6,5.415a3.17,3.17,0,0,0-.3.258,1.975,1.975,0,0,0-.236.314,1.475,1.475,0,0,1-.248.317c-.055.047-.109.1-.163.143a4.689,4.689,0,0,1-.442.364,1.1,1.1,0,0,1-.384.137,1.562,1.562,0,0,0-.366.116,4.818,4.818,0,0,1-.7.293l-.182.063a3.069,3.069,0,0,1-.546.157l-.2.035a3.018,3.018,0,0,1-.561.068l-.217,0a.857.857,0,0,1-.575-.152.92.92,0,0,1-.2-.4,1.843,1.843,0,0,0-.167-.386,1.513,1.513,0,0,0-.274-.3,1.045,1.045,0,0,1-.3-.363,1.683,1.683,0,0,1-.067-.516,2.867,2.867,0,0,0-.027-.363l-.028-.172L95.69,31a2.773,2.773,0,0,0-.277.3,2.181,2.181,0,0,1-.288.3,1.553,1.553,0,0,1-.369.194,1.914,1.914,0,0,0-.348.176c-.163.113-.333.211-.5.305l-.18.1a2.494,2.494,0,0,1-.42.182c-.1.037-.205.074-.3.12a1.124,1.124,0,0,0-.352.326.806.806,0,0,1-.289.268,1.617,1.617,0,0,1-.448.064,2.448,2.448,0,0,0-.326.031,2.121,2.121,0,0,1-.506,0c-.095-.008-.188-.014-.279-.014a1.345,1.345,0,0,1-.486-.125c-.088-.035-.176-.07-.267-.1a1.26,1.26,0,0,0-.42-.017c-.063,0-.126.01-.188.01a.468.468,0,0,1-.245-.052,3.921,3.921,0,0,1-.654-.53,1.557,1.557,0,0,1-.261-.407,2.952,2.952,0,0,0-.175-.309l-.079-.115a3.793,3.793,0,0,1-.352-.584,1.1,1.1,0,0,1-.058-.416,1.687,1.687,0,0,0-.043-.413,1.649,1.649,0,0,0-.161-.354,1.2,1.2,0,0,1-.167-.411,1.618,1.618,0,0,1,.029-.441,2.606,2.606,0,0,0,.039-.387.5.5,0,0,0-.01-.1.1.1,0,0,1,.008-.025,1.876,1.876,0,0,0,.166-.219,1.813,1.813,0,0,1,.3-.363c.1-.089.216-.176.338-.269.094-.071.192-.145.289-.225s.177-.157.266-.245a3.622,3.622,0,0,1,.328-.3,1.151,1.151,0,0,1,.345-.148,1.462,1.462,0,0,0,.4-.174,1.606,1.606,0,0,0,.277-.263,1.336,1.336,0,0,1,.275-.256L90.5,26c.176-.115.358-.234.526-.329a1.325,1.325,0,0,1,.378-.122,1.648,1.648,0,0,0,.394-.122c.1-.052.2-.11.3-.168a3.436,3.436,0,0,1,.4-.213c.108-.046.213-.1.316-.156a2.7,2.7,0,0,1,.4-.186,1.651,1.651,0,0,0,.433-.21,1.469,1.469,0,0,1,.388-.189c.221-.074.328-.111.438-.149l.422-.143a1.657,1.657,0,0,1,.39-.085,1.353,1.353,0,0,0,.5-.142.454.454,0,0,1,.119-.032.269.269,0,0,0,.256-.2.909.909,0,0,0,.018-.433,1.489,1.489,0,0,1-.023-.263,2.085,2.085,0,0,0-.109-.582,2.991,2.991,0,0,1-.074-.291,2.024,2.024,0,0,1-.018-.368,1.347,1.347,0,0,0-.067-.544,3.459,3.459,0,0,0-.487-.785,3.073,3.073,0,0,0-.7-.6,1.2,1.2,0,0,0-.56-.15,1.892,1.892,0,0,1-.321-.05c-.079-.022-.157-.05-.236-.078a1.8,1.8,0,0,0-.613-.139,1.889,1.889,0,0,1-.347-.031,1.226,1.226,0,0,0-.543.024.754.754,0,0,0-.48.329.823.823,0,0,1-.322.282.8.8,0,0,1-.476.031,1.414,1.414,0,0,0-.219-.023.447.447,0,0,0-.407.234.66.66,0,0,0-.043.665,1.176,1.176,0,0,1,.084.41,1.253,1.253,0,0,0,.093.5,1.087,1.087,0,0,1,.08.436,1.971,1.971,0,0,0,.041.384.447.447,0,0,1-.122.483c-.129.151-.208.163-.283.163a1.3,1.3,0,0,1-.148-.013,2.322,2.322,0,0,0-.289-.021,3.445,3.445,0,0,1-.392-.019,3.681,3.681,0,0,0-.412-.02,1.047,1.047,0,0,1-.374-.06,1.226,1.226,0,0,0-.433-.069h-.2a1,1,0,0,1-.438-.081.831.831,0,0,1,.13-.189,1,1,0,0,0,.188-.3,2.1,2.1,0,0,0,.093-.37,1.486,1.486,0,0,1,.114-.4,1.553,1.553,0,0,0,.12-.395,1.188,1.188,0,0,1,.129-.391,1,1,0,0,1,.308-.257,1.3,1.3,0,0,0,.333-.268,1.664,1.664,0,0,0,.2-.358,1.236,1.236,0,0,1,.2-.353.96.96,0,0,1,.35-.193,1.266,1.266,0,0,0,.375-.2c.068-.059.133-.12.2-.18a4.2,4.2,0,0,1,.4-.34c.067-.049.133-.1.2-.148a4.742,4.742,0,0,1,.446-.311,3.789,3.789,0,0,1,.452-.218c.088-.037.176-.075.263-.116l.133-.064a6.208,6.208,0,0,1,.584-.259c.105-.039.206-.086.306-.133a2.424,2.424,0,0,1,.427-.169,5.3,5.3,0,0,1,.612-.107l.16-.022a.572.572,0,0,0,.182-.058.414.414,0,0,1,.127-.044,1.856,1.856,0,0,1,.41.129c.088.035.179.073.286.105a1.239,1.239,0,0,1,.376.231,1.758,1.758,0,0,0,.336.223,1.344,1.344,0,0,0,.428.093.943.943,0,0,1,.411.1,1.046,1.046,0,0,1,.279.339,1.488,1.488,0,0,0,.255.336,4.956,4.956,0,0,1,.575.578c.065.08.135.155.2.23a2.133,2.133,0,0,1,.323.406,2.747,2.747,0,0,1,.211.541c.024.078.049.156.076.235a4.739,4.739,0,0,1,.185.8,1.269,1.269,0,0,0,.17.4.922.922,0,0,1,.159.419.657.657,0,0,1-.1.371.849.849,0,0,0-.128.468c0,.212,0,.318.006.424s.006.209.006.417,0,.317,0,.423.005.209.005.418a1.016,1.016,0,0,0,.1.459.831.831,0,0,1,.081.382,1.6,1.6,0,0,1-.044.4,1.812,1.812,0,0,0-.048.442,2.871,2.871,0,0,1-.025.408,3.056,3.056,0,0,0-.027.433,2.543,2.543,0,0,0,.032.436,2.415,2.415,0,0,1,.03.407,2.261,2.261,0,0,0,.037.439,2.1,2.1,0,0,1,.034.4.645.645,0,0,1-.108.374.837.837,0,0,0-.134.471.725.725,0,0,0,.259.482.8.8,0,0,1,.143.179c.02.044.036.086.052.126a.678.678,0,0,0,.346.437,1.251,1.251,0,0,1,.174.11.953.953,0,0,0,.53.223.66.66,0,0,0,.391-.13.275.275,0,0,1,.291-.047.581.581,0,0,0,.461-.013.663.663,0,0,1,.289-.064,1.834,1.834,0,0,0,.31-.027.661.661,0,0,1,.256,0c-.074.069-.161.136-.245.2M85.557,31.05a3.261,3.261,0,0,1-.305.342c-.082.074-.16.154-.238.234a3.361,3.361,0,0,1-.339.319,1.027,1.027,0,0,1-.367.15,1.329,1.329,0,0,0-.388.151,1.845,1.845,0,0,0-.289.256,1.336,1.336,0,0,1-.315.264l-.141.074a5.215,5.215,0,0,1-.57.272,1.052,1.052,0,0,1-.393.028,1.48,1.48,0,0,0-.408.018,3.015,3.015,0,0,0-.309.1,2,2,0,0,1-.436.121,2.462,2.462,0,0,0-.342.074,1.723,1.723,0,0,1-.436.078,2.8,2.8,0,0,0-.313.024,1.706,1.706,0,0,1-.474.009.956.956,0,0,1-.359-.213,1.51,1.51,0,0,0-.314-.209,1.571,1.571,0,0,0-.345-.094,1.008,1.008,0,0,1-.41-.139.716.716,0,0,1-.181-.338,1.14,1.14,0,0,0-.188-.383,1.343,1.343,0,0,0-.277-.224.937.937,0,0,1-.312-.283.9.9,0,0,1-.072-.371,1.425,1.425,0,0,0-.066-.4c-.02-.056-.04-.109-.06-.159a3.284,3.284,0,0,1-.155-.482c.03-.115.052-.187.07-.248a3.967,3.967,0,0,0,.1-.418,1.07,1.07,0,0,0,0-.51,1.594,1.594,0,0,1-.037-.35,1.975,1.975,0,0,1,.036-.407,2.232,2.232,0,0,0,.038-.441,1.137,1.137,0,0,0-.086-.457.942.942,0,0,1-.073-.388.65.65,0,0,1,.108-.376.9.9,0,0,0,0-.944.648.648,0,0,1-.108-.376.9.9,0,0,1,.077-.388,1.1,1.1,0,0,0,.091-.46,1,1,0,0,1,.069-.391,1.181,1.181,0,0,0,.081-.456.85.85,0,0,0-.131-.472.664.664,0,0,1-.106-.378.677.677,0,0,1,.1-.378.869.869,0,0,0,.127-.471,3.1,3.1,0,0,0-.027-.436,2.871,2.871,0,0,1-.026-.413.853.853,0,0,0-.132-.473.659.659,0,0,1-.107-.377.992.992,0,0,1,.086-.371.462.462,0,0,0-.1-.606c-.094-.085-.212-.052-.333.013a.769.769,0,0,1-.389.112,1.784,1.784,0,0,1-.366-.031,2.031,2.031,0,0,0-.4-.033h-.161a1.149,1.149,0,0,1-.512-.086,2.97,2.97,0,0,1,.251-.332,2.848,2.848,0,0,0,.251-.334,1.045,1.045,0,0,0,.121-.323.656.656,0,0,1,.121-.284,3.692,3.692,0,0,1,.378-.4c.069-.067.137-.133.2-.2a2.971,2.971,0,0,0,.238-.294,2.039,2.039,0,0,1,.307-.356.877.877,0,0,1,.383-.14,1.173,1.173,0,0,0,.428-.15,2.334,2.334,0,0,0,.3-.259,1.682,1.682,0,0,1,.349-.284,1.549,1.549,0,0,1,.412-.131,2.144,2.144,0,0,0,.388-.113,2.488,2.488,0,0,0,.376-.224,1.957,1.957,0,0,1,.422-.24c.092-.031.17-.06.243-.087.109-.04.205-.076.326-.111a.339.339,0,0,1-.075.207.973.973,0,0,0-.146.32.776.776,0,0,0,0,.422.591.591,0,0,1,0,.33,1.223,1.223,0,0,1-.126.321,1.424,1.424,0,0,0-.143.362.72.72,0,0,1-.159.279c-.1.126-.227.283-.018.505a.356.356,0,0,0,.26.136.505.505,0,0,0,.282-.122.613.613,0,0,1,.36-.145.562.562,0,0,1,.366.128.741.741,0,0,0,.474.161,1.089,1.089,0,0,0,.456-.09.9.9,0,0,1,.385-.076,1,1,0,0,1,.388.069,1.167,1.167,0,0,0,.452.08,2.732,2.732,0,0,1,.408.026,2.98,2.98,0,0,0,.433.027.753.753,0,0,0,.476-.16.566.566,0,0,1,.368-.126A1.529,1.529,0,0,0,85,17.571a.944.944,0,0,1,.226-.042.285.285,0,0,1,.23.122c.162.188.126.3.058.51a1.481,1.481,0,0,0-.093.483,1.889,1.889,0,0,0,.048.409.463.463,0,0,1-.114.5c-.039.048-.073.073-.1.073a.388.388,0,0,1-.161-.083.768.768,0,0,0-.452-.173,2.691,2.691,0,0,0-.411.027,2.44,2.44,0,0,1-.385.026.8.8,0,0,0-.446.124.619.619,0,0,1-.353.1,1.043,1.043,0,0,1-.369-.059,1.209,1.209,0,0,0-.427-.068c-.2,0-.3.007-.406.013s-.2.013-.392.013a2.175,2.175,0,0,1-.386-.03,2.353,2.353,0,0,0-.415-.032,1.341,1.341,0,0,1-.276-.03.468.468,0,0,0-.511.179.4.4,0,0,0-.119.5.829.829,0,0,1,.062.311,3.9,3.9,0,0,1-.018.4c-.009.1-.018.21-.018.421s.005.313.01.417.01.2.01.407a2.513,2.513,0,0,1-.027.4,2.752,2.752,0,0,0-.029.427c0,.2-.008.3-.016.406s-.016.21-.016.42a1.07,1.07,0,0,1-.062.384,1.266,1.266,0,0,0-.07.443,1.246,1.246,0,0,0,.072.445,1.049,1.049,0,0,1,.063.383,2.5,2.5,0,0,1-.028.4,2.729,2.729,0,0,0-.03.427,2.955,2.955,0,0,0,.026.425,2.854,2.854,0,0,1,.024.4c0,.211.006.316.012.422s.012.2.012.409a1.2,1.2,0,0,1-.056.388,1.38,1.38,0,0,0-.063.442,1.6,1.6,0,0,0,.156.607,2.053,2.053,0,0,1,.089.242,1.663,1.663,0,0,0,.388.64l.066.078a1.58,1.58,0,0,0,.675.472,1.444,1.444,0,0,1,.256.151,1.023,1.023,0,0,0,.553.233,1.006,1.006,0,0,0,.444-.093.808.808,0,0,1,.37-.078.906.906,0,0,1,.374.07,1.1,1.1,0,0,0,.441.082,1.8,1.8,0,0,0,.427-.045,1.61,1.61,0,0,1,.389-.041,1.179,1.179,0,0,0,.44-.075,1,1,0,0,1,.378-.064,2.8,2.8,0,0,0,.331-.02.92.92,0,0,1,.323.006c-.049.056-.1.115-.143.173m-13.449.911a1.178,1.178,0,0,0-.084.4.926.926,0,0,0,.055.323c.031.091.035.1-.09.226-.142.137-.2.148-.263.148a.974.974,0,0,1-.118-.01,2.079,2.079,0,0,0-.277-.02c-.2,0-.3.007-.4.013s-.194.012-.388.012a.727.727,0,0,1-.36-.086.922.922,0,0,0-.44-.1.683.683,0,0,0-.441.148.5.5,0,0,1-.332.114c-.194,0-.29-.007-.388-.014s-.2-.014-.4-.014a.577.577,0,0,1-.345-.1.764.764,0,0,0-.442-.13,2.824,2.824,0,0,1-.376-.021,3.114,3.114,0,0,0-.4-.022.9.9,0,0,0-.457.111.872.872,0,0,1-.349.1c-.071.007-.126.011-.173.011-.127,0-.159-.026-.387-.244-.117-.113-.115-.119-.089-.18a.761.761,0,0,0,.065-.325.808.808,0,0,0-.092-.372c-.051-.11-.066-.142.038-.265s.146-.125.2-.125a.921.921,0,0,1,.1.009,1.776,1.776,0,0,0,.23.017,2.374,2.374,0,0,1,.25.014,1.147,1.147,0,0,0,.477-.04,1.5,1.5,0,0,1,.328-.057c.194-.015.3-.035.494-.324a.458.458,0,0,0,.029-.54.723.723,0,0,1-.088-.334.537.537,0,0,1,.123-.351.723.723,0,0,0,.158-.462,1.649,1.649,0,0,0-.05-.43,1.485,1.485,0,0,1-.044-.387,2.085,2.085,0,0,1,.032-.39,2.214,2.214,0,0,0,.035-.423.862.862,0,0,0-.113-.447.667.667,0,0,1-.091-.358.606.606,0,0,1,.112-.363.8.8,0,0,0,.139-.462,3.256,3.256,0,0,0-.023-.419,3.043,3.043,0,0,1-.022-.4.725.725,0,0,0-.159-.464.539.539,0,0,1-.123-.352.877.877,0,0,1,.074-.373,1.065,1.065,0,0,0,.087-.444c0-.208-.008-.312-.015-.416s-.015-.2-.015-.4a.757.757,0,0,0-.145-.46.572.572,0,0,1-.115-.357.435.435,0,0,1,.179-.34.622.622,0,0,0,.238-.48c0-.075,0-.139,0-.2a.679.679,0,0,0-.256-.66.406.406,0,0,0-.281-.137.507.507,0,0,0-.259.1.64.64,0,0,1-.352.117,1.509,1.509,0,0,1-.408-.048,1.709,1.709,0,0,0-.452-.053.984.984,0,0,0-.472.128.5.5,0,0,1-.357.073,2.1,2.1,0,0,1,.415-.875,1.122,1.122,0,0,1,.353-.275,1.61,1.61,0,0,0,.342-.247,6.06,6.06,0,0,1,.614-.567,6.782,6.782,0,0,1,.68-.487,1.475,1.475,0,0,1,.425-.151,2.064,2.064,0,0,0,.371-.117,2.24,2.24,0,0,0,.339-.206,1.479,1.479,0,0,1,.386-.216,5.741,5.741,0,0,1,.811-.181,3.006,3.006,0,0,0,.343-.087,1.9,1.9,0,0,1,.38-.085,1.528,1.528,0,0,1,.1.7.691.691,0,0,1-.09.359.875.875,0,0,0-.111.446c0,.2.005.306.01.408s.01.2.01.4a1.831,1.831,0,0,0,.043.422,1.618,1.618,0,0,1,.039.383.825.825,0,0,0,.123.45.625.625,0,0,1,.1.355.534.534,0,0,1-.119.345.725.725,0,0,0-.152.456.868.868,0,0,0,.112.445.676.676,0,0,1,.091.357.447.447,0,0,1-.159.338.632.632,0,0,0-.21.469.714.714,0,0,0,.158.459.528.528,0,0,1,.123.347,1.981,1.981,0,0,0,.039.421,1.818,1.818,0,0,1,.035.385.463.463,0,0,1-.146.34.654.654,0,0,0-.193.467.609.609,0,0,0,.246.474.423.423,0,0,1,.185.333,2,2,0,0,1-.032.386,2.18,2.18,0,0,0-.035.42,1.282,1.282,0,0,1-.049.38,1.479,1.479,0,0,0-.055.428,2.234,2.234,0,0,1-.029.39,2.437,2.437,0,0,0-.031.418,1.555,1.555,0,0,0,.052.427,1.337,1.337,0,0,1,.047.381,1.262,1.262,0,0,0,.067.434,1.1,1.1,0,0,1,.058.377.463.463,0,0,1-.14.314.283.283,0,0,0,.03.47.518.518,0,0,0,.553.152A1.129,1.129,0,0,1,71.1,31.6a1.512,1.512,0,0,0,.459-.079.86.86,0,0,1,.232-.047.426.426,0,0,1,.275.115c.126.1.109.172.041.369M66.562,10.73a2.17,2.17,0,0,1,.081-.75l.034-.089a1.712,1.712,0,0,1,.332-.6.609.609,0,0,1,.392-.1,1.257,1.257,0,0,0,.377-.058,1.024,1.024,0,0,0,.278-.174.548.548,0,0,1,.344-.162,2.361,2.361,0,0,1,.784.175,1.8,1.8,0,0,0,.364.077.9.9,0,0,1,.464.144.755.755,0,0,1,.122.441,1.472,1.472,0,0,0,.071.388,1.17,1.17,0,0,1,.047.5c0,.07-.007.142-.007.219a1.3,1.3,0,0,0,.085.4.659.659,0,0,1,.053.4,1.023,1.023,0,0,1-.352.383,2.569,2.569,0,0,0-.205.174,1.761,1.761,0,0,1-.613.424.72.72,0,0,1-.392-.023,1.518,1.518,0,0,0-.355-.054,1.369,1.369,0,0,0-.371.067,1.079,1.079,0,0,1-.276.054.3.3,0,0,1-.11-.019,1.242,1.242,0,0,1-.447-.349c-.042-.044-.084-.089-.128-.131s-.108-.1-.158-.14a.805.805,0,0,1-.28-.345,2.221,2.221,0,0,1-.133-.788ZM61.686,31.892a.646.646,0,0,0-.139.395.8.8,0,0,0,.049.312c.019.052.028.076-.037.247s-.206.188-.441.188h-.1a2.5,2.5,0,0,0-.407.029,2.272,2.272,0,0,1-.38.027c-.2,0-.3,0-.394,0s-.2,0-.392,0a3.809,3.809,0,0,1-.385-.017,3.907,3.907,0,0,0-.4-.018,2.569,2.569,0,0,0-.407.028,2.378,2.378,0,0,1-.381.026,1.129,1.129,0,0,1-.361-.05,1.314,1.314,0,0,0-.412-.057,1.1,1.1,0,0,0-.434.082.907.907,0,0,1-.367.07,1.448,1.448,0,0,1-.3-.028.907.907,0,0,0-.462.032c-.448.124-.61.161-.86-.078-.123-.119-.1-.222-.033-.427a1.311,1.311,0,0,0,.079-.4,1.13,1.13,0,0,0-.079-.389c-.054-.157-.082-.236.033-.371a.154.154,0,0,1,.125-.067.629.629,0,0,1,.2.053,1.016,1.016,0,0,0,.362.083h.16a1.645,1.645,0,0,0,.565-.083.753.753,0,0,1,.389,0,.743.743,0,0,0,.164.025A.429.429,0,0,0,57,31.269a.458.458,0,0,0,0-.522,1.012,1.012,0,0,1-.119-.47.526.526,0,0,1,.129-.353.711.711,0,0,0,.165-.466,2.618,2.618,0,0,0-.03-.425,2.38,2.38,0,0,1-.029-.4,1.513,1.513,0,0,0-.055-.434,1.3,1.3,0,0,1-.05-.385.773.773,0,0,0-.141-.46A.589.589,0,0,1,56.758,27a1.9,1.9,0,0,1,.035-.392,2.121,2.121,0,0,0,.038-.426.516.516,0,0,1,.132-.351.7.7,0,0,0,.171-.469c0-.2.008-.3.015-.4s.015-.208.015-.417a.657.657,0,0,0-.2-.474.471.471,0,0,1-.151-.346.738.738,0,0,1,.086-.368.935.935,0,0,0,.1-.451,2.092,2.092,0,0,1,.032-.394,2.253,2.253,0,0,0,.035-.427,2.737,2.737,0,0,1,.025-.4,2.946,2.946,0,0,0,.026-.421c0-.206,0-.309,0-.412s0-.2,0-.409a.829.829,0,0,0-.125-.455.641.641,0,0,1-.1-.363.916.916,0,0,1,.071-.375,1.11,1.11,0,0,0,.083-.445c0-.2.008-.294.016-.393s.016-.2.016-.409a1.161,1.161,0,0,1,.06-.389,1.349,1.349,0,0,0,.069-.447.721.721,0,0,0-.164-.469.532.532,0,0,1-.128-.354,3.139,3.139,0,0,1,.022-.4,3.394,3.394,0,0,0,.023-.421.979.979,0,0,1,.066-.378,1.168,1.168,0,0,0,.077-.443,1.335,1.335,0,0,0-.064-.438,1.173,1.173,0,0,1-.056-.385c0-.206,0-.315,0-.425s0-.217,0-.422a1.06,1.06,0,0,0-.075-.426.887.887,0,0,1-.063-.36c0-.208-.006-.315-.011-.422s-.011-.208-.011-.413a1.122,1.122,0,0,1,.1-.439.571.571,0,0,0,.052-.438.379.379,0,0,0-.374-.291,1.305,1.305,0,0,0-.251.035,1.663,1.663,0,0,1-.341.045.684.684,0,0,0-.493.208.509.509,0,0,1-.39.162,1.587,1.587,0,0,1-.742-.115.742.742,0,0,1,.223-.469c.036-.045.073-.09.108-.139.065-.091.132-.2.2-.318a2.893,2.893,0,0,1,.339-.494,6.764,6.764,0,0,1,.635-.592,2.542,2.542,0,0,1,.442-.257c.107-.053.213-.106.312-.166s.194-.13.29-.2a2.624,2.624,0,0,1,.433-.275.879.879,0,0,1,.433-.008,1.156,1.156,0,0,0,.469,0c.085-.028.167-.056.248-.085a3.3,3.3,0,0,1,.541-.158,2.1,2.1,0,0,0,.283-.071A.979.979,0,0,1,59.6,7.3a1.228,1.228,0,0,0,.152.275.517.517,0,0,1,.113.37c0,.2,0,.3,0,.4s0,.2,0,.408a1.662,1.662,0,0,0,.048.427,1.488,1.488,0,0,1,.043.384,1.237,1.237,0,0,1-.052.38,1.425,1.425,0,0,0-.058.431.589.589,0,0,1-.109.354.777.777,0,0,0-.137.456.642.642,0,0,0,.2.47.458.458,0,0,1,.155.342,2.163,2.163,0,0,0,.036.422,1.98,1.98,0,0,1,.033.39.535.535,0,0,1-.124.351.722.722,0,0,0-.158.463.782.782,0,0,0,.137.457.6.6,0,0,1,.108.355.508.508,0,0,1-.133.348.691.691,0,0,0-.171.464c0,.206.006.311.011.417s.011.2.011.4a1.539,1.539,0,0,0,.051.425,1.353,1.353,0,0,1,.046.379,2.818,2.818,0,0,1-.024.395,2.98,2.98,0,0,0-.026.419,1.046,1.046,0,0,0,.089.443.839.839,0,0,1,.075.37.75.75,0,0,1-.084.366.944.944,0,0,0-.1.448.9.9,0,0,0,.11.45.7.7,0,0,1,.09.364.73.73,0,0,1-.086.365.933.933,0,0,0-.1.448,1.637,1.637,0,0,1-.04.389,1.84,1.84,0,0,0-.044.426.774.774,0,0,0,.137.456.587.587,0,0,1,.109.355,2.289,2.289,0,0,0,.034.422,2.154,2.154,0,0,1,.031.391.618.618,0,0,1-.1.358.8.8,0,0,0-.13.455.737.737,0,0,0,.15.459A.555.555,0,0,1,60,25c0,.2,0,.306,0,.409s0,.2,0,.408a.887.887,0,0,1-.1.4,1.071,1.071,0,0,0-.114.482c0,.2,0,.271-.01.344s-.01.151-.01.359a2.359,2.359,0,0,0,.033.422,2.192,2.192,0,0,1,.031.392,1.2,1.2,0,0,1-.082.432,1.379,1.379,0,0,0-.093.493.781.781,0,0,0,.11.432.593.593,0,0,1,.086.338,1.539,1.539,0,0,1-.041.383,1.69,1.69,0,0,0-.046.425,1.2,1.2,0,0,1-.049.316.385.385,0,0,0,.21.534.587.587,0,0,0,.442.013,1.773,1.773,0,0,1,.467-.065c.094,0,.171,0,.236-.005.228-.009.267-.036.58.209.1.075.1.075.032.166m-7.581-7.4.013.012a.835.835,0,0,1-.439.264.723.723,0,0,1-.3-.068,1.654,1.654,0,0,0-.263-.08c-.215-.041-.478,0-.571-.042a3.307,3.307,0,0,1-.363-.364l-.023-.029a.6.6,0,0,1-.144-.42,1.184,1.184,0,0,1,.336-.158l.047-.018c.048-.018.1-.036.143-.056a1.532,1.532,0,0,0,.281-.16.873.873,0,0,1,.338-.161.724.724,0,0,1,.084,0,1.193,1.193,0,0,1,.549.155.654.654,0,0,1,.228.293l.027.052a1.319,1.319,0,0,0,.143.2c.051.059.128.148.13.2a.658.658,0,0,1-.218.383m.064,2.006a.892.892,0,0,1-.318.521.743.743,0,0,1-.286-.033l-.031-.007a1.259,1.259,0,0,0-.23-.039h-.048a1.716,1.716,0,0,0-.222.02.786.786,0,0,1-.284,0,.806.806,0,0,1-.281-.2l-.024-.023a1.27,1.27,0,0,0-.12-.1c-.046-.035-.1-.069-.152-.105a.7.7,0,0,1-.237-.206l.146-.673a.681.681,0,0,1,.343-.158c.074-.019.151-.041.226-.069l.066-.026a1.394,1.394,0,0,1,.512-.128l.071,0a1.957,1.957,0,0,0,.219-.017l.036,0a.948.948,0,0,1,.41.007c.058.023.155.192.182.567,0,.056.011.117.02.191a1.563,1.563,0,0,1,0,.488m-.67,2.058c-.025.065-.048.135-.073.216a1.568,1.568,0,0,1-.167.4,1.525,1.525,0,0,0-.434.178l-.246.032-.026.169-.013,0a.91.91,0,0,1-.511.016,1.941,1.941,0,0,1-.513-.329.705.705,0,0,1-.164-.325,1.38,1.38,0,0,0-.073-.2l-.042-.082a.66.66,0,0,1-.12-.424,3.281,3.281,0,0,1,.32-.5.767.767,0,0,1,.295-.055,1.527,1.527,0,0,0,.323-.048,2.029,2.029,0,0,1,.537-.094h.086a1.485,1.485,0,0,1,.465.054,1.335,1.335,0,0,1,.27.331l.028.072a.75.75,0,0,1,.057.592m-1.657,1.827a.8.8,0,0,1-.112.527,1.381,1.381,0,0,1-.371.383l-.038.03a.522.522,0,0,1-.465.146,1,1,0,0,1-.527-.261,1.6,1.6,0,0,1-.3-.545L50,30.586a1.338,1.338,0,0,1-.1-.535,1.279,1.279,0,0,1,.387-.5,1.543,1.543,0,0,1,.608.035,1.641,1.641,0,0,1,.548.295,1,1,0,0,1,.375.468l.021.026c0-.01,0-.02,0-.03l.018.048Zm-1.785,1.829a1.66,1.66,0,0,0-.317.192l-.053.044.069.187c-.049.046-.1.1-.148.148a1.932,1.932,0,0,1-.351.3l-.451.1a.424.424,0,0,1-.288-.086,1,1,0,0,1-.17-.285,1.522,1.522,0,0,0-.109-.2l-.081-.116h0l0-.007c-.03-.06-.088-.16-.195-.342a1.263,1.263,0,0,1-.019-.53l.01-.116a.815.815,0,0,1,.15-.515l.6-.156h.086a1.67,1.67,0,0,1,.659.17.815.815,0,0,1,.294.328,1.69,1.69,0,0,0,.129.189,1.464,1.464,0,0,0,.164.164.619.619,0,0,1,.25.363c.006.053-.08.1-.221.172m-2.124-3.725c.049-.113.156-.307.328-.344.044-.01.126-.02.2-.026a1.155,1.155,0,0,1,.5.19l.082.117a1.6,1.6,0,0,0,.148.2,1.387,1.387,0,0,1,.247.335h-.011l.011.1a.57.57,0,0,1-.153.416,1.512,1.512,0,0,1-.366.351l-.554.018a1.682,1.682,0,0,1-.2-.1,1.507,1.507,0,0,1-.218-.345c-.008-.054-.014-.11-.018-.166-.005-.074-.011-.152-.023-.223a.939.939,0,0,1,.03-.529m-.5-1.781a.735.735,0,0,1-.11-.458v-.012a2.4,2.4,0,0,1,.227-.417,1.052,1.052,0,0,1,.467-.084.912.912,0,0,1,.4.337.476.476,0,0,1,.063.434l-.01.04a.622.622,0,0,1-.206.387,2.5,2.5,0,0,1-.369.043.259.259,0,0,1-.067-.006.8.8,0,0,1-.393-.264m.2,3.937-.016.024a.536.536,0,0,1-.2.23,1.164,1.164,0,0,1-.384.118,1.1,1.1,0,0,0-.159.036l-.025,0c-.018,0-.036.008-.055.012l-.044.009c-.179.04-.429.056-.475-.016l-.005-.009.007-.017-.013.005a1.574,1.574,0,0,1-.15-.459c-.013-.067-.029-.134-.047-.2l-.023-.078a1.852,1.852,0,0,1-.084-.437.462.462,0,0,1,.01-.18.242.242,0,0,0,.141-.072.926.926,0,0,0,.113-.175.9.9,0,0,1,.094-.152.223.223,0,0,1,.033-.013c.012,0,.022-.009.015-.007l.477-.091a.572.572,0,0,1,.163.1l.023.018.028,0a.509.509,0,0,1,.276.086,1.516,1.516,0,0,1,.346.46.686.686,0,0,1,.031.388c0,.056,0,.114-.008.17l-.007.1.044,0a.694.694,0,0,1-.105.146m-.215,2.854a.5.5,0,0,1-.192.025h-.108a1.15,1.15,0,0,0-.3.029.97.97,0,0,0-.3.154l-.024.016a.551.551,0,0,1-.227.116h-.042a5.034,5.034,0,0,1-.561-.052.923.923,0,0,1-.276-.4l-.03-.063a.927.927,0,0,1-.1-.507l.219-.543a1.965,1.965,0,0,1,.3-.208,1.81,1.81,0,0,0,.171-.09c.052-.032.1-.07.167-.116a.625.625,0,0,1,.312-.153.5.5,0,0,1,.238.129.269.269,0,0,1,.021.064.265.265,0,0,0,.117.188l.052.028.048-.034c.042-.03.093-.062.113-.074a.909.909,0,0,1,.415.319,1.782,1.782,0,0,1,.187.663.487.487,0,0,1-.215.506M44.9,31.244l-.024-.005a1.079,1.079,0,0,0-.23-.031.391.391,0,0,1-.067-.033.382.382,0,0,0-.18-.064l-.037,0c-.162.035-.218.112-.239.194a.646.646,0,0,1-.307-.227c-.019-.023-.037-.042-.055-.06l-.065-.065c-.137-.131-.291-.28-.3-.434a.913.913,0,0,1,.216-.5l.032-.046a1.214,1.214,0,0,1,.412-.409.633.633,0,0,1,.3-.064c.075,0,.151.007.223.013l.037,0c.041,0,.087,0,.131,0h0a.681.681,0,0,1,.416.1l.183.6a1.687,1.687,0,0,0,.1.241.677.677,0,0,1,.1.343.476.476,0,0,1-.646.435m-.382,1.645a1.894,1.894,0,0,0-.075.252,1.562,1.562,0,0,1-.209.518.455.455,0,0,1-.346.245l-.034,0c-.03,0-.06.006-.089.01a1.784,1.784,0,0,1-.452.005.866.866,0,0,1-.434-.256c-.005-.289-.008-.443-.021-.524l.009-.058a.819.819,0,0,1,.178-.342c.036-.05.072-.1.1-.155a1.332,1.332,0,0,0,.114-.262l.012-.034a.611.611,0,0,1,.136-.255,1,1,0,0,1,.542-.206.643.643,0,0,1,.084-.006l.4.19a1.519,1.519,0,0,1,.157.542.846.846,0,0,1-.071.331m-2.344-2.254a1.807,1.807,0,0,1-.244-.161A1.161,1.161,0,0,0,41.7,30.3a2.183,2.183,0,0,1-.367-.256.876.876,0,0,1,.182-.468,1.223,1.223,0,0,1,.341-.287l.113-.076A1.612,1.612,0,0,1,42.493,29a.678.678,0,0,1,.476-.033L43,28.98c.082.034.082.034.092.132,0,.035.008.076.016.126l.1-.015.161.038a.722.722,0,0,1-.1.237,1.384,1.384,0,0,0-.115.266,1.7,1.7,0,0,1-.171.449l-.024.043a1.056,1.056,0,0,1-.248.314Zm.3,1.627a.979.979,0,0,1-.2.318,1.685,1.685,0,0,0-.125.175c-.026.044-.051.091-.076.14a2.293,2.293,0,0,1-.252.338,1.485,1.485,0,0,1-.354.068l-.308-.031a.7.7,0,0,1-.3-.208.943.943,0,0,0-.235-.18c-.088-.04-.183-.074-.275-.106-.132-.044-.3-.1-.3-.158-.01-.135.1-.26.213-.384a1.66,1.66,0,0,0,.153-.187,1.748,1.748,0,0,1,.443-.457,1.532,1.532,0,0,0,.216-.2.825.825,0,0,1,.3-.241l.717,0c.05.028.164.133.343.531l.006.012a1.544,1.544,0,0,0,.026.212.944.944,0,0,1,.009.364m-2.7-.572a1,1,0,0,1-.489.178h-.028a.8.8,0,0,1-.168-.132,1.741,1.741,0,0,0-.219-.176l-.059-.037a1.473,1.473,0,0,1-.329-.259.736.736,0,0,1-.16-.262h0l-.009-.191a.572.572,0,0,1,.081-.417,1.36,1.36,0,0,1,.359-.217l.037-.017c.045-.021.089-.042.129-.065a2.165,2.165,0,0,1,.556-.18,1.243,1.243,0,0,1,.56-.012c.144.04.2.136.282.351l.025.063a.572.572,0,0,1-.1.759c-.046.056-.093.114-.135.176-.03.045-.058.092-.084.137a.86.86,0,0,1-.251.3m-1.723-1.935a.48.48,0,0,1-.177.1,2.319,2.319,0,0,0-.283.076.106.106,0,0,1-.035.006h0c-.066,0-.159-.069-.287-.21l-.057-.062a1.441,1.441,0,0,1-.265-.359.621.621,0,0,1-.023-.425.316.316,0,0,1,.034-.023.232.232,0,0,0,.117-.127.919.919,0,0,0,.027-.192c.007-.1.013-.166.054-.2a1.1,1.1,0,0,1,.38-.14l.042-.011a1.308,1.308,0,0,0,.136-.04l.58-.051.464.23c.025.024.051.048.079.072a.566.566,0,0,1,.23.31l-.319.407-.073.071a.41.41,0,0,0-.09.2.7.7,0,0,1-.024.084l-.375.2a1.106,1.106,0,0,0-.135.087m-1.392-1.981a.912.912,0,0,1-.5-.2.9.9,0,0,1-.135-.281c0-.006.005-.012.008-.018a.2.2,0,0,0,.015-.151c-.017-.044-.038-.085-.059-.127a.546.546,0,0,1-.075-.218c0-.036-.005-.072-.007-.117s-.008-.064-.012-.1l-.018-.12c-.013-.081-.015-.093,0-.12l.087-.1c.091-.134.194-.285.358-.313a.72.72,0,0,1,.248.09,1.04,1.04,0,0,0,.318.111,1.572,1.572,0,0,0,.33,0,.757.757,0,0,1,.26.008.77.77,0,0,1,.32.293l.056.077a4.462,4.462,0,0,0,.158.473,2.842,2.842,0,0,1-.226.468,2.737,2.737,0,0,0-.445.1l-.031.011-.108.17a1.347,1.347,0,0,1-.426.062c-.043,0-.082,0-.118,0m-1.081-2.967c-.008-.041-.018-.083-.029-.126L35.53,24.6a1.154,1.154,0,0,1-.061-.415c.024-.17.18-.269.318-.356l.011-.015a.333.333,0,0,1,.064.045.4.4,0,0,0,.249.115c.083,0,.119-.078.158-.161.009-.019.022-.047.032-.065.054,0,.107,0,.171,0a.9.9,0,0,1,.348.03,1.755,1.755,0,0,1,.48.28c.033.026.068.05.111.08.122.089.237.173.261.261a.683.683,0,0,1-.035.376l-.041.162a.973.973,0,0,1-.409.207l-.224-.083-.032.011a.452.452,0,0,0-.149.09.146.146,0,0,1-.113.048h0c-.068,0-.138-.009-.209-.009h-.035a1.5,1.5,0,0,0-.327.052.748.748,0,0,1-.326.03s-.1-.035-.191-.478m-1.187,2.816a1.351,1.351,0,0,0-.1.441,2.126,2.126,0,0,0,.032.316.851.851,0,0,1-.179.808,2.011,2.011,0,0,0-.176.3,1.092,1.092,0,0,0-.067.4.788.788,0,0,1-.079.393.818.818,0,0,1-.307.221,1.182,1.182,0,0,0-.348.24,1.305,1.305,0,0,0-.194.343.976.976,0,0,1-.208.343,1.436,1.436,0,0,1-.347.2,2.085,2.085,0,0,0-.33.182,5.291,5.291,0,0,1-.492.305l-.163.094c-.21.124-.471.248-.721.368a3.18,3.18,0,0,0-.328.192,2.484,2.484,0,0,1-.419.232,1.382,1.382,0,0,1-.344.072,1.712,1.712,0,0,0-.313.057,1.3,1.3,0,0,1-.366-.012,1.943,1.943,0,0,0-.359-.028.687.687,0,0,0-.422.125.507.507,0,0,1-.321.1.784.784,0,0,1-.374-.09.986.986,0,0,0-.453-.107c-.2,0-.3,0-.394.007s-.195.007-.39.007a1.5,1.5,0,0,0-.384.04,1.311,1.311,0,0,1-.342.035,1.324,1.324,0,0,0-.366.053.592.592,0,0,1-.445-.03.742.742,0,0,0-.4-.048c-.074.011-.122.047-.288-.088s-.155-.177-.145-.306a1.054,1.054,0,0,0-.029-.386,1.019,1.019,0,0,0-.213-.42.808.808,0,0,1-.178-.347,1.367,1.367,0,0,1-.052-.4,1.526,1.526,0,0,0-.058-.445c-.053-.2-.072-.3-.091-.4s-.04-.212-.094-.419a.985.985,0,0,0-.218-.42.787.787,0,0,1-.182-.348,1.59,1.59,0,0,0-.158-.371.444.444,0,0,1-.054-.483c.076-.159.17-.169.377-.176a1.379,1.379,0,0,0,.371-.05c.068-.021.124-.04.172-.057.183-.064.212-.082.442.053.178.106.179.147.185.282a1.333,1.333,0,0,0,.048.327,1.818,1.818,0,0,1,.07.375,2.019,2.019,0,0,0,.076.41,2.091,2.091,0,0,1,.066.331,1.367,1.367,0,0,0,.137.47l.025.032a6.681,6.681,0,0,0,.751.579,1.354,1.354,0,0,0,.527.157,1.5,1.5,0,0,1,.357.084,2.37,2.37,0,0,1,.318.178,1.8,1.8,0,0,0,.479.238,5.5,5.5,0,0,0,.68.123l.2.028c.117.017.234.046.357.076a2.88,2.88,0,0,0,.524.1c.193.011.393.006.592,0,.1,0,.208,0,.309,0l.037-.008a1.4,1.4,0,0,0,.4-.3,1.589,1.589,0,0,1,.222-.186,2.406,2.406,0,0,0,.436-.373c.042-.042.083-.084.125-.124a1,1,0,0,1,.3-.163.8.8,0,0,0,.4-.266,1.068,1.068,0,0,0,.119-.511,1.381,1.381,0,0,1,.037-.285,2.3,2.3,0,0,1,.093-.248,1.338,1.338,0,0,0,.137-.508,1,1,0,0,0-.21-.545,1.38,1.38,0,0,1-.12-.21,1.866,1.866,0,0,1-.074-.233.982.982,0,0,0-.261-.515,3.287,3.287,0,0,0-.673-.455,6.991,6.991,0,0,0-.731-.318,2.885,2.885,0,0,1-.293-.135,2.8,2.8,0,0,0-.428-.187c-.157-.05-.321-.1-.491-.149l-.258-.077c-.1-.031-.2-.06-.307-.09-.165-.047-.332-.1-.5-.15-.1-.034-.206-.065-.309-.095-.161-.048-.327-.1-.486-.159a1.633,1.633,0,0,0-.427-.082,1.223,1.223,0,0,1-.412-.087,1.07,1.07,0,0,1-.322-.3,1.447,1.447,0,0,0-.3-.3,1.62,1.62,0,0,0-.371-.166,1.033,1.033,0,0,1-.389-.2l-.08-.078a2.818,2.818,0,0,1-.482-.553,1.767,1.767,0,0,1-.17-.55c-.017-.088-.035-.176-.057-.261a1.507,1.507,0,0,1-.005-.493c.01-.107.02-.217.02-.33a2.024,2.024,0,0,0-.036-.329,1.074,1.074,0,0,1-.012-.464,1.312,1.312,0,0,1,.233-.4,2.483,2.483,0,0,0,.189-.278l.053-.1a3.791,3.791,0,0,1,.359-.572,1.859,1.859,0,0,1,.334-.3,3.049,3.049,0,0,0,.267-.218c.066-.062.129-.127.192-.192a3.316,3.316,0,0,1,.38-.353,2.525,2.525,0,0,0,.269-.249,1.836,1.836,0,0,1,.332-.288,3.508,3.508,0,0,1,.446-.219c.094-.041.188-.081.279-.126s.2-.107.294-.164a2.779,2.779,0,0,1,.415-.215,1.407,1.407,0,0,0,.29-.157.921.921,0,0,1,.263-.136c.376-.026.569-.031.959-.031a1.647,1.647,0,0,1,.365.035,1.838,1.838,0,0,0,.4.038,1.1,1.1,0,0,1,.357.052,1.28,1.28,0,0,0,.41.059,1.244,1.244,0,0,0,.41-.061,1.057,1.057,0,0,1,.356-.053,1.883,1.883,0,0,0,.4-.038,1.682,1.682,0,0,1,.366-.034.6.6,0,0,1,.339.094.786.786,0,0,0,.431.118.8.8,0,0,0,.387-.105.321.321,0,0,1,.123-.046c.013,0,.053,0,.138.083s.084.116.012.227a.7.7,0,0,0-.138.4,2.658,2.658,0,0,0,.025.389,2.459,2.459,0,0,1,.023.364,1.621,1.621,0,0,0,.043.4,1.456,1.456,0,0,1,.039.358,1.418,1.418,0,0,1-.04.359,1.611,1.611,0,0,0-.044.4.817.817,0,0,0,.1.4.363.363,0,0,1,.03.333.633.633,0,0,0,.062.538c.058.112.075.146-.011.234a.209.209,0,0,1-.154.081.537.537,0,0,1-.182-.054,1,1,0,0,0-.4-.095,1.753,1.753,0,0,0-.392.054c-.153.034-.25.055-.3-.018a.525.525,0,0,1-.109-.519,2.041,2.041,0,0,0,.043-.4,1.67,1.67,0,0,1,.058-.436,1.216,1.216,0,0,0,.014-.625l-.009-.042-.036-.022a2.878,2.878,0,0,1-.262-.184,2.182,2.182,0,0,0-.42-.27,1.061,1.061,0,0,0-.425-.067.724.724,0,0,1-.416-.085,1.239,1.239,0,0,0-.639-.211c-.073-.01-.146-.019-.222-.034a3.133,3.133,0,0,1-.325-.088,2.549,2.549,0,0,0-.521-.122,1.13,1.13,0,0,0-.466.089,1.207,1.207,0,0,1-.382.087l-.031.006a.688.688,0,0,1-.25.007c-.053,0-.107-.01-.159-.01a.432.432,0,0,0-.38.175.588.588,0,0,1-.221.159.718.718,0,0,0-.384.362.973.973,0,0,1-.231.293,1.232,1.232,0,0,0-.252.313l-.036.073a1.723,1.723,0,0,0-.237.738,1.812,1.812,0,0,0,.276.84l.02.038a2.016,2.016,0,0,0,.583.682,3.764,3.764,0,0,0,.7.364l.065.028a1.3,1.3,0,0,0,.452.079,1.132,1.132,0,0,1,.719.225,1.749,1.749,0,0,0,.438.217,2.891,2.891,0,0,0,.418.076,3.045,3.045,0,0,1,.412.073,1.465,1.465,0,0,1,.375.191,1.778,1.778,0,0,0,.368.194c.116.039.234.068.35.1a2.716,2.716,0,0,1,.438.133,1.492,1.492,0,0,1,.364.258,2.034,2.034,0,0,0,.3.227,1.588,1.588,0,0,0,.378.146,1.047,1.047,0,0,1,.385.167,2.078,2.078,0,0,1,.354.428c.049.072.1.142.15.21s.11.135.168.2a1.82,1.82,0,0,1,.319.451c.026.06.055.12.084.182a2.462,2.462,0,0,1,.22.59.837.837,0,0,1-.077.394m1.693-5.37.02-.123a1.735,1.735,0,0,1,.16-.545l.04-.081c.049-.1.151-.3.209-.3a.673.673,0,0,1,.23.137,1.141,1.141,0,0,1,.113.144.757.757,0,0,0,.238.258l.057.011a.206.206,0,0,0,.165-.122c.009-.014.024-.037.012-.04a.653.653,0,0,1,.264.072,1.47,1.47,0,0,1,.328.343l.06.079c.228.284.247.4.223.449-.036.073-.162.1-.3.133a1.35,1.35,0,0,0-.218.062,1.315,1.315,0,0,1-.484.1h-.028a3.687,3.687,0,0,1-.387-.088c-.058-.021-.118-.04-.178-.057a1.849,1.849,0,0,0-.291-.051l-.029,0a.82.82,0,0,1-.234-.05,1.091,1.091,0,0,1,.026-.328m1.145-2.484a1,1,0,0,1,.38-.239l.06-.015.039-.224a.684.684,0,0,1,.471.126,1.222,1.222,0,0,1,.319.4l.1.158a1.088,1.088,0,0,1,.214.482.778.778,0,0,1-.109.571.092.092,0,0,1-.027,0,1.462,1.462,0,0,1-.292-.059c-.078-.021-.158-.041-.237-.057a1.953,1.953,0,0,1-.565-.211c-.069-.038-.143-.072-.226-.109-.124-.055-.253-.112-.277-.179a.964.964,0,0,1,.151-.641M38.8,18.151a1,1,0,0,1,.338-.336c.047-.033.093-.072.139-.111l.023-.019a.575.575,0,0,1,.236-.149l.119.059s.181.138.345.288l.078.071a1.891,1.891,0,0,1,.339.36.839.839,0,0,1,.088.338,1.577,1.577,0,0,0,.046.257c.074.251.087.332.035.384a1,1,0,0,1-.463.333l-.433-.124-.026-.012c-.047-.022-.094-.045-.138-.063l-.034-.015a1.486,1.486,0,0,1-.5-.289,2.592,2.592,0,0,1-.329-.5Zm2.125,1.909c.1.053.32.168.4.221l.1.108a1.749,1.749,0,0,1,.337.429,1.82,1.82,0,0,1,.12.662,1.368,1.368,0,0,1-.378.111,1.308,1.308,0,0,0-.171.009.916.916,0,0,1-.494-.068c-.053-.021-.109-.039-.165-.056a2.327,2.327,0,0,1-.331-.157,1.552,1.552,0,0,1-.287-.456,2.068,2.068,0,0,1,.2-.635A.7.7,0,0,1,40.813,20c.027.016.063.035.109.059m.012-3.206c-.024-.116-.035-.183,0-.222a2.026,2.026,0,0,1,.583-.42,1.54,1.54,0,0,1,.5.264.836.836,0,0,1,.255.279c.032.047.065.093.1.142a1.328,1.328,0,0,1,.266.458l.021.082a2.4,2.4,0,0,1,.048.436,2.474,2.474,0,0,1-.318.19l-.191.18a1.312,1.312,0,0,1-.462.156l0-.012-.1-.018a.6.6,0,0,1-.364-.258l-.047-.06a1.4,1.4,0,0,1-.248-.4,1,1,0,0,1-.072-.387l.045-.122.006-.029a.97.97,0,0,0-.029-.255m1.956,1.875v.007c.148.027.28.143.427.381.035.054.075.109.12.168a1.034,1.034,0,0,1,.208.38l-.139.632c-.175.119-.362.243-.375.254a.351.351,0,0,1-.085-.069.3.3,0,0,0-.2-.112c-.153,0-.4.024-.5.033l-.033-.025a1.029,1.029,0,0,1-.389-.433,1.016,1.016,0,0,1-.1-.694c.026-.046.247-.3.451-.522a.944.944,0,0,1,.562-.009Zm.383-2.349-.006-.049a1.018,1.018,0,0,1-.013-.3,1.466,1.466,0,0,1,.46-.239,2.44,2.44,0,0,1,.59-.1h.042c.174.01.276.16.373.326.028.049.056.089.083.127a.337.337,0,0,1,.088.2c0,.047,0,.092.008.138l-.077.2.044.4-.064.164a.749.749,0,0,1-.185.341c-.04.022-.332.12-.569.2a.8.8,0,0,1-.573-.109,1.1,1.1,0,0,1-.241-.5.717.717,0,0,1,.023-.293,1.411,1.411,0,0,0,.036-.276,1.8,1.8,0,0,0-.018-.224M45.248,18.3a1.188,1.188,0,0,1,.441.206,1.829,1.829,0,0,0,.1.164l.019.03a.68.68,0,0,1,.139.3,2.56,2.56,0,0,1-.159.592l-.422.418a.746.746,0,0,1-.42.088h-.109l0,.028-.009-.028a.568.568,0,0,1-.425-.177l-.338-.692a2.061,2.061,0,0,1,.122-.594l.018-.058c.011-.033.02-.066.029-.1l-.01,0c.027-.061.159-.083.318-.109.053-.008.11-.018.166-.029a3.124,3.124,0,0,1,.506-.042h.038m.25-1.985a2.03,2.03,0,0,1,.118-.525c.029-.062.2-.062.26-.062l.115,0h.063l.171.006a1.944,1.944,0,0,1,.578.118c.261.09.326.133.318.284a.911.911,0,0,0,.046.27.666.666,0,0,1,.035.347.7.7,0,0,1-.2.269.9.9,0,0,0-.176.219,1.908,1.908,0,0,1-.281.455l-.37.225a.274.274,0,0,1-.059-.014,1.336,1.336,0,0,1-.428-.331,1.194,1.194,0,0,1-.114-.49l-.008-.08a1.694,1.694,0,0,0-.033-.188l-.012-.054a1.1,1.1,0,0,1-.039-.367ZM47.39,17.5l.064-.153a1.722,1.722,0,0,1,.233-.438,1.289,1.289,0,0,1,.344-.256c.051-.031.1-.061.145-.093a.674.674,0,0,1,.464-.1c.124.008.144.01.217.226a1.334,1.334,0,0,0,.161.307.558.558,0,0,1,.1.21.637.637,0,0,1-.1.317l-.014.029c-.026.054-.052.11-.073.168a.805.805,0,0,1-.277.409,2.856,2.856,0,0,1-.471.242,2.663,2.663,0,0,1-.5-.107c-.052-.022-.06-.034-.06-.034a.245.245,0,0,1,0-.045.624.624,0,0,0-.031-.185l-.022-.067-.312,0a1.484,1.484,0,0,1,.138-.431m1.838,1.072.038-.131a4.83,4.83,0,0,1,.2-.508,2.767,2.767,0,0,1,.559-.3c.054-.016.111-.035.165-.056a1.7,1.7,0,0,1,.344-.058,2.963,2.963,0,0,1,.355.232l.07.058.2.43a.511.511,0,0,1-.1.4,1.426,1.426,0,0,1-.389.371l-.448.388a.694.694,0,0,1-.3-.051l-.029-.01a1.364,1.364,0,0,0-.209-.055.6.6,0,0,1-.379-.232.466.466,0,0,1-.075-.481m2.258.542a2.592,2.592,0,0,1,.588-.131.235.235,0,0,1,.038,0l.106.082.028.015c.013,0,.014,0,.026.063a.53.53,0,0,0,.11.257,1.1,1.1,0,0,0,.22.187c.075.053.153.106.173.159a.779.779,0,0,1,.056.476.932.932,0,0,1-.346.258l-.04.023c-.035.019-.07.039-.1.059a1.412,1.412,0,0,1-.44.141l-.123.027c-.053.012-.1.027-.157.042l-.043.012a1.2,1.2,0,0,1-.314.064.248.248,0,0,0-.041,0,1.435,1.435,0,0,1-.453-.272,1.535,1.535,0,0,1-.123-.513A2.547,2.547,0,0,1,51,19.576c.048-.048.095-.1.141-.152l.024-.027a1.206,1.206,0,0,1,.321-.287m-.6,6.966a.855.855,0,0,1-.368.036,3.1,3.1,0,0,1-.593-.231,1.393,1.393,0,0,1-.283-.446l-.006-.03-.048-.048a.783.783,0,0,1,0-.194.582.582,0,0,1,.09-.313.173.173,0,0,1,.021-.023c.015-.014.03-.029.028-.032l.409-.3a2.242,2.242,0,0,1,.556-.119h.025a1.976,1.976,0,0,1,.586.112.768.768,0,0,1,.134.34,1.319,1.319,0,0,1,.026.339v.012l0,.012c.008.035.017.069.03.114a.709.709,0,0,1,.045.351.487.487,0,0,1-.294.327l-.033.023a.139.139,0,0,1-.057.042,1.937,1.937,0,0,1-.267.03m-1.747.8a.755.755,0,0,1,.219-.191,1.011,1.011,0,0,1,.349-.172,1.061,1.061,0,0,1,.289-.04l.083,0a1.123,1.123,0,0,1,.511.113c.19.064.287.142.326.259a.977.977,0,0,1-.011.615.688.688,0,0,1-.24.261.339.339,0,0,1-.033.028l-.024.027a2.1,2.1,0,0,1-.258.35l-.006,0a.2.2,0,0,0-.15-.085l-.067.01-.183.244-.05,0v.023l-.116.01a.4.4,0,0,1-.218-.062,1.11,1.11,0,0,1-.286-.35c-.028-.044-.055-.087-.078-.119a2.275,2.275,0,0,1-.225-.526Zm-1.522-2.3a1.712,1.712,0,0,1,.554-.336l.085-.02a.941.941,0,0,1,.588-.022.478.478,0,0,1,.163.525l-.026.094a.633.633,0,0,1-.493.407c-.356.087-.616.075-.7-.021a.63.63,0,0,1-.166-.627m-.2-1.67a1.373,1.373,0,0,1,.355-.109c.05,0,.1-.008.159-.016a.68.68,0,0,1,.366.012.475.475,0,0,1,.247.262,1.048,1.048,0,0,1-.191.571.821.821,0,0,1-.579.071l-.391-.233-.037-.087a.616.616,0,0,1,.072-.471m2.042-2.645c-.006.1-.188.19-.275.217l-.038.022a.322.322,0,0,0-.1.237c0,.063-.006.082-.082.118l-.447.253a1.126,1.126,0,0,1-.415.136.274.274,0,0,1-.051,0c-.105-.018-.258-.283-.337-.471a3.135,3.135,0,0,1,.083-.328c.018-.045.033-.088.045-.13s.026-.094.036-.141a.841.841,0,0,1,.127-.324.646.646,0,0,1,.476-.16c.04,0,.078-.006.117-.01l.126-.018a.732.732,0,0,1,.491.028.688.688,0,0,1,.257.577Zm1.421,2.613c.079.008.195.049.289.322.108.313.087.482.06.515a.846.846,0,0,1-.467.312,1.713,1.713,0,0,1-.613-.056.835.835,0,0,1-.381-.272l-.07-.071a.405.405,0,0,0-.065-.058h0a.229.229,0,0,1,.01-.036,1.266,1.266,0,0,0,.04-.173l.531-.368a1.382,1.382,0,0,1,.667-.114m-.34-.944c-.011.021-.023.043-.037.068a.853.853,0,0,1-.354.4.653.653,0,0,1-.417.06c-.045,0-.091-.007-.155-.007-.03,0-.031,0-.106.041l-.02.01a.628.628,0,0,1-.458-.2l-.04-.04a.573.573,0,0,1-.2-.529c.01-.137.058-.2.248-.375a2.124,2.124,0,0,1,.526-.4l.566-.081a1.015,1.015,0,0,1,.485.392ZM47.31,19.912l-.033.027-.007.125a.354.354,0,0,1-.318.235l-.175.048a1.07,1.07,0,0,1-.443-.07l-.082-.525a.84.84,0,0,1,.127-.31l.012-.023a2.183,2.183,0,0,0,.1-.2c.02-.052.039-.1.056-.154.046-.132.09-.257.159-.294a.835.835,0,0,1,.595-.024l.556.366a.929.929,0,0,1-.146.456L47.7,19.6c-.056.047-.249.206-.386.316M47,22.368l-.053.037.035.164-.34-.04a1.063,1.063,0,0,1-.433-.226c-.072-.17-.15-.368-.156-.4a1.608,1.608,0,0,1,.177-.427.927.927,0,0,1,.468-.25,1.414,1.414,0,0,1,.407.345,1.032,1.032,0,0,1,.23.5,1.372,1.372,0,0,1-.334.294M45.974,27.3l.463-.293c.043,0,.14-.01.246-.01a1.1,1.1,0,0,1,.276.025l.061.016c.135.034.176.044.247.211l.017.038.114.042a1.605,1.605,0,0,1,.009.548,2.016,2.016,0,0,1-.365.347l-.045.03-.578.191v0a.613.613,0,0,1-.481-.16,1.709,1.709,0,0,1-.193-.5,4.684,4.684,0,0,1,.23-.487m-1.562-5.977.01-.029a.7.7,0,0,1,.336-.439.745.745,0,0,1,.557.053l.037.015c.17.067.215.086.258.256l.03.093c-.006.055-.04.253-.074.436a.7.7,0,0,1-.241.1.18.18,0,0,0-.124.117,1,1,0,0,0-.118.108.667.667,0,0,1-.08.075.32.32,0,0,1-.169.03c-.04,0-.08,0-.113,0l-.046,0c-.137-.055-.323-.164-.34-.241a.973.973,0,0,1,.078-.57m-3.129,5.347h0l-.007,0c0-.078.037-.345.074-.587a1.879,1.879,0,0,1,.469-.284c.037,0,.374-.014.605-.02a1.7,1.7,0,0,1,.274.392l.02.051-.093.429a2.264,2.264,0,0,1-.419.259.95.95,0,0,1-.5.008l-.029-.006c-.207-.052-.346-.1-.391-.242m-.028.009-.064.02h0Zm.231-2.36a.613.613,0,0,1,.188-.027,1.172,1.172,0,0,1,.29.041l.285.3a.569.569,0,0,1,0,.367.657.657,0,0,1-.267.321c-.04.01-.289.026-.519.036a2.046,2.046,0,0,1-.421-.317.543.543,0,0,1,.079-.426.692.692,0,0,1,.36-.3m1.122-2.582.02-.016.062-.163.065-.021.032-.018a.881.881,0,0,1,.346-.212,1.265,1.265,0,0,1,.4.112l.04.025a.517.517,0,0,1,.276.331.759.759,0,0,1-.011.5,2.017,2.017,0,0,1-.418.318.659.659,0,0,1-.285-.029c-.086-.018-.172-.036-.264-.046-.127-.013-.246-.172-.29-.389l-.02-.088c-.043-.189-.047-.223.048-.3m-.217,1.25a.468.468,0,0,0,.267.036l.06,0h.033a1.062,1.062,0,0,1-.274.659l-.606.205a.771.771,0,0,1-.1-.009c-.14-.024-.329-.323-.412-.506a.513.513,0,0,1,.106-.483,1.172,1.172,0,0,1,.479-.242c.033,0,.214.04.39.08,0,.014,0,.028,0,.04-.006.1-.012.182.061.222m-3.412-.62a1.679,1.679,0,0,1,.2-.5l.028-.044c.1-.158.158-.247.244-.247a.166.166,0,0,1,.049.008l.066.02a2.212,2.212,0,0,1,.583.243,2.469,2.469,0,0,1,.539.466c.2.248.263.493.159.623-.031.033-.265.212-.482.373-.074,0-.195,0-.288,0l-.107,0a1.489,1.489,0,0,1-.454-.062.946.946,0,0,1-.389-.311l-.017-.018a1.439,1.439,0,0,0-.143-.145c-.065-.053-.055-.125.016-.406m.03,1.462c.083.022.168.044.251.058a1.814,1.814,0,0,1,.589.193,2.517,2.517,0,0,0,.236.115,1,1,0,0,1,.306.2,2.083,2.083,0,0,1-.216.377l-.071.1.236.092.068.137-.112.053-.079-.055c-.016.023-.021.027-.094.03a.782.782,0,0,0-.188.028l-.141.041c-.039.013-.078.028-.118.043l-.058.022a1.048,1.048,0,0,1-.387.1h0a2.114,2.114,0,0,1-.577-.059,1.121,1.121,0,0,1-.084-.35c0-.039-.011-.078-.019-.133l-.021-.121a1.316,1.316,0,0,1-.034-.428,2.6,2.6,0,0,1,.181-.5.858.858,0,0,1,.333.052m.178,3.762c-.2,0-.363-.244-.44-.485a1.3,1.3,0,0,1-.061-.746c.033-.032.322-.239.586-.423a.885.885,0,0,1,.44.024l.026.006a1.781,1.781,0,0,0,.208.035l.1.008a.768.768,0,0,1,.48.135,4.125,4.125,0,0,0,.2.707l.013.052c-.016.063-.045.075-.133.111-.033.013-.069.028-.108.047a1.567,1.567,0,0,0-.178.1,1.885,1.885,0,0,0-.153.115,1,1,0,0,1-.349.21,3.986,3.986,0,0,1-.556.1l-.057.007.028-.029Zm2.255.671a.831.831,0,0,0,.052.221c.035.1.055.171.022.236a1.33,1.33,0,0,1-.366.469,2.7,2.7,0,0,1-.55.2,3.409,3.409,0,0,1-.558-.328.81.81,0,0,1-.214-.571l-.012-.105a.374.374,0,0,0,.092-.054,1.578,1.578,0,0,0,.152-.127l.3-.31.761-.16a.612.612,0,0,1,.309-.035c.106.056.124.189.135.4l-.125.127Zm1.033-.648.289-.415.45-.23a.3.3,0,0,1,.23.051.263.263,0,0,1,.085.167,3.122,3.122,0,0,1-.183.585,2.3,2.3,0,0,1-.383.432.348.348,0,0,1-.444-.139l.011-.007a.5.5,0,0,1-.055-.444m2.717.482c0,.02,0,.041,0,.062a2.029,2.029,0,0,1-.148.5,1.735,1.735,0,0,1-.475.093,2.8,2.8,0,0,1-.525-.094.439.439,0,0,1-.254-.351l-.028-.123,0-.027a2.726,2.726,0,0,1,.173-.287l.031-.043c.033-.024.26-.141.466-.242.041,0,.085-.009.136-.016a.949.949,0,0,1,.419.013Zm-.233-1.763c-.05,0-.1,0-.146,0h-.029a.957.957,0,0,1-.427-.052,1.13,1.13,0,0,0-.3-.063,1.817,1.817,0,0,1-.393-.135.769.769,0,0,1-.133-.381,1.326,1.326,0,0,0-.071-.28c-.026-.063-.058-.126-.094-.193a1.007,1.007,0,0,1-.154-.418l.127-.7a5.51,5.51,0,0,1,.334-.63,3.044,3.044,0,0,1,.586-.371,3.591,3.591,0,0,1,.7-.117.75.75,0,0,1,.389.168,1.257,1.257,0,0,0,.225.134,1.325,1.325,0,0,0,.228.067l.39.177.108.378a.931.931,0,0,0,.049.3.9.9,0,0,0,.205.258c.105.105.2.2.2.321a1.953,1.953,0,0,1-.119.7,1.434,1.434,0,0,1-.351.431l-.1.1a.8.8,0,0,1-.383.172,2.021,2.021,0,0,0-.233.074.868.868,0,0,1-.349.058Zm8-5.39.076,0a1.617,1.617,0,0,0,.217,0H53.3a1.539,1.539,0,0,1,.451.2.609.609,0,0,1,.093.3,1.014,1.014,0,0,0,.052.244l.015.037c.082.212.116.309.064.4a.961.961,0,0,1-.425.436,1.8,1.8,0,0,1-.621.192l-.068-.005c-.137-.011-.46-.035-.585-.062l-.019,0a2.318,2.318,0,0,0-.235-.038,1.853,1.853,0,0,1-.4-.127c-.012-.089-.05-.252-.133-.576a1.729,1.729,0,0,1,.362-.294c.058-.04.113-.077.158-.112l.077-.059a1.161,1.161,0,0,0,.2-.219.753.753,0,0,1,.284-.268.8.8,0,0,1,.3-.047l.09,0m67.421,4.813,0-.1c-.014-.458-.028-.91-.039-1.354l-.027-1.038c-.115-4.46-.223-8.672-1.406-11.284-1.477-3.266-6.162-4.142-10.694-4.99-.994-.186-2.021-.378-2.984-.592C93.55,3.81,78.236,3.8,65.931,3.8c-1.8,0-3.546,0-5.229-.01-2.488-.013-4.716-.121-6.886-.225-2.1-.1-4.085-.2-6.128-.2-.524,0-1.042.007-1.54.019-2.489.063-5.449.411-8.583.78-1.872.22-3.809.448-5.768.63-4.423.412-8.848.861-14.346,1.813-.389.067-.853.143-1.37.227l-.1.016c-3.327.542-10.25,1.67-11.54,3.043-1.488,1.581-1.4,6.354-1.355,8.919.01.576.019,1.073.012,1.453-.008.362-.017.748-.027,1.155C2.945,26.648,2.729,35.4,6.038,37.826c1.23.906,6.311,1.52,10.8,1.726,1.979.088,3.829.325,5.621.554a44.616,44.616,0,0,0,4.878.454,10.055,10.055,0,0,0,1.626-.214,7.963,7.963,0,0,1,1.523-.19,20.292,20.292,0,0,1,2.332.287,20.472,20.472,0,0,0,2.819.32c1.793.038,3.721.105,5.729.2,5.148.246,13.036.4,20.586.4,4.979,0,9.31-.07,12.194-.2,8.687-.38,19.028-1.024,29.119-1.816.843-.066,1.762-.1,2.892-.1.648,0,1.3.01,1.939.019s1.261.019,1.883.019a29.577,29.577,0,0,0,3.231-.142c2.275-.249,5.44-1.273,6.11-2.221,1.347-1.9,1.2-6.825,1.062-11.172m-4.291,31.079h-2.174l-.489-1.754.543-.165.218.767a2.709,2.709,0,0,0,1.9.6,1.082,1.082,0,0,0,.652-.986c0-.548-.543-.822-1.25-1.1-.848-.329-1.848-.657-1.848-1.644,0-.932.924-1.48,1.74-1.754h1.739l.435-.165v1.7h-.544v-.548a2.415,2.415,0,0,0-1.63-.438.913.913,0,0,0-.6.822c0,.493.49.658,1.25.932.913.329,1.848.712,1.848,1.808,0,.932-.924,1.644-1.794,1.918m-7.138-4.877-.87,2.357h1.74Zm.761,4.877v-.548h.6l.163-.164-.435-1.206h-2.174l-.435,1.206.163.164h.6v.548h-2.229v-.548h.38l.326-.11,1.957-5.1v-.274h1.142l2.066,5.37.326.11h.38v.548Zm-4.543-4.494v-.657l-.761-.22h-.761v4.713l.109.11h.761v.548H101.58v-.548h.435l.435-.11V51.465h-.761l-.761.22v.657h-.543V50.588l.6.22h4.131l.6-.22v1.754Zm-9.062,4.494v-.548h.435l.435-.11V51.465l-.109-.11h-.761v-.548H99.04v.548h-.435l-.435.11v4.713l.109.11h.761v.548ZM90.974,51.3v2.52h1.142a1.672,1.672,0,0,0,.511-1.26c0-.658-.511-1.26-1.652-1.26m3.37,5.535a1.693,1.693,0,0,1-1.631-.822l-1.174-1.7h-.565v1.863l.109.11h.652v.548H88.963v-.548h.38l.435-.11V51.465l-.108-.11h-.707v-.548h2.446c1.414,0,2.446.548,2.446,1.534a2.125,2.125,0,0,1-1.087,1.644l1.2,1.754c.337.493.435.548.761.548H95v.548Zm-9.861-4.877-.87,2.357h1.74Zm.761,4.877v-.548h.6l.163-.164-.435-1.206H83.4l-.435,1.206.163.164h.6v.548H81.493v-.548h.381l.326-.11,1.957-5.1v-.274H85.3l2.066,5.37.326.11h.381v.548Zm-5.12-2.466-.109.11v2.137L78.493,57h-.326c-1.9,0-3.7-.986-3.7-3.014,0-1.918,1.794-2.85,2.772-3.178h2.283l.435-.165v1.918h-.543l-.109-.713a3.3,3.3,0,0,0-1.522-.384,2.022,2.022,0,0,0-2.011,2.3,2.459,2.459,0,0,0,2.663,2.521h.272l.109-.11v-1.7l-.326-.11h-.6v-.548h2.827v.548ZM69.879,51.3v2.52h1.142a1.671,1.671,0,0,0,.511-1.26c0-.658-.511-1.26-1.653-1.26m3.371,5.535a1.693,1.693,0,0,1-1.631-.822l-1.174-1.7h-.565v1.863l.109.11h.653v.548H67.868v-.548h.38l.435-.11V51.465l-.109-.11h-.706v-.548h2.446c1.413,0,2.446.548,2.446,1.534a2.124,2.124,0,0,1-1.087,1.644l1.2,1.754c.337.493.435.548.761.548H73.9v.548Zm-9.861-4.877-.87,2.357h1.739Zm.761,4.877v-.548h.6l.163-.164-.435-1.206H62.3l-.435,1.206.163.164h.6v.548H60.4v-.548h.381l.326-.11,1.957-5.1v-.274H64.2l2.066,5.37.326.11h.38v.548Zm-7.451,0v-.548h.435l.435-.11V52.068l-2.174,4.384h-.218l-2.066-4.165v3.891l.109.11h.652v.548H51.643v-.548h.326l.435-.11V51.465l-.109-.11h-.652v-.548h2.229V51.3l1.63,3.288h.109l1.63-3.288v-.493h2.229v.548h-.326l-.434.11v4.713l.108.11h.653v.548ZM43.763,51.246a.906.906,0,0,0-.6.822c0,.438.435.822.652,1.041a1.048,1.048,0,0,0,.652-.986.99.99,0,0,0-.706-.877m-.706,2.63a.962.962,0,0,0-.381.767,1.687,1.687,0,0,0,1.141,1.48,1.994,1.994,0,0,0,1.142-.329ZM46.1,56.945l-.87-.877A3.115,3.115,0,0,1,43.219,57a2.194,2.194,0,0,1-1.577-1.918,1.932,1.932,0,0,1,1.142-1.589,1.71,1.71,0,0,1-.6-1.151c0-.932,1.066-1.534,1.686-1.644.706.11,1.467.6,1.467,1.315,0,.877-.924,1.26-1.25,1.37l1.522,1.534.706-1.808h-.652v-.548h2.066v.548H47.35l-.435.165-.978,1.973.815.822h.979a1.914,1.914,0,0,1-1.631.877m-10.207-.11H33.719l-.489-1.754.543-.165.218.767a2.708,2.708,0,0,0,1.9.6,1.082,1.082,0,0,0,.652-.986c0-.548-.543-.822-1.25-1.1-.848-.329-1.848-.657-1.848-1.644,0-.932.924-1.48,1.739-1.754h1.739l.435-.165v1.7h-.544v-.548a2.415,2.415,0,0,0-1.63-.438.913.913,0,0,0-.6.822c0,.493.489.658,1.25.932.913.329,1.848.712,1.848,1.808,0,.932-.924,1.644-1.794,1.918m-7.644-5.48a2.874,2.874,0,0,0-1.3,2.357,2.471,2.471,0,0,0,2.609,2.575,2.875,2.875,0,0,0,1.3-2.356,2.471,2.471,0,0,0-2.609-2.576M28.793,57a3.011,3.011,0,0,1-3.153-3.014,3.543,3.543,0,0,1,3.37-3.343,3.011,3.011,0,0,1,3.153,3.014A3.543,3.543,0,0,1,28.793,57m-4.974-.164a4.21,4.21,0,0,1-1.2.164c-1.9,0-3.7-.986-3.7-3.014,0-1.918,1.794-2.85,2.773-3.178h2.228l.435-.165v2.028h-.544l-.163-.822a2.618,2.618,0,0,0-1.413-.384,2.022,2.022,0,0,0-2.011,2.3c0,1.754,1.358,2.521,2.881,2.521l1.087-1.1.326.164a3.12,3.12,0,0,1-.706,1.48m-8.914-4.877-.87,2.357h1.74Zm.761,4.877v-.548h.6l.163-.164-.435-1.206H13.818l-.435,1.206.163.164h.6v.548H11.915v-.548H12.3l.326-.11,1.957-5.1v-.274h1.142l2.065,5.37.326.11h.38v.548Zm-4.542-4.494v-.657l-.761-.22H9.6v4.713l.109.11h.761v.548H7.536v-.548h.435l.435-.11V51.465H7.645l-.761.22v.657H6.34V50.588l.6.22h4.131l.6-.22v1.754ZM120.1,37.494c-1.078,1.526-5.116,2.441-6.792,2.624a30.552,30.552,0,0,1-3.334.148c-.623,0-1.252-.01-1.9-.019h-.029c-.63-.009-1.263-.019-1.9-.019-1.105,0-2,.03-2.818.094-10.1.792-20.458,1.438-29.152,1.818-2.9.127-7.241.2-12.235.2-7.561,0-15.467-.153-20.632-.4-2-.094-3.921-.161-5.7-.2a21.185,21.185,0,0,1-2.957-.333,19.627,19.627,0,0,0-2.217-.275h-.049a8.855,8.855,0,0,0-1.262.178,10.657,10.657,0,0,1-1.768.229h-.039a45.273,45.273,0,0,1-4.988-.462c-1.77-.226-3.6-.461-5.541-.547-2.184-.1-9.455-.536-11.325-1.912-3.717-2.731-3.5-11.448-3.36-17.216l0-.074c.009-.378.018-.738.025-1.077.007-.361,0-.849-.012-1.414-.053-2.893-.141-7.737,1.619-9.607C5.14,7.737,10.48,6.761,15.83,5.89c.553-.09,1.047-.171,1.458-.241,5.538-.959,9.981-1.409,14.421-1.823,1.937-.18,3.864-.406,5.745-.627,3.156-.371,6.138-.722,8.67-.786.506-.013,1.033-.02,1.565-.02,2.064,0,4.061.1,6.19.2,2.145.1,4.363.211,6.83.224,1.681.008,3.429.009,5.224.01,12.351,0,27.724.011,39.5,2.624.951.211,1.924.393,2.954.586,4.774.893,9.71,1.817,11.395,5.543,1.265,2.791,1.375,7.1,1.493,11.663l.027,1.036c.013.474.028.958.043,1.448.146,4.719.3,9.6-1.24,11.768m3.24-13.2c-.136-5.456-.164-10.893-1.538-14.2-2.01-4.831-9.054-5.3-14.615-6.643C93.224.087,74.741.557,60.658.479c-5.741-.031-10.225-.6-15.19-.457-4.171.116-9.539,1.051-15,1.6-4.822.487-9.365,1-15,2.063C12.09,4.322,3.3,5.641,1.628,7.579-.413,9.941.135,17.256.09,19.717-.019,25.552-.581,36.95,3.358,40.1c1.669,1.336,8.419,1.909,11.535,2.061,4.124.2,7.869,1.106,10.961,1.145.967.013,2.552-.491,3.27-.456,1.651.075,3.453.641,5.384.686,2.026.047,4.083.131,5.96.229,9.26.48,26.207.61,34.226.228,9.675-.457,20.632-1.229,30.38-2.06,3.5-.3,7.114.158,10.383-.229,2.106-.251,5.823-1.357,6.73-2.75,1.669-2.564,1.29-9.208,1.155-14.66" transform="translate(0 0)" fill="#fff"/>
  </g>
</svg>
